<svg width="170" height="37" viewBox="0 0 170 37" fill="none" xmlns="http://www.w3.org/2000/svg">
<g clip-path="url(#clip0)">
<path d="M82.6902 36.5606C82.4263 36.7585 82.1293 36.8575 81.7993 36.8575C81.4033 36.8575 81.0404 36.7256 80.7434 36.4946L81.0404 35.9996C81.2714 36.1646 81.5023 36.2306 81.7663 36.2306C81.9643 36.2306 82.1623 36.1646 82.3273 36.0326C82.5252 35.8676 82.6572 35.6697 82.7562 35.4387L82.9542 34.9107L80.8424 29.7962H81.5353L83.3172 34.2178L85 29.7962H85.66L83.2842 35.6697C83.1522 35.9996 82.9542 36.3296 82.6902 36.5606Z" fill="#4EA6DC"/>
<path d="M89.8505 30.1262C90.2464 30.3241 90.5434 30.6541 90.7744 31.0501C91.0054 31.446 91.1043 31.908 91.1043 32.3699C91.1043 32.8319 91.0054 33.2939 90.7744 33.7228C90.5764 34.1188 90.2464 34.4158 89.8505 34.6467C89.0255 35.0757 88.0356 35.0757 87.1777 34.6467C86.7818 34.4488 86.4848 34.1188 86.2538 33.7228C86.0228 33.3269 85.9238 32.8319 85.9238 32.3699C85.9238 31.908 86.0228 31.446 86.2538 31.0501C86.4848 30.6541 86.7818 30.3571 87.1777 30.1262C88.0026 29.6642 89.0255 29.6642 89.8505 30.1262ZM87.5077 30.6211C87.2107 30.7861 86.9797 31.0501 86.8147 31.347C86.4848 32.007 86.4848 32.7989 86.8147 33.4588C86.9797 33.7558 87.2107 34.0198 87.5077 34.1848C88.1346 34.5147 88.8935 34.5147 89.5205 34.1848C89.8175 34.0198 90.0484 33.7558 90.2134 33.4588C90.5434 32.7989 90.5434 32.007 90.2134 31.347C90.0484 31.0501 89.8175 30.7861 89.5205 30.6211C88.8935 30.2581 88.1346 30.2581 87.5077 30.6211Z" fill="#4EA6DC"/>
<path d="M96.9119 29.7962V34.9437H96.252V33.7228C96.087 34.1188 95.823 34.4158 95.493 34.6467C95.1301 34.8777 94.7011 34.9767 94.2722 34.9767C93.7442 35.0097 93.2163 34.8117 92.8533 34.4488C92.4903 34.0528 92.2923 33.5249 92.3253 32.9969V29.8292H92.9853V32.8319C92.9523 33.2609 93.1173 33.6568 93.3812 33.9538C93.6782 34.2508 94.0742 34.3828 94.4701 34.3498C94.9651 34.3498 95.4271 34.1518 95.757 33.7888C96.087 33.3929 96.252 32.8649 96.219 32.337V29.8292H96.9119V29.7962Z" fill="#4EA6DC"/>
<path d="M100.212 30.0932C100.542 29.8622 100.937 29.7632 101.366 29.7632V30.3901C100.872 30.3571 100.41 30.5221 100.047 30.8521C99.7166 31.215 99.4856 31.677 99.4856 32.172V34.9107H98.8257V29.7962H99.4856V30.9841C99.6176 30.6211 99.8816 30.3241 100.212 30.0932Z" fill="#4EA6DC"/>
<path d="M107.141 30.3571C106.778 30.3571 106.448 30.4561 106.151 30.6211C105.854 30.7861 105.623 31.0501 105.458 31.347C105.293 31.677 105.194 32.04 105.227 32.4029C105.227 32.7659 105.293 33.1289 105.458 33.4588C105.623 33.7558 105.854 34.0198 106.151 34.1848C106.448 34.3498 106.778 34.4487 107.141 34.4487C107.471 34.4487 107.768 34.3828 108.065 34.2838C108.329 34.1848 108.56 33.9868 108.758 33.7888L109.121 34.1848C108.89 34.4487 108.593 34.6797 108.263 34.8117C107.9 34.9767 107.504 35.0427 107.108 35.0427C106.646 35.0427 106.184 34.9437 105.788 34.7127C105.392 34.4817 105.095 34.1848 104.864 33.7888C104.435 32.9639 104.435 31.941 104.864 31.1161C105.062 30.7201 105.392 30.4231 105.788 30.1922C106.184 29.9612 106.646 29.8622 107.108 29.8622C107.471 29.8622 107.867 29.9282 108.197 30.0602C108.527 30.1922 108.791 30.3571 109.055 30.6211L108.692 31.0501C108.263 30.5551 107.702 30.3571 107.141 30.3571Z" fill="#4EA6DC"/>
<path d="M111.991 30.0932C112.321 29.8622 112.717 29.7632 113.146 29.7632V30.3901C112.651 30.3571 112.189 30.5221 111.826 30.8521C111.496 31.215 111.265 31.677 111.265 32.172V34.9107H110.605V29.7962H111.265V30.9841C111.397 30.6211 111.661 30.3241 111.991 30.0932Z" fill="#4EA6DC"/>
<path d="M117.997 30.5551C118.426 31.1491 118.657 31.875 118.591 32.6009H114.301C114.334 33.0959 114.532 33.5578 114.895 33.9208C115.258 34.2508 115.72 34.4487 116.215 34.4157C116.512 34.4157 116.842 34.3498 117.139 34.2508C117.403 34.1518 117.667 33.9538 117.865 33.7558L118.228 34.1188C117.964 34.3827 117.667 34.6137 117.337 34.7457C116.974 34.9107 116.578 34.9767 116.182 34.9767C115.72 34.9767 115.258 34.8777 114.862 34.6467C114.466 34.4157 114.169 34.1188 113.938 33.7228C113.509 32.8979 113.509 31.875 113.938 31.0501C114.136 30.6541 114.466 30.3571 114.862 30.1261C115.258 29.8952 115.72 29.7962 116.182 29.7962C116.875 29.7302 117.535 30.0272 117.997 30.5551ZM117.997 32.073C117.997 31.611 117.799 31.1491 117.469 30.7861C117.139 30.4561 116.677 30.2911 116.182 30.3241C115.72 30.3241 115.225 30.4891 114.895 30.8191C114.532 31.1491 114.334 31.611 114.301 32.106L117.997 32.073Z" fill="#4EA6DC"/>
<path d="M123.177 34.9437V34.0858C122.979 34.3828 122.715 34.6137 122.385 34.7457C122.022 34.9107 121.659 34.9767 121.263 34.9767C120.934 34.9767 120.637 34.9107 120.34 34.7787C119.812 34.5147 119.515 34.0198 119.515 33.4258C119.515 32.9969 119.68 32.6339 120.043 32.3699C120.472 32.106 120.967 31.974 121.461 32.007H123.177V31.611C123.21 31.2481 123.078 30.9181 122.814 30.6871C122.517 30.4561 122.121 30.3241 121.758 30.3571C121.164 30.3901 120.571 30.5881 120.109 30.9841L119.812 30.5221C120.109 30.2911 120.439 30.1262 120.802 29.9942C121.164 29.8622 121.527 29.8292 121.89 29.8292C122.418 29.7962 122.913 29.9612 123.342 30.2911C123.705 30.6211 123.87 31.0831 123.87 31.578V34.9767L123.177 34.9437ZM122.517 34.0858C122.847 33.8878 123.078 33.5578 123.177 33.1949V32.5019H121.527C121.164 32.4689 120.802 32.5679 120.505 32.7329C120.274 32.8649 120.142 33.1289 120.142 33.3929C120.142 33.6898 120.241 33.9538 120.472 34.1188C120.736 34.3168 121.032 34.4158 121.362 34.3828C121.758 34.4158 122.187 34.3168 122.517 34.0858Z" fill="#4EA6DC"/>
<path d="M128.16 34.5808C127.83 34.8117 127.434 34.9437 127.038 34.9767C126.675 35.0097 126.345 34.8777 126.114 34.6138C125.883 34.3168 125.751 33.9208 125.784 33.5249V30.4562H125.058V29.9612H125.817V28.6413H126.477V29.9612H128.127V30.4562H126.477V33.3929C126.477 34.0198 126.708 34.3498 127.17 34.3498C127.467 34.3498 127.764 34.2508 128.028 34.0858L128.16 34.5808Z" fill="#4EA6DC"/>
<path d="M130.008 27.9814C130.107 28.0804 130.14 28.1794 130.14 28.3114C130.14 28.4433 130.107 28.5423 130.008 28.6413C129.909 28.7403 129.81 28.7733 129.678 28.7733C129.546 28.7733 129.447 28.7403 129.348 28.6413C129.249 28.5423 129.216 28.4433 129.216 28.3114C129.216 28.0474 129.414 27.8494 129.645 27.8494C129.645 27.8494 129.645 27.8494 129.678 27.8494C129.81 27.8494 129.909 27.9154 130.008 27.9814ZM129.348 29.7962H130.008V34.9437H129.348V29.7962Z" fill="#4EA6DC"/>
<path d="M130.998 29.7962H131.69L133.406 34.2838L135.089 29.7962H135.782L133.736 34.9437H133.043L130.998 29.7962Z" fill="#4EA6DC"/>
<path d="M140.402 30.5551C140.831 31.1491 141.062 31.875 140.996 32.6009H136.706C136.739 33.0959 136.937 33.5578 137.3 33.9208C137.663 34.2508 138.125 34.4487 138.62 34.4157C138.917 34.4157 139.247 34.3498 139.544 34.2508C139.808 34.1518 140.072 33.9538 140.27 33.7558L140.633 34.1188C140.369 34.3827 140.072 34.6137 139.742 34.7457C139.379 34.9107 138.983 34.9767 138.587 34.9767C138.125 34.9767 137.663 34.8777 137.267 34.6467C136.871 34.4157 136.574 34.1188 136.343 33.7228C135.914 32.8979 135.914 31.875 136.343 31.0501C136.574 30.6541 136.871 30.3571 137.267 30.1261C137.663 29.8952 138.125 29.7962 138.587 29.7962C139.28 29.7302 139.94 30.0272 140.402 30.5551ZM140.402 32.073C140.402 31.611 140.204 31.1491 139.874 30.7861C139.544 30.4561 139.082 30.2911 138.62 30.3241C138.125 30.2911 137.663 30.4891 137.3 30.7861C136.937 31.1161 136.739 31.578 136.706 32.073H140.402Z" fill="#4EA6DC"/>
<path d="M149.08 30.1262C149.443 30.3241 149.773 30.6541 149.971 31.0501C150.202 31.479 150.301 31.941 150.301 32.4029C150.301 32.8649 150.202 33.3268 149.971 33.7228C149.773 34.1188 149.476 34.4157 149.113 34.6467C148.717 34.8777 148.288 34.9767 147.826 34.9767C147.397 34.9767 146.968 34.8777 146.605 34.6467C146.242 34.4487 145.978 34.1188 145.78 33.7558V36.8575H145.12V29.7962H145.78V30.9841C145.945 30.6211 146.242 30.2911 146.605 30.0932C146.968 29.8622 147.397 29.7632 147.826 29.7632C148.222 29.7632 148.684 29.8952 149.08 30.1262ZM148.651 34.1188C148.948 33.9538 149.179 33.6898 149.344 33.3928C149.509 33.0629 149.608 32.6999 149.575 32.3369C149.575 31.974 149.509 31.611 149.344 31.281C149.179 30.9841 148.948 30.7201 148.651 30.5551C148.024 30.2251 147.298 30.2251 146.671 30.5551C146.374 30.7201 146.143 30.9841 145.978 31.281C145.813 31.611 145.714 31.974 145.714 32.3369C145.714 32.6999 145.78 33.0629 145.945 33.3928C146.11 33.6898 146.341 33.9538 146.638 34.1188C147.298 34.4817 148.024 34.4817 148.651 34.1188Z" fill="#4EA6DC"/>
<path d="M151.687 27.6514H152.347V34.9107H151.687V27.6514Z" fill="#4EA6DC"/>
<path d="M157.56 34.9437V34.0858C157.362 34.3828 157.098 34.6137 156.768 34.7457C156.405 34.9107 156.042 34.9767 155.646 34.9767C155.316 34.9767 155.019 34.9107 154.722 34.7787C154.194 34.5147 153.897 34.0198 153.897 33.4258C153.897 32.9969 154.062 32.6339 154.425 32.3699C154.854 32.106 155.349 31.974 155.844 31.974H157.56V31.611C157.593 31.2481 157.461 30.9181 157.197 30.6871C156.9 30.4561 156.504 30.3241 156.141 30.3571C155.547 30.3901 154.953 30.5881 154.491 30.9841L154.194 30.5221C154.491 30.2911 154.821 30.1262 155.184 29.9942C155.547 29.8622 155.91 29.8292 156.273 29.8292C156.801 29.7962 157.296 29.9612 157.725 30.2911C158.088 30.6211 158.253 31.0831 158.253 31.578V34.9767L157.56 34.9437ZM156.9 34.0858C157.23 33.8878 157.461 33.5578 157.56 33.1949V32.5019H155.91C155.547 32.4689 155.184 32.5679 154.887 32.7329C154.656 32.8649 154.524 33.1289 154.524 33.3929C154.524 33.6898 154.623 33.9538 154.854 34.1188C155.118 34.3168 155.415 34.4158 155.745 34.3828C156.141 34.4158 156.537 34.3168 156.9 34.0858Z" fill="#4EA6DC"/>
<path d="M161.982 30.3571C161.619 30.3571 161.289 30.4561 160.992 30.6211C160.695 30.7861 160.464 31.0501 160.299 31.347C160.134 31.677 160.035 32.04 160.068 32.4029C160.068 32.7659 160.134 33.1289 160.299 33.4588C160.464 33.7558 160.695 34.0198 160.992 34.1848C161.289 34.3498 161.619 34.4487 161.982 34.4487C162.312 34.4487 162.609 34.3828 162.906 34.2838C163.17 34.1848 163.401 33.9868 163.599 33.7888L163.962 34.1848C163.731 34.4487 163.434 34.6797 163.104 34.8117C162.741 34.9767 162.345 35.0427 161.949 35.0427C161.487 35.0427 161.025 34.9437 160.629 34.7127C160.233 34.4817 159.936 34.1848 159.705 33.7888C159.276 32.9639 159.276 31.941 159.705 31.1161C159.903 30.7201 160.233 30.4231 160.629 30.1922C161.025 29.9612 161.487 29.8622 161.949 29.8622C162.312 29.8622 162.708 29.9282 163.038 30.0602C163.368 30.1922 163.632 30.3571 163.896 30.6211L163.533 31.0501C163.104 30.5551 162.543 30.3571 161.982 30.3571Z" fill="#4EA6DC"/>
<path d="M169.01 30.5551C169.472 31.1491 169.67 31.875 169.604 32.6009H165.314C165.347 33.0959 165.545 33.5578 165.908 33.9208C166.271 34.2508 166.733 34.4487 167.228 34.4157C167.525 34.4157 167.855 34.3498 168.152 34.2508C168.416 34.1518 168.68 33.9538 168.878 33.7558L169.241 34.1188C168.977 34.3827 168.68 34.6137 168.35 34.7457C167.987 34.9107 167.591 34.9767 167.195 34.9767C166.733 34.9767 166.271 34.8777 165.875 34.6467C165.479 34.4157 165.182 34.1188 164.951 33.7228C164.522 32.8649 164.522 31.875 164.951 31.0501C165.149 30.6541 165.479 30.3571 165.875 30.1261C166.271 29.8952 166.733 29.7962 167.195 29.7962C167.888 29.7302 168.548 30.0272 169.01 30.5551ZM169.01 32.073C169.01 31.611 168.812 31.1491 168.482 30.7861C168.152 30.4561 167.69 30.2911 167.195 30.3241C166.733 30.3241 166.238 30.4891 165.908 30.8191C165.545 31.1491 165.347 31.611 165.314 32.073H169.01Z" fill="#4EA6DC"/>
<path d="M51.7722 23.8567L50.7493 21.382C50.6833 21.25 50.5843 21.184 50.4523 21.184H44.2159C44.084 21.184 43.952 21.25 43.919 21.382L42.8961 23.8567C42.8301 23.9887 42.7311 24.0547 42.5991 24.0547H40.6193C40.4213 24.0547 40.2893 23.9227 40.2893 23.7248C40.2893 23.6918 40.2893 23.6258 40.3223 23.5928L45.9978 10.625C46.0638 10.493 46.1628 10.427 46.2947 10.427H48.5715C48.7035 10.427 48.8355 10.493 48.8685 10.625L54.478 23.5928C54.544 23.7577 54.478 23.9557 54.313 24.0217C54.28 24.0547 54.214 24.0547 54.181 24.0547H52.1022C51.9372 24.0547 51.8052 23.9557 51.7722 23.8567ZM45.4038 18.9402H49.1985C49.3965 18.9402 49.5284 18.7752 49.4954 18.5772C49.4954 18.5442 49.4954 18.5112 49.4624 18.4782L47.5816 13.9247C47.5156 13.7597 47.3176 13.6607 47.1527 13.7597C47.0867 13.7927 47.0207 13.8587 46.9877 13.9247L45.1069 18.4782C45.0409 18.6432 45.1399 18.8412 45.3048 18.9072C45.3378 18.9072 45.3708 18.9402 45.4038 18.9402Z" fill="#120F34"/>
<path d="M55.3688 10.427H65.8288C66.0268 10.427 66.1588 10.559 66.1588 10.757V12.4068C66.1588 12.6048 66.0268 12.7368 65.8288 12.7368H62.2322C62.0342 12.7368 61.9022 12.8688 61.9022 13.0668V23.7248C61.9022 23.9227 61.7702 24.0547 61.5722 24.0547H59.5924C59.3944 24.0547 59.2625 23.9227 59.2625 23.7248V13.0668C59.2625 12.9018 58.4705 12.7368 58.2726 12.7368H55.3358C55.1378 12.7368 55.0059 12.6048 55.0059 12.4068V10.757C55.0389 10.559 55.1708 10.427 55.3688 10.427Z" fill="#120F34"/>
<path d="M86.6167 10.427H89.0585C89.1905 10.427 89.2895 10.493 89.3555 10.592L93.4801 18.6102C93.5791 18.7752 93.777 18.8412 93.909 18.7422C93.975 18.7092 94.008 18.6762 94.041 18.6102L98.1326 10.592C98.1986 10.493 98.2976 10.427 98.4296 10.427H100.871C101.069 10.427 101.201 10.559 101.201 10.757V23.7248C101.201 23.9227 101.069 24.0547 100.871 24.0547H99.1225C98.9246 24.0547 98.7926 23.9227 98.7926 23.7248V15.6405C98.7926 15.4425 98.6276 15.3105 98.4626 15.3105C98.3306 15.3105 98.2316 15.3765 98.1656 15.4755L94.701 22.4709C94.635 22.5699 94.536 22.6359 94.404 22.6688H93.1171C92.9851 22.6688 92.8861 22.6029 92.8201 22.4709L89.2895 15.5085C89.1905 15.3435 88.9925 15.2775 88.8605 15.3765C88.7615 15.4425 88.6955 15.5415 88.6955 15.6735V23.7248C88.6955 23.9227 88.5635 24.0547 88.3656 24.0547H86.6497C86.4517 24.0547 86.3198 23.9227 86.3198 23.7248V10.757C86.2868 10.559 86.4187 10.427 86.6167 10.427Z" fill="#120F34"/>
<path d="M114.631 12.3408C114.037 12.1428 113.377 12.0438 112.75 12.0438C112.09 12.0109 111.43 12.1758 110.836 12.5058C110.374 12.7698 110.111 13.2317 110.143 13.7597C110.111 14.1886 110.275 14.6176 110.572 14.9476C110.869 15.2445 111.232 15.5085 111.628 15.6735C112.057 15.8385 112.618 16.0695 113.377 16.3004C114.136 16.5314 114.895 16.7954 115.621 17.1254C116.182 17.3893 116.71 17.7853 117.073 18.2803C117.502 18.8742 117.7 19.6001 117.667 20.3261C117.667 21.052 117.469 21.7779 117.04 22.3719C116.578 22.9658 115.984 23.4608 115.258 23.7248C114.433 24.0547 113.542 24.2197 112.651 24.1867C111.661 24.1867 110.671 23.9887 109.715 23.5928C108.89 23.2628 108.131 22.8008 107.438 22.2069C107.306 22.1079 107.273 21.9429 107.372 21.7779L107.9 20.788C107.999 20.623 108.197 20.557 108.362 20.656C108.395 20.656 108.395 20.689 108.428 20.689C108.989 21.184 109.616 21.58 110.308 21.8769C111.067 22.2069 111.859 22.3719 112.684 22.4049C113.443 22.4379 114.202 22.2729 114.829 21.8769C115.324 21.58 115.621 21.019 115.621 20.4251C115.621 19.9961 115.489 19.5671 115.192 19.2372C114.895 18.9072 114.532 18.6762 114.103 18.5112C113.542 18.2803 112.948 18.0823 112.354 17.9173C111.595 17.6863 110.869 17.4223 110.143 17.1254C109.583 16.8614 109.088 16.4654 108.692 15.9705C108.263 15.3765 108.065 14.6836 108.098 13.9577C108.098 13.2647 108.296 12.6048 108.692 12.0438C109.121 11.4499 109.715 11.0209 110.374 10.757C111.166 10.46 112.024 10.295 112.915 10.295C114.4 10.295 115.885 10.691 117.172 11.4499C117.304 11.5489 117.37 11.7139 117.304 11.8789L116.809 12.9678C116.743 13.1327 116.545 13.1987 116.38 13.1327H116.347C115.753 12.7698 115.192 12.5388 114.631 12.3408Z" fill="#120F34"/>
<path d="M129.843 11.6149C130.767 12.4068 131.229 13.5617 131.229 15.0136C131.229 16.5314 130.767 17.7193 129.81 18.5442C128.886 19.3692 127.566 19.7981 125.883 19.7981H122.815C122.617 19.7981 122.485 19.9301 122.485 20.1281V23.7248C122.485 23.9227 122.353 24.0547 122.155 24.0547H120.934C120.736 24.0547 120.604 23.9227 120.604 23.7248V10.757C120.604 10.559 120.736 10.427 120.934 10.427H125.85C127.599 10.427 128.886 10.823 129.843 11.6149ZM128.523 17.3234C129.15 16.7954 129.447 16.0695 129.447 15.0466C129.513 14.1886 129.15 13.3967 128.523 12.8358C127.896 12.3408 127.005 12.0768 125.85 12.0768H122.881C122.683 12.0768 122.551 12.2088 122.551 12.4068V17.7193C122.551 17.9173 122.683 18.0493 122.881 18.0493H125.85C126.972 18.1153 127.863 17.8513 128.523 17.3234Z" fill="#120F34"/>
<path d="M142.943 23.8567L141.689 20.953C141.623 20.821 141.524 20.755 141.392 20.755H134.627C134.495 20.755 134.363 20.821 134.331 20.953L133.077 23.8567C133.011 23.9887 132.912 24.0547 132.78 24.0547H131.526C131.328 24.0547 131.196 23.9227 131.196 23.7248C131.196 23.6918 131.196 23.6258 131.229 23.5928L137.003 10.625C137.069 10.493 137.168 10.427 137.3 10.427H138.818C138.95 10.427 139.082 10.493 139.115 10.625L144.857 23.5928C144.922 23.7577 144.857 23.9557 144.692 24.0217C144.659 24.0547 144.593 24.0547 144.56 24.0547H143.273C143.108 24.0547 142.976 23.9557 142.943 23.8567ZM135.617 19.0392H140.336C140.534 19.0392 140.666 18.9072 140.666 18.7092C140.666 18.6762 140.666 18.6102 140.633 18.5772L138.257 13.1327C138.191 12.9678 137.993 12.9018 137.828 12.9678C137.762 13.0008 137.696 13.0668 137.663 13.1327L135.32 18.5772C135.254 18.7422 135.32 18.9402 135.485 19.0062C135.518 19.0392 135.584 19.0392 135.617 19.0392Z" fill="#120F34"/>
<path d="M154.755 12.4068C152.314 11.3179 149.443 12.2418 148.09 14.5516C147.628 15.3435 147.397 16.2675 147.397 17.1914C147.397 18.5442 147.925 19.8641 148.882 20.854L148.915 20.887C150.466 22.4049 152.776 22.8338 154.788 21.9759C155.349 21.7449 155.91 21.382 156.372 20.986C156.504 20.854 156.702 20.887 156.834 21.019L157.527 21.7779C157.659 21.9099 157.659 22.1079 157.527 22.2399C156.9 22.8008 156.174 23.2628 155.382 23.5928C153.337 24.4507 150.994 24.3517 149.047 23.2298C146.869 22.0089 145.549 19.6991 145.549 17.1914C145.549 15.9705 145.879 14.7496 146.506 13.6937C147.133 12.6378 148.024 11.7799 149.08 11.1859C150.169 10.559 151.423 10.262 152.677 10.262C153.634 10.262 154.557 10.427 155.448 10.79C156.207 11.0869 156.933 11.5489 157.527 12.0769C157.659 12.2088 157.659 12.4068 157.56 12.5388L156.867 13.3637C156.735 13.4957 156.537 13.5287 156.405 13.3967C156.405 13.3967 156.405 13.3967 156.372 13.3637C155.844 13.0008 155.316 12.6708 154.755 12.4068Z" fill="#120F34"/>
<path d="M160.629 10.427H169.439C169.637 10.427 169.769 10.559 169.769 10.757V11.7799C169.769 11.9779 169.637 12.1098 169.439 12.1098H162.51C162.312 12.1098 162.18 12.2418 162.18 12.4398V16.0035C162.18 16.2015 162.312 16.3334 162.51 16.3334H168.647C168.845 16.3334 168.977 16.4654 168.977 16.6634V17.6863C168.977 17.8843 168.845 18.0163 168.647 18.0163H162.51C162.312 18.0163 162.18 18.1483 162.18 18.3463V22.0419C162.18 22.2399 162.312 22.3719 162.51 22.3719H169.67C169.868 22.3719 170 22.5039 170 22.7018V23.7248C170 23.9227 169.868 24.0547 169.67 24.0547H160.629C160.431 24.0547 160.299 23.9227 160.299 23.7248V10.757C160.299 10.559 160.464 10.427 160.629 10.427Z" fill="#120F34"/>
<path d="M76.0578 10.0641C71.9662 10.0641 68.6335 13.3967 68.6335 17.4884C68.6335 21.58 71.9662 24.9127 76.0578 24.9127C80.1495 24.9127 83.4821 21.613 83.4821 17.5214C83.4821 13.3967 80.1825 10.0641 76.0578 10.0641ZM76.0578 22.6689C73.1871 22.6689 70.8773 20.3591 70.8773 17.4884C70.8773 14.6176 73.1871 12.3078 76.0578 12.3078C78.9286 12.3078 81.2384 14.6176 81.2384 17.4884C81.2384 20.3261 78.9286 22.6689 76.0578 22.6689Z" fill="#120F34"/>
<path d="M10.8891 15.4755L12.0769 17.6533C12.1099 17.6863 12.1429 17.7193 12.1759 17.7523L14.3537 18.9402C14.4527 19.0062 14.5187 19.1382 14.4527 19.2702C14.4197 19.3032 14.3867 19.3362 14.3537 19.3692L12.1759 20.5571C12.1429 20.59 12.1099 20.623 12.0769 20.656L10.8891 22.8338C10.8231 22.9328 10.6911 22.9988 10.5591 22.9328C10.5261 22.8998 10.4931 22.8668 10.4601 22.8338L9.27221 20.656C9.23922 20.623 9.20622 20.59 9.17322 20.5571L6.99543 19.3692C6.89644 19.3032 6.83044 19.1712 6.89644 19.0392C6.92943 19.0062 6.96243 18.9732 6.99543 18.9402L9.17322 17.7523C9.20622 17.7193 9.23922 17.6863 9.27221 17.6533L10.4601 15.4755C10.5261 15.3765 10.6581 15.3105 10.7901 15.3765C10.8231 15.4095 10.8561 15.4425 10.8891 15.4755Z" fill="url(#paint0_linear)"/>
<path d="M27.7504 30.8521L28.4103 32.073C28.4103 32.106 28.4433 32.106 28.4763 32.139L29.6972 32.7989C29.7632 32.8319 29.7962 32.8979 29.7632 32.9639C29.7632 32.9969 29.7302 32.9969 29.6972 33.0299L28.4763 33.6898C28.4433 33.6898 28.4433 33.7228 28.4103 33.7558L27.7504 34.9767C27.7174 35.0427 27.6514 35.0757 27.5854 35.0427C27.5524 35.0427 27.5524 35.0097 27.5194 34.9767L26.8595 33.7558C26.8595 33.7228 26.8265 33.7228 26.7935 33.6898L25.5726 33.0299C25.5066 32.9969 25.4736 32.9309 25.5066 32.8649C25.5066 32.8319 25.5396 32.8319 25.5726 32.7989L26.7935 32.139C26.8265 32.139 26.8265 32.106 26.8595 32.073L27.5194 30.8521C27.5524 30.7861 27.6184 30.7531 27.6844 30.7861C27.7174 30.8191 27.7174 30.8521 27.7504 30.8521Z" fill="#120F34"/>
<path d="M26.1005 17.3564C25.9356 17.6203 25.7376 17.8843 25.5396 18.1483C25.2756 18.5113 25.0116 18.8742 24.6817 19.3362L24.6157 19.4682L24.3847 19.7981L24.3187 19.8641C23.6588 23.1638 21.349 25.9356 18.2143 27.1564C17.8183 27.3214 17.4224 27.4534 16.9934 27.5524C16.2345 27.7504 15.4425 27.8494 14.6176 27.8494H14.5516C14.8816 27.5524 15.1786 27.2224 15.5085 26.9255C15.7395 26.6945 15.9705 26.4305 16.2345 26.1995C16.6634 25.7706 17.0924 25.3086 17.5214 24.8137C18.4123 23.8238 19.3032 22.8009 20.1611 21.745C21.019 20.6891 21.8769 19.6002 22.6689 18.5443L22.9988 18.1153C23.2628 17.7193 23.5598 17.3564 23.8238 16.9604C23.9887 16.6964 24.1867 16.4325 24.3517 16.2015C25.3746 14.6836 26.3315 13.1328 27.2224 11.5159C27.5194 10.955 27.7834 10.427 28.0474 9.89907C28.1134 9.76708 28.1793 9.63509 28.2453 9.47011L28.3443 9.23913C30.2912 4.98253 30.3901 2.1118 28.7073 0.692935C28.6083 0.626941 28.5423 0.560947 28.4433 0.494953L28.3773 0.461956C28.3113 0.42896 28.2453 0.395963 28.1793 0.362966L28.0804 0.329969L27.8824 0.230978L27.7834 0.197981C27.6844 0.164984 27.5854 0.131988 27.4864 0.0989907H27.4534C27.3544 0.0659938 27.2554 0.0659938 27.1564 0.0329969H27.0575L26.7935 0H26.4965H26.1995H26.0346C25.9356 0 25.8366 0.0329969 25.7046 0.0659938L25.5726 0.131988C25.4076 0.164984 25.2756 0.197981 25.1106 0.230978H25.0776C24.9127 0.263975 24.7477 0.329969 24.5497 0.395963L24.3847 0.461956L24.0217 0.626941L23.8238 0.725932L23.4608 0.890916L23.2628 0.989907L22.8668 1.18789L22.6689 1.28688C22.4709 1.38587 22.2729 1.51786 22.0749 1.64984C21.316 2.1118 21.085 3.06871 21.547 3.79464C21.58 3.86064 21.646 3.92663 21.712 3.99262L21.745 4.02562C21.8109 4.09161 21.8769 4.15761 21.9429 4.2236C22.0089 4.2896 22.0749 4.32259 22.1739 4.35559L22.2399 4.38859C22.3059 4.42158 22.4049 4.45458 22.5039 4.48758H22.5369C22.5699 4.48758 22.6359 4.48758 22.6689 4.52057L22.7679 4.55357V4.55357C22.8668 4.55357 22.9328 4.55357 23.0318 4.55357H23.0978C23.1638 4.55357 23.2628 4.52057 23.3288 4.48758L23.3948 4.45458C23.4938 4.42158 23.5598 4.38859 23.6588 4.32259L23.9887 4.12461L24.0877 4.05862L24.3187 3.92663L24.4177 3.86064L24.6157 3.76165L24.7147 3.69565L24.8797 3.59666L24.9786 3.56366L25.1436 3.49767L25.2096 3.46467L25.4406 3.36568H25.4736L25.6716 3.29969H25.7376L25.8696 3.26669L25.9356 3.2337L26.0346 3.2007H26.0675L26.1665 3.1677H26.2325H26.3315H26.3645H26.4635H26.7275C26.9585 3.62966 26.7935 4.75155 26.1335 6.43439C26.0675 6.63238 25.9686 6.86335 25.8696 7.09433C25.6716 7.55629 25.4736 8.05124 25.2096 8.57919C24.8467 8.18323 24.4837 7.78727 24.0877 7.4573C23.9227 7.32531 23.7908 7.19332 23.6258 7.06133C17.5543 2.1118 8.64519 2.96972 3.69565 9.00815C3.43168 9.33812 3.1677 9.70109 2.93672 10.0311C2.80474 10.229 2.67275 10.427 2.57376 10.592C-0.164984 15.1126 -0.164984 20.755 2.57376 25.2756C2.70575 25.4736 2.80474 25.6716 2.93672 25.8366C2.96972 25.9686 3.03571 26.0675 3.10171 26.1665C3.43168 26.6285 3.79464 27.0575 4.15761 27.4864C4.38859 27.7504 4.65256 28.0144 4.91654 28.2453C5.04852 28.3773 5.21351 28.5093 5.3455 28.6413C5.47748 28.7733 5.54348 28.8063 5.64247 28.9053L5.84045 29.0373C6.26941 29.3672 6.69837 29.6642 7.16033 29.9612L7.12733 29.9942L6.96235 30.0932L6.63238 30.2911L6.53339 30.3571L6.13742 30.5881L6.00544 30.6871L5.74146 30.8191H5.70846L5.60947 30.9181L5.41149 31.0171L5.2795 31.0831L5.11452 31.1821H5.08152L4.94953 31.2481L4.78455 31.3141L4.61957 31.38L4.45458 31.446L4.32259 31.479L4.19061 31.545L4.09161 31.578L3.95963 31.611L3.86064 31.644L3.76165 31.677H3.66266H3.56366H3.46467H3.39868C3.33269 31.677 3.26669 31.677 3.2007 31.644V31.611C3.2007 31.578 3.2007 31.545 3.1677 31.512V31.479C3.1677 31.446 3.1677 31.38 3.13471 31.347C3.10171 31.3141 3.13471 31.2151 3.13471 31.1491C3.13471 31.0831 3.13471 30.9841 3.13471 30.8851C3.13471 30.7861 3.1677 30.6871 3.1677 30.5551C3.1677 30.4231 3.2007 30.2911 3.2337 30.1592C3.2337 30.0932 3.26669 30.0602 3.26669 29.9942C3.29969 29.8292 3.36568 29.6312 3.39868 29.4002C3.43168 29.2352 3.46467 29.0703 3.46467 28.9053C3.46467 28.8723 3.46467 28.8063 3.46467 28.7733C3.39868 28.1463 2.93672 27.6184 2.34278 27.4534C2.27679 27.4534 2.24379 27.4204 2.1778 27.4204L2.0788 27.3874H2.01281C1.94682 27.3874 1.88082 27.3874 1.81483 27.3874H1.71584C1.64984 27.3874 1.55085 27.4204 1.48486 27.4534H1.45186C1.35287 27.4864 1.28688 27.5194 1.18789 27.5524L1.12189 27.5854C1.0559 27.6184 1.0229 27.6514 0.95691 27.6844L0.890916 27.7504C0.857919 27.7834 0.791925 27.8494 0.758929 27.8824L0.692935 28.0474C0.659938 28.1134 0.626941 28.1463 0.593944 28.2123C0.593944 28.2453 0.560947 28.2783 0.560947 28.2783C0.52795 28.3773 0.494953 28.4433 0.461957 28.5423C0.296972 29.1363 0.164984 29.7632 0.0659938 30.3901C0 30.6871 0 30.9511 0 31.2151C0 31.347 0 31.479 0 31.578C0.0329969 32.04 0.131988 32.4689 0.296972 32.8979C0.329969 32.9969 0.395963 33.0959 0.42896 33.1949C0.52795 33.3599 0.626941 33.5578 0.758929 33.6898C0.824922 33.7558 0.890916 33.8548 0.95691 33.9208L0.989907 33.9538C1.0559 34.0198 1.12189 34.0858 1.18789 34.1518C1.31988 34.2838 1.48486 34.3828 1.64984 34.4488C2.1448 34.7127 2.73874 34.8447 3.29969 34.8447C3.76165 34.8447 4.19061 34.7787 4.61957 34.6797C5.93944 34.2838 7.19332 33.7228 8.31522 32.9309C8.5132 32.7989 8.71118 32.6669 8.94216 32.5349C9.20613 32.37 9.43711 32.172 9.70109 32.007C9.96506 31.842 10.163 31.677 10.394 31.479C11.021 31.677 11.6149 31.809 12.2748 31.908C12.5388 31.941 12.8028 31.974 13.0998 32.007C13.6277 32.073 14.1227 32.106 14.6506 32.106C22.4709 32.106 28.8063 25.7706 28.8063 17.9833C28.8063 16.6304 28.6083 15.3106 28.2453 13.9907C27.5854 15.1126 26.8595 16.2345 26.1005 17.3564ZM8.84317 25.9356C4.38859 22.7679 3.36568 16.6304 6.50039 12.1759C9.63509 7.72127 15.8385 6.69837 20.2601 9.86607C20.6891 10.163 21.118 10.526 21.481 10.889C21.613 11.021 21.778 11.1859 21.9099 11.3179C22.2729 11.7139 22.6029 12.1429 22.8998 12.6048C22.6029 13.0668 22.3059 13.5287 21.9759 14.0237C20.6561 16.0035 19.2372 17.9173 17.7193 19.7321C17.4884 19.9961 17.2904 20.2601 17.0594 20.5241L16.8944 20.788L16.4655 21.283L16.2015 21.58L15.8385 21.9759L15.5745 22.2729L15.2116 22.6689L14.9476 22.9658L14.6176 23.3288L14.3536 23.6258L14.0237 23.9887L13.7597 24.2857L13.4297 24.6157L13.1658 24.8797L12.8358 25.2096L12.5718 25.4736L12.2089 25.7706L12.0439 25.9356L11.9449 26.0345L11.6479 26.3315L11.3839 26.5625L11.087 26.8265L10.823 27.0575L10.79 27.0904C10.295 26.8925 9.83307 26.6285 9.37112 26.3315C9.20613 26.1995 9.00815 26.0675 8.84317 25.9356Z" fill="#0B0632"/>
</g>
<defs>
<linearGradient id="paint0_linear" x1="12.9951" y1="21.4636" x2="8.91667" y2="17.3852" gradientUnits="userSpaceOnUse">
<stop stop-color="#604099"/>
<stop offset="1" stop-color="#00B9F1"/>
</linearGradient>
<clipPath id="clip0">
<rect width="170" height="36.8575" fill="white"/>
</clipPath>
</defs>
</svg>
