<svg width="267" height="32" viewBox="0 0 267 32" fill="none" xmlns="http://www.w3.org/2000/svg">
<path d="M23.5721 29.7244L21.4723 24.3911C21.3368 24.1066 21.1336 23.9644 20.8627 23.9644H8.06058C7.78963 23.9644 7.51869 24.1066 7.45096 24.3911L5.35114 29.7244C5.21567 30.0088 5.01246 30.1511 4.74152 30.1511H0.677359C0.270944 30.1511 0 29.8666 0 29.44C0 29.3688 -1.03458e-06 29.2266 0.0677349 29.1555L11.7183 1.20883C11.8538 0.924388 12.057 0.782166 12.3279 0.782166H17.0017C17.2727 0.782166 17.5436 0.924388 17.6113 1.20883L29.1265 29.1555C29.2619 29.5111 29.1265 29.9377 28.7878 30.08C28.72 30.1511 28.5846 30.1511 28.5168 30.1511H24.2495C23.9108 30.1511 23.6398 29.9377 23.5721 29.7244ZM10.4991 19.1288H18.2887C18.6951 19.1288 18.9661 18.7733 18.8983 18.3466C18.8983 18.2755 18.8983 18.2044 18.8306 18.1333L14.9696 8.31995C14.8342 7.96439 14.4278 7.75106 14.0891 7.96439C13.9536 8.0355 13.8181 8.17772 13.7504 8.31995L9.88945 18.1333C9.75397 18.4888 9.95719 18.9155 10.2959 19.0577C10.3636 19.0577 10.4313 19.1288 10.4991 19.1288Z" fill="#1E1341"/>
<path d="M30.9553 0.782166H52.4276C52.834 0.782166 53.1049 1.06661 53.1049 1.49328V5.04883C53.1049 5.4755 52.834 5.75994 52.4276 5.75994H45.0444C44.6379 5.75994 44.367 6.04439 44.367 6.47105V29.44C44.367 29.8666 44.0961 30.1511 43.6896 30.1511H39.6255C39.2191 30.1511 38.9481 29.8666 38.9481 29.44V6.47105C38.9481 6.1155 37.3225 5.75994 36.916 5.75994H30.8875C30.4811 5.75994 30.2102 5.4755 30.2102 5.04883V1.49328C30.2779 1.06661 30.5489 0.782166 30.9553 0.782166Z" fill="#1E1341"/>
<path d="M95.1012 0.782166H100.114C100.385 0.782166 100.588 0.924386 100.723 1.13772L109.19 18.4177C109.393 18.7733 109.8 18.9155 110.071 18.7022C110.206 18.6311 110.274 18.5599 110.342 18.4177L118.741 1.13772C118.876 0.924386 119.08 0.782166 119.351 0.782166H124.363C124.77 0.782166 125.04 1.06661 125.04 1.49328V29.44C125.04 29.8666 124.77 30.1511 124.363 30.1511H120.773C120.367 30.1511 120.096 29.8666 120.096 29.44V12.0177C120.096 11.5911 119.757 11.3066 119.418 11.3066C119.147 11.3066 118.944 11.4488 118.809 11.6622L111.696 26.7377C111.561 26.9511 111.358 27.0933 111.087 27.1644H108.445C108.174 27.1644 107.971 27.0222 107.836 26.7377L100.588 11.7333C100.385 11.3777 99.9781 11.2355 99.7072 11.4488C99.504 11.5911 99.3685 11.8044 99.3685 12.0888V29.44C99.3685 29.8666 99.0976 30.1511 98.6912 30.1511H95.1689C94.7625 30.1511 94.4915 29.8666 94.4915 29.44V1.49328C94.4238 1.06661 94.6947 0.782166 95.1012 0.782166Z" fill="#1E1341"/>
<path d="M152.609 4.90663C151.39 4.47997 150.035 4.26663 148.748 4.26663C147.393 4.19552 146.039 4.55108 144.819 5.26219C143.871 5.83108 143.329 6.82663 143.397 7.96441C143.329 8.88886 143.668 9.8133 144.277 10.5244C144.887 11.1644 145.632 11.7333 146.445 12.0889C147.326 12.4444 148.477 12.9422 150.035 13.44C151.593 13.9377 153.151 14.5066 154.641 15.2177C155.793 15.7866 156.876 16.64 157.621 17.7066C158.502 18.9866 158.908 20.5511 158.841 22.1155C158.841 23.68 158.434 25.2444 157.554 26.5244C156.605 27.8044 155.386 28.8711 153.896 29.44C152.203 30.1511 150.374 30.5066 148.545 30.4355C146.513 30.4355 144.481 30.0089 142.516 29.1555C140.823 28.4444 139.265 27.4489 137.843 26.1689C137.572 25.9555 137.504 25.6 137.707 25.2444L138.791 23.1111C138.994 22.7555 139.4 22.6133 139.739 22.8266C139.807 22.8266 139.807 22.8977 139.875 22.8977C141.026 23.9644 142.313 24.8178 143.736 25.4578C145.294 26.1689 146.919 26.5244 148.613 26.5955C150.17 26.6666 151.728 26.3111 153.015 25.4578C154.031 24.8178 154.641 23.6089 154.641 22.3289C154.641 21.4044 154.37 20.48 153.761 19.7689C153.151 19.0577 152.406 18.56 151.525 18.2044C150.374 17.7066 149.154 17.28 147.935 16.9244C146.377 16.4266 144.887 15.8577 143.397 15.2177C142.245 14.6489 141.229 13.7955 140.417 12.7289C139.536 11.4489 139.13 9.95552 139.197 8.39108C139.197 6.89774 139.604 5.47552 140.417 4.26663C141.297 2.98663 142.516 2.06219 143.871 1.4933C145.497 0.853296 147.258 0.497742 149.087 0.497742C152.135 0.497742 155.183 1.35108 157.825 2.98663C158.096 3.19997 158.231 3.55552 158.096 3.91108L157.08 6.25774C156.944 6.6133 156.538 6.75552 156.199 6.6133H156.131C154.912 5.83108 153.76 5.3333 152.609 4.90663Z" fill="#1E1341"/>
<path d="M183.835 3.34217C185.732 5.04883 186.68 7.53772 186.68 10.6666C186.68 13.9377 185.732 16.4977 183.767 18.2755C181.871 20.0533 179.161 20.9777 175.707 20.9777H169.407C169.001 20.9777 168.73 21.2622 168.73 21.6888V29.44C168.73 29.8666 168.459 30.1511 168.053 30.1511H165.546C165.14 30.1511 164.869 29.8666 164.869 29.44V1.49328C164.869 1.06661 165.14 0.782166 165.546 0.782166H175.639C179.229 0.782166 181.871 1.6355 183.835 3.34217ZM181.126 15.6444C182.413 14.5066 183.022 12.9422 183.022 10.7377C183.158 8.88883 182.413 7.18217 181.126 5.97328C179.839 4.90661 178.01 4.33772 175.639 4.33772H169.543C169.136 4.33772 168.866 4.62217 168.866 5.04883V16.4977C168.866 16.9244 169.136 17.2088 169.543 17.2088H175.639C177.942 17.3511 179.771 16.7822 181.126 15.6444Z" fill="#1E1341"/>
<path d="M210.726 29.7244L208.153 23.4666C208.017 23.1822 207.814 23.0399 207.543 23.0399H193.657C193.386 23.0399 193.115 23.1822 193.047 23.4666L190.473 29.7244C190.338 30.0088 190.135 30.1511 189.864 30.1511H187.29C186.883 30.1511 186.613 29.8666 186.613 29.44C186.613 29.3688 186.613 29.2266 186.68 29.1555L198.534 1.20883C198.67 0.924388 198.873 0.782166 199.144 0.782166H202.26C202.53 0.782166 202.801 0.924388 202.869 1.20883L214.655 29.1555C214.791 29.5111 214.655 29.9377 214.316 30.08C214.249 30.1511 214.113 30.1511 214.046 30.1511H211.404C211.065 30.1511 210.794 29.9377 210.726 29.7244ZM195.689 19.3422H205.375C205.782 19.3422 206.053 19.0577 206.053 18.6311C206.053 18.5599 206.053 18.4177 205.985 18.3466L201.108 6.61328C200.973 6.25772 200.566 6.1155 200.227 6.25772C200.092 6.32883 199.956 6.47106 199.889 6.61328L195.079 18.3466C194.944 18.7022 195.079 19.1288 195.418 19.2711C195.486 19.3422 195.621 19.3422 195.689 19.3422Z" fill="#1E1341"/>
<path d="M234.976 5.04886C229.963 2.70219 224.07 4.6933 221.293 9.67108C220.345 11.3777 219.871 13.3689 219.871 15.36C219.871 18.2755 220.955 21.12 222.919 23.2533L222.987 23.3244C226.17 26.5955 230.912 27.52 235.044 25.6711C236.195 25.1733 237.347 24.3911 238.295 23.5377C238.566 23.2533 238.972 23.3244 239.243 23.6089L240.666 25.2444C240.937 25.5289 240.937 25.9555 240.666 26.24C239.379 27.4489 237.889 28.4444 236.263 29.1555C232.063 31.0044 227.254 30.7911 223.258 28.3733C218.787 25.7422 216.078 20.7644 216.078 15.36C216.078 12.7289 216.755 10.0977 218.042 7.82219C219.329 5.54663 221.158 3.69775 223.325 2.41775C225.561 1.06664 228.135 0.426636 230.709 0.426636C232.673 0.426636 234.57 0.782191 236.398 1.56441C237.956 2.20441 239.447 3.19997 240.666 4.33774C240.937 4.62219 240.937 5.04886 240.733 5.3333L239.311 7.11108C239.04 7.39552 238.634 7.46663 238.363 7.18219C238.363 7.18219 238.363 7.18219 238.295 7.11108C237.211 6.32886 236.127 5.61774 234.976 5.04886Z" fill="#1E1341"/>
<path d="M247.033 0.782166H265.118C265.525 0.782166 265.796 1.06661 265.796 1.49328V3.69772C265.796 4.12439 265.525 4.40883 265.118 4.40883H250.894C250.487 4.40883 250.216 4.69328 250.216 5.11994V12.7999C250.216 13.2266 250.487 13.5111 250.894 13.5111H263.493C263.899 13.5111 264.17 13.7955 264.17 14.2222V16.4266C264.17 16.8533 263.899 17.1377 263.493 17.1377H250.894C250.487 17.1377 250.216 17.4222 250.216 17.8488V25.8133C250.216 26.24 250.487 26.5244 250.894 26.5244H265.593C265.999 26.5244 266.27 26.8088 266.27 27.2355V29.44C266.27 29.8666 265.999 30.1511 265.593 30.1511H247.033C246.626 30.1511 246.356 29.8666 246.356 29.44V1.49328C246.356 1.06661 246.694 0.782166 247.033 0.782166Z" fill="#1E1341"/>
<path d="M73.4257 0C65.0265 0 58.1851 7.18222 58.1851 16C58.1851 24.8178 65.0265 32 73.4257 32C81.825 32 88.6663 24.8889 88.6663 16.0711C88.6663 7.18222 81.8927 0 73.4257 0ZM73.4257 27.1644C67.5327 27.1644 62.7912 22.1867 62.7912 16C62.7912 9.81333 67.5327 4.83556 73.4257 4.83556C79.3187 4.83556 84.0603 9.81333 84.0603 16C84.0603 22.1156 79.3187 27.1644 73.4257 27.1644Z" fill="#1E1341"/>
</svg>
