<svg width="495" height="103" viewBox="0 0 495 103" fill="none" xmlns="http://www.w3.org/2000/svg">
<path d="M161.81 101.829C160.803 102.586 159.669 102.965 158.41 102.965C156.899 102.965 155.514 102.46 154.381 101.576L155.514 99.683C156.395 100.314 157.277 100.567 158.284 100.567C159.04 100.567 159.795 100.314 160.425 99.8092C161.18 99.1781 161.684 98.4207 162.062 97.5371L162.817 95.5176L154.758 75.9528H157.403L164.203 92.8668L170.625 75.9528H173.143L164.077 98.4207C163.573 99.683 162.817 100.945 161.81 101.829Z" fill="#4EA6DC"/>
<path d="M189.135 77.2149C190.646 77.9723 191.779 79.2345 192.661 80.7492C193.542 82.2639 193.92 84.0311 193.92 85.7982C193.92 87.5653 193.542 89.3325 192.661 90.9734C191.905 92.4881 190.646 93.6241 189.135 94.5077C185.987 96.1486 182.209 96.1486 178.935 94.5077C177.424 93.7503 176.291 92.4881 175.41 90.9734C174.528 89.4587 174.15 87.5653 174.15 85.7982C174.15 84.0311 174.528 82.2639 175.41 80.7492C176.291 79.2345 177.424 78.0985 178.935 77.2149C182.083 75.4478 185.987 75.4478 189.135 77.2149ZM180.195 79.1083C179.061 79.7394 178.18 80.7492 177.55 81.8852C176.291 84.4097 176.291 87.4391 177.55 89.9636C178.18 91.0996 179.061 92.1094 180.195 92.7405C182.587 94.0028 185.483 94.0028 187.876 92.7405C189.009 92.1094 189.891 91.0996 190.52 89.9636C191.779 87.4391 191.779 84.4097 190.52 81.8852C189.891 80.7492 189.009 79.7394 187.876 79.1083C185.483 77.7198 182.587 77.7198 180.195 79.1083Z" fill="#4EA6DC"/>
<path d="M216.083 75.9528V95.6438H213.564V90.9735C212.935 92.4882 211.927 93.6242 210.668 94.5078C209.283 95.3913 207.646 95.77 206.009 95.77C203.994 95.8962 201.979 95.1389 200.594 93.7504C199.209 92.2357 198.453 90.2161 198.579 88.1965V76.079H201.098V87.5654C200.972 89.2063 201.602 90.721 202.609 91.857C203.742 92.9931 205.253 93.498 206.764 93.3717C208.653 93.3717 210.416 92.6144 211.675 91.2259C212.935 89.7112 213.564 87.6916 213.438 85.672V76.079H216.083V75.9528Z" fill="#4EA6DC"/>
<path d="M228.675 77.0887C229.934 76.2051 231.445 75.8264 233.082 75.8264V78.2247C231.193 78.0985 229.43 78.7296 228.045 79.9919C226.786 81.3803 225.904 83.1475 225.904 85.0408V95.5175H223.386V75.9527H225.904V80.4968C226.408 79.1083 227.415 77.9723 228.675 77.0887Z" fill="#4EA6DC"/>
<path d="M255.119 78.0985C253.733 78.0985 252.474 78.4772 251.341 79.1083C250.208 79.7395 249.326 80.7493 248.696 81.8853C248.067 83.1475 247.689 84.536 247.815 85.9244C247.815 87.3129 248.067 88.7014 248.696 89.9636C249.326 91.0997 250.208 92.1095 251.341 92.7406C252.474 93.3717 253.733 93.7504 255.119 93.7504C256.378 93.7504 257.511 93.4979 258.644 93.1193C259.652 92.7406 260.533 91.9832 261.289 91.2259L262.674 92.7406C261.792 93.7504 260.659 94.6339 259.4 95.1388C258.015 95.77 256.504 96.0224 254.993 96.0224C253.23 96.0224 251.467 95.6437 249.956 94.7602C248.445 93.8766 247.311 92.7406 246.43 91.2259C244.793 88.0703 244.793 84.1573 246.43 81.0017C247.185 79.487 248.445 78.351 249.956 77.4674C251.467 76.5838 253.23 76.2052 254.993 76.2052C256.378 76.2052 257.889 76.4576 259.148 76.9625C260.407 77.4674 261.415 78.0985 262.422 79.1083L261.037 80.7492C259.4 78.8559 257.259 78.0985 255.119 78.0985Z" fill="#4EA6DC"/>
<path d="M273.629 77.0887C274.888 76.2051 276.399 75.8264 278.036 75.8264V78.2247C276.147 78.0985 274.385 78.7296 272.999 79.9919C271.74 81.3803 270.859 83.1475 270.859 85.0408V95.5175H268.34V75.9527H270.859V80.4968C271.362 79.1083 272.37 77.9723 273.629 77.0887Z" fill="#4EA6DC"/>
<path d="M296.547 78.8559C298.184 81.1279 299.065 83.9049 298.814 86.6818H282.444C282.57 88.5752 283.325 90.3423 284.71 91.7308C286.095 92.993 287.858 93.7504 289.747 93.6242C290.88 93.6242 292.14 93.3717 293.273 92.993C294.28 92.6144 295.288 91.857 296.043 91.0997L297.428 92.4881C296.421 93.4979 295.288 94.3815 294.029 94.8864C292.643 95.5175 291.132 95.77 289.621 95.77C287.858 95.77 286.095 95.3913 284.584 94.5077C283.073 93.6242 281.94 92.4881 281.059 90.9734C279.422 87.8178 279.422 83.9049 281.059 80.7492C281.814 79.2346 283.073 78.0985 284.584 77.215C286.095 76.3314 287.858 75.9527 289.621 75.9527C292.266 75.7003 294.784 76.8363 296.547 78.8559ZM296.547 84.6622C296.547 82.8951 295.791 81.1279 294.532 79.7395C293.273 78.4772 291.51 77.8461 289.621 77.9723C287.858 77.9723 285.97 78.6034 284.71 79.8657C283.325 81.1279 282.57 82.8951 282.444 84.7884L296.547 84.6622Z" fill="#4EA6DC"/>
<path d="M316.317 95.6437V92.3619C315.561 93.4979 314.554 94.3815 313.294 94.8864C311.909 95.5175 310.524 95.77 309.013 95.77C307.754 95.77 306.621 95.5175 305.487 95.0126C303.473 94.0028 302.339 92.1094 302.339 89.8374C302.339 88.1965 302.969 86.808 304.354 85.7982C305.991 84.7884 307.88 84.2835 309.769 84.4097H316.317V82.8951C316.443 81.5066 315.939 80.2443 314.931 79.3608C313.798 78.4772 312.287 77.9723 310.902 78.0985C308.635 78.2247 306.369 78.9821 304.606 80.4968L303.473 78.7296C304.606 77.8461 305.865 77.215 307.25 76.7101C308.635 76.2052 310.021 76.0789 311.406 76.0789C313.42 75.9527 315.309 76.5838 316.946 77.8461C318.331 79.1083 318.961 80.8755 318.961 82.7688V95.77L316.317 95.6437ZM313.798 92.3619C315.057 91.6045 315.939 90.3423 316.317 88.9538V86.3031H310.021C308.635 86.1769 307.25 86.5556 306.117 87.1867C305.236 87.6916 304.732 88.7014 304.732 89.7112C304.732 90.8472 305.11 91.857 305.991 92.4881C306.998 93.2455 308.132 93.6241 309.391 93.4979C310.902 93.6241 312.539 93.2455 313.798 92.3619Z" fill="#4EA6DC"/>
<path d="M335.331 94.2553C334.072 95.1388 332.561 95.6437 331.05 95.77C329.664 95.8962 328.405 95.3913 327.524 94.3815C326.642 93.2455 326.139 91.7308 326.264 90.2161V78.4772H323.494V76.5839H326.39V71.5349H328.909V76.5839H335.205V78.4772H328.909V89.7112C328.909 92.1095 329.79 93.3717 331.553 93.3717C332.686 93.3717 333.82 92.993 334.827 92.3619L335.331 94.2553Z" fill="#4EA6DC"/>
<path d="M342.383 69.0104C342.76 69.3891 342.886 69.7677 342.886 70.2726C342.886 70.7775 342.76 71.1562 342.383 71.5349C342.005 71.9136 341.627 72.0398 341.123 72.0398C340.62 72.0398 340.242 71.9136 339.864 71.5349C339.486 71.1562 339.36 70.7775 339.36 70.2726C339.36 69.2628 340.116 68.5055 340.997 68.5055C340.997 68.5055 340.997 68.5055 341.123 68.5055C341.627 68.5055 342.005 68.7579 342.383 69.0104ZM339.864 75.9527H342.383V95.6438H339.864V75.9527Z" fill="#4EA6DC"/>
<path d="M346.16 75.9528H348.805L355.352 93.1193L361.775 75.9528H364.419L356.612 95.6438H353.967L346.16 75.9528Z" fill="#4EA6DC"/>
<path d="M382.048 78.8559C383.685 81.1279 384.567 83.9049 384.315 86.6818H367.945C368.071 88.5752 368.826 90.3423 370.211 91.7308C371.597 92.993 373.359 93.7504 375.248 93.6242C376.382 93.6242 377.641 93.3717 378.774 92.993C379.781 92.6144 380.789 91.857 381.544 91.0997L382.93 92.4881C381.922 93.4979 380.789 94.3815 379.53 94.8864C378.145 95.5175 376.633 95.77 375.122 95.77C373.359 95.77 371.597 95.3913 370.086 94.5077C368.574 93.6242 367.441 92.4881 366.56 90.9734C364.923 87.8178 364.923 83.9049 366.56 80.7492C367.441 79.2346 368.574 78.0985 370.086 77.215C371.597 76.3314 373.359 75.9527 375.122 75.9527C377.767 75.7003 380.285 76.8363 382.048 78.8559ZM382.048 84.6622C382.048 82.8951 381.293 81.1279 380.033 79.7395C378.774 78.4772 377.011 77.8461 375.248 77.9723C373.359 77.8461 371.597 78.6034 370.211 79.7395C368.826 81.0017 368.071 82.7688 367.945 84.6622H382.048Z" fill="#4EA6DC"/>
<path d="M415.165 77.2149C416.551 77.9723 417.81 79.2345 418.565 80.7492C419.447 82.3901 419.825 84.1573 419.825 85.9244C419.825 87.6916 419.447 89.4587 418.565 90.9734C417.81 92.4881 416.677 93.6241 415.291 94.5077C413.78 95.3913 412.143 95.7699 410.38 95.7699C408.743 95.7699 407.106 95.3913 405.721 94.5077C404.336 93.7503 403.329 92.4881 402.573 91.0996V102.965H400.055V75.9527H402.573V80.4968C403.203 79.1083 404.336 77.846 405.721 77.0887C407.106 76.2051 408.743 75.8264 410.38 75.8264C411.892 75.8264 413.654 76.3314 415.165 77.2149ZM413.529 92.4881C414.662 91.857 415.543 90.8472 416.173 89.7111C416.803 88.4489 417.18 87.0604 417.054 85.672C417.054 84.2835 416.803 82.895 416.173 81.6328C415.543 80.4968 414.662 79.487 413.529 78.8558C411.136 77.5936 408.366 77.5936 405.973 78.8558C404.84 79.487 403.958 80.4968 403.329 81.6328C402.699 82.895 402.321 84.2835 402.321 85.672C402.321 87.0604 402.573 88.4489 403.203 89.7111C403.833 90.8472 404.714 91.857 405.847 92.4881C408.366 93.8766 411.136 93.8766 413.529 92.4881Z" fill="#4EA6DC"/>
<path d="M425.113 67.7482H427.632V95.5176H425.113V67.7482Z" fill="#4EA6DC"/>
<path d="M447.527 95.6437V92.3619C446.772 93.4979 445.765 94.3815 444.505 94.8864C443.12 95.5175 441.735 95.77 440.224 95.77C438.965 95.77 437.831 95.5175 436.698 95.0126C434.683 94.0028 433.55 92.1094 433.55 89.8374C433.55 88.1965 434.18 86.808 435.565 85.7982C437.202 84.7884 439.091 84.2835 440.979 84.2835H447.527V82.8951C447.653 81.5066 447.15 80.2443 446.142 79.3608C445.009 78.4772 443.498 77.9723 442.113 78.0985C439.846 78.2247 437.58 78.9821 435.817 80.4968L434.683 78.7296C435.817 77.8461 437.076 77.215 438.461 76.7101C439.846 76.2052 441.231 76.0789 442.616 76.0789C444.631 75.9527 446.52 76.5838 448.157 77.8461C449.542 79.1083 450.172 80.8755 450.172 82.7688V95.77L447.527 95.6437ZM445.009 92.3619C446.268 91.6045 447.15 90.3423 447.527 88.9538V86.3031H441.231C439.846 86.1769 438.461 86.5556 437.328 87.1867C436.446 87.6916 435.943 88.7014 435.943 89.7112C435.943 90.8472 436.32 91.857 437.202 92.4881C438.209 93.2455 439.342 93.6241 440.602 93.4979C442.113 93.6241 443.624 93.2455 445.009 92.3619Z" fill="#4EA6DC"/>
<path d="M464.401 78.0985C463.016 78.0985 461.757 78.4772 460.623 79.1083C459.49 79.7395 458.609 80.7493 457.979 81.8853C457.349 83.1475 456.972 84.536 457.098 85.9244C457.098 87.3129 457.349 88.7014 457.979 89.9636C458.609 91.0997 459.49 92.1095 460.623 92.7406C461.757 93.3717 463.016 93.7504 464.401 93.7504C465.66 93.7504 466.794 93.4979 467.927 93.1193C468.934 92.7406 469.816 91.9832 470.571 91.2259L471.956 92.7406C471.075 93.7504 469.942 94.6339 468.682 95.1388C467.297 95.77 465.786 96.0224 464.275 96.0224C462.512 96.0224 460.749 95.6437 459.238 94.7602C457.727 93.8766 456.594 92.7406 455.712 91.2259C454.075 88.0703 454.075 84.1573 455.712 81.0017C456.468 79.487 457.727 78.351 459.238 77.4674C460.749 76.5838 462.512 76.2052 464.275 76.2052C465.66 76.2052 467.171 76.4576 468.431 76.9625C469.69 77.4674 470.697 78.0985 471.705 79.1083L470.319 80.7492C468.682 78.8559 466.542 78.0985 464.401 78.0985Z" fill="#4EA6DC"/>
<path d="M491.223 78.8559C492.986 81.1279 493.741 83.9049 493.489 86.6818H477.119C477.245 88.5752 478.001 90.3423 479.386 91.7308C480.771 92.993 482.534 93.7504 484.423 93.6242C485.556 93.6242 486.815 93.3717 487.949 92.993C488.956 92.6144 489.963 91.857 490.719 91.0997L492.104 92.4881C491.097 93.4979 489.963 94.3815 488.704 94.8864C487.319 95.5175 485.808 95.77 484.297 95.77C482.534 95.77 480.771 95.3913 479.26 94.5077C477.749 93.6242 476.616 92.4881 475.734 90.9734C474.097 87.6916 474.097 83.9049 475.734 80.7492C476.49 79.2346 477.749 78.0985 479.26 77.215C480.771 76.3314 482.534 75.9527 484.297 75.9527C486.941 75.7003 489.46 76.8363 491.223 78.8559ZM491.223 84.6622C491.223 82.8951 490.467 81.1279 489.208 79.7395C487.949 78.4772 486.186 77.8461 484.297 77.9723C482.534 77.9723 480.645 78.6034 479.386 79.8657C478.001 81.1279 477.245 82.8951 477.119 84.6622H491.223Z" fill="#4EA6DC"/>
<path d="M43.821 53.2323L39.9175 43.7654C39.6656 43.2605 39.2878 43.0081 38.7842 43.0081H14.9849C14.4812 43.0081 13.9775 43.2605 13.8516 43.7654L9.94798 53.2323C9.69613 53.7372 9.31838 53.9896 8.81469 53.9896H1.25934C0.503811 53.9896 0.00012207 53.4847 0.00012207 52.7274C0.00012207 52.6012 0.000120147 52.3487 0.126042 52.2225L21.7847 2.61623C22.0365 2.11134 22.4143 1.85889 22.918 1.85889H31.6066C32.1103 1.85889 32.614 2.11134 32.7399 2.61623L54.1467 52.2225C54.3985 52.8536 54.1467 53.611 53.5171 53.8634C53.3912 53.9896 53.1393 53.9896 53.0134 53.9896H45.0803C44.4507 53.9896 43.947 53.611 43.821 53.2323ZM19.5181 34.4248H33.9991C34.7547 34.4248 35.2583 33.7937 35.1324 33.0363C35.1324 32.9101 35.1324 32.7839 35.0065 32.6577L27.8289 15.2387C27.5771 14.6076 26.8215 14.2289 26.1919 14.6076C25.9401 14.7338 25.6882 14.9862 25.5623 15.2387L18.3848 32.6577C18.1329 33.2888 18.5107 34.0461 19.1403 34.2986C19.2662 34.2986 19.3922 34.4248 19.5181 34.4248Z" fill="white"/>
<path d="M57.5465 1.85889H97.4638C98.2194 1.85889 98.723 2.36378 98.723 3.12113V9.43236C98.723 10.1897 98.2194 10.6946 97.4638 10.6946H83.7383C82.9828 10.6946 82.4791 11.1995 82.4791 11.9568V52.7274C82.4791 53.4847 81.9754 53.9896 81.2199 53.9896H73.6645C72.909 53.9896 72.4053 53.4847 72.4053 52.7274V11.9568C72.4053 11.3257 69.3832 10.6946 68.6276 10.6946H57.4205C56.665 10.6946 56.1613 10.1897 56.1613 9.43236V3.12113C56.2872 2.36378 56.7909 1.85889 57.5465 1.85889Z" fill="white"/>
<path d="M176.795 1.85889H186.113C186.617 1.85889 186.994 2.11133 187.246 2.49001L202.987 33.1626C203.364 33.7937 204.12 34.0461 204.624 33.6675C204.875 33.5412 205.001 33.415 205.127 33.1626L220.742 2.49001C220.993 2.11133 221.371 1.85889 221.875 1.85889H231.193C231.949 1.85889 232.452 2.36378 232.452 3.12113V52.7274C232.452 53.4847 231.949 53.9896 231.193 53.9896H224.519C223.764 53.9896 223.26 53.4847 223.26 52.7274V21.8024C223.26 21.045 222.63 20.5401 222.001 20.5401C221.497 20.5401 221.119 20.7926 220.868 21.1712L207.646 47.9308C207.394 48.3095 207.016 48.562 206.512 48.6882H201.601C201.098 48.6882 200.72 48.4357 200.468 47.9308L186.994 21.2975C186.617 20.6663 185.861 20.4139 185.357 20.7926C184.98 21.045 184.728 21.4237 184.728 21.9286V52.7274C184.728 53.4847 184.224 53.9896 183.469 53.9896H176.921C176.165 53.9896 175.661 53.4847 175.661 52.7274V3.12113C175.536 2.36378 176.039 1.85889 176.795 1.85889Z" fill="white"/>
<path d="M283.703 9.17993C281.436 8.42258 278.918 8.0439 276.525 8.0439C274.007 7.91768 271.488 8.5488 269.222 9.81105C267.459 10.8208 266.451 12.588 266.577 14.6076C266.451 16.2485 267.081 17.8894 268.214 19.1517C269.348 20.2877 270.733 21.2975 272.244 21.9286C273.881 22.5597 276.021 23.4433 278.918 24.3269C281.814 25.2104 284.71 26.2202 287.48 27.4825C289.621 28.4923 291.636 30.007 293.021 31.9003C294.658 34.1724 295.413 36.9493 295.287 39.7263C295.287 42.5032 294.532 45.2801 292.895 47.5522C291.132 49.8242 288.865 51.7176 286.095 52.7274C282.947 53.9896 279.547 54.6208 276.147 54.4945C272.37 54.4945 268.592 53.7372 264.94 52.2225C261.792 50.9602 258.896 49.1931 256.252 46.9211C255.748 46.5424 255.622 45.9113 256 45.2801L258.014 41.4934C258.392 40.8623 259.148 40.6098 259.777 40.9885C259.903 40.9885 259.903 41.1147 260.029 41.1147C262.17 43.0081 264.562 44.5228 267.207 45.6588C270.103 46.9211 273.125 47.5522 276.273 47.6784C279.169 47.8046 282.066 47.1735 284.458 45.6588C286.347 44.5228 287.48 42.377 287.48 40.1049C287.48 38.464 286.977 36.8231 285.843 35.5609C284.71 34.2986 283.325 33.415 281.688 32.7839C279.547 31.9003 277.281 31.143 275.014 30.5119C272.118 29.6283 269.347 28.6185 266.577 27.4825C264.437 26.4727 262.548 24.958 261.037 23.0646C259.4 20.7926 258.644 18.1419 258.77 15.3649C258.77 12.7142 259.526 10.1897 261.037 8.0439C262.674 5.77186 264.94 4.13094 267.459 3.12114C270.481 1.98512 273.755 1.354 277.155 1.354C282.821 1.354 288.488 2.8687 293.399 5.77186C293.902 6.15054 294.154 6.78166 293.902 7.41278L292.014 11.5782C291.762 12.2093 291.006 12.4618 290.377 12.2093H290.251C287.984 10.8208 285.843 9.93727 283.703 9.17993Z" fill="white"/>
<path d="M341.753 6.40297C345.279 9.43236 347.042 13.8502 347.042 19.4041C347.042 25.2104 345.279 29.7545 341.627 32.9101C338.101 36.0657 333.064 37.7067 326.642 37.7067H314.931C314.176 37.7067 313.672 38.2116 313.672 38.9689V52.7274C313.672 53.4847 313.168 53.9896 312.413 53.9896H307.754C306.998 53.9896 306.495 53.4847 306.495 52.7274V3.12113C306.495 2.36378 306.998 1.85889 307.754 1.85889H326.516C333.19 1.85889 338.101 3.37358 341.753 6.40297ZM336.716 28.2398C339.108 26.2202 340.242 23.4433 340.242 19.5303C340.494 16.2485 339.108 13.2191 336.716 11.0733C334.323 9.17991 330.923 8.17011 326.516 8.17011H315.183C314.428 8.17011 313.924 8.67501 313.924 9.43236V29.7545C313.924 30.5119 314.428 31.0168 315.183 31.0168H326.516C330.798 31.2692 334.197 30.2594 336.716 28.2398Z" fill="white"/>
<path d="M391.744 53.2323L386.959 42.1245C386.707 41.6196 386.329 41.3672 385.826 41.3672H360.012C359.508 41.3672 359.004 41.6196 358.878 42.1245L354.093 53.2323C353.841 53.7372 353.464 53.9896 352.96 53.9896H348.175C347.419 53.9896 346.916 53.4847 346.916 52.7274C346.916 52.6012 346.916 52.3487 347.042 52.2225L369.078 2.61623C369.33 2.11134 369.708 1.85889 370.211 1.85889H376.004C376.507 1.85889 377.011 2.11134 377.137 2.61623L399.048 52.2225C399.299 52.8536 399.048 53.611 398.418 53.8634C398.292 53.9896 398.04 53.9896 397.914 53.9896H393.003C392.374 53.9896 391.87 53.611 391.744 53.2323ZM363.789 34.8035H381.796C382.552 34.8035 383.055 34.2986 383.055 33.5412C383.055 33.415 383.055 33.1626 382.93 33.0363L373.863 12.2093C373.611 11.5782 372.856 11.3257 372.226 11.5782C371.974 11.7044 371.722 11.9568 371.597 12.2093L362.656 33.0363C362.404 33.6675 362.656 34.4248 363.286 34.6773C363.412 34.8035 363.663 34.8035 363.789 34.8035Z" fill="white"/>
<path d="M436.824 9.43237C427.506 5.26696 416.551 8.80125 411.388 17.637C409.625 20.6664 408.744 24.2006 408.744 27.7349C408.744 32.9101 410.758 37.9591 414.41 41.7458L414.536 41.8721C420.454 47.6784 429.269 49.3193 436.95 46.0375C439.091 45.1539 441.231 43.7654 442.994 42.2507C443.498 41.7458 444.254 41.8721 444.757 42.377L447.402 45.2801C447.905 45.785 447.905 46.5424 447.402 47.0473C445.009 49.1931 442.239 50.9602 439.217 52.2225C431.41 55.5043 422.469 55.1256 415.04 50.834C406.729 46.1637 401.692 37.328 401.692 27.7349C401.692 23.0646 402.951 18.3943 405.344 14.3551C407.736 10.3159 411.136 7.03411 415.166 4.76207C419.321 2.36381 424.106 1.22778 428.891 1.22778C432.543 1.22778 436.069 1.85891 439.469 3.24738C442.365 4.3834 445.135 6.15054 447.402 8.17013C447.905 8.67503 447.905 9.43237 447.528 9.93727L444.883 13.0929C444.38 13.5978 443.624 13.724 443.12 13.2191C443.12 13.2191 443.12 13.2191 442.994 13.0929C440.98 11.7044 438.965 10.4422 436.824 9.43237Z" fill="white"/>
<path d="M459.238 1.85889H492.859C493.615 1.85889 494.119 2.36378 494.119 3.12113V7.03409C494.119 7.79144 493.615 8.29634 492.859 8.29634H466.416C465.66 8.29634 465.157 8.80124 465.157 9.55858V23.1908C465.157 23.9482 465.66 24.4531 466.416 24.4531H489.837C490.593 24.4531 491.096 24.958 491.096 25.7153V29.6283C491.096 30.3856 490.593 30.8905 489.837 30.8905H466.416C465.66 30.8905 465.157 31.3954 465.157 32.1528V46.2899C465.157 47.0473 465.66 47.5522 466.416 47.5522H493.741C494.496 47.5522 495 48.0571 495 48.8144V52.7274C495 53.4847 494.496 53.9896 493.741 53.9896H459.238C458.483 53.9896 457.979 53.4847 457.979 52.7274V3.12113C457.979 2.36378 458.609 1.85889 459.238 1.85889Z" fill="white"/>
<path d="M136.5 0.470459C120.885 0.470459 108.167 13.2191 108.167 28.871C108.167 44.5228 120.885 57.2715 136.5 57.2715C152.114 57.2715 164.832 44.649 164.832 28.9972C164.832 13.2191 152.24 0.470459 136.5 0.470459ZM136.5 48.6882C125.545 48.6882 116.73 39.8525 116.73 28.871C116.73 17.8894 125.545 9.05372 136.5 9.05372C147.455 9.05372 156.27 17.8894 156.27 28.871C156.27 39.7263 147.455 48.6882 136.5 48.6882Z" fill="white"/>
</svg>
