<svg width="192" height="170" viewBox="0 0 192 170" fill="none" xmlns="http://www.w3.org/2000/svg">
<path fill-rule="evenodd" clip-rule="evenodd" d="M41.3897 98.1014C34.4807 94.515 25.8151 95.3791 19.9271 100.242L15.3447 104.026C7.89014 110.182 5.31981 119.845 8.85722 128.414L8.97411 128.697C11.3328 134.411 9.94633 140.844 5.38994 145.328L4.84681 145.863L0 141.799L0.543134 141.264C3.40967 138.443 4.28193 134.395 2.79802 130.801L2.68113 130.518C-1.80455 119.651 1.45481 107.399 10.9077 99.5922L15.4901 95.808C23.4931 89.1988 35.2715 88.0242 44.6622 92.8989L45.7066 93.4411C51.7069 96.5558 52.1365 104.27 46.5129 107.919L46.2576 108.084C43.4608 109.899 40.1097 110.875 36.6727 110.875C29.4337 110.875 24.0797 116.997 25.7167 123.403L26.0935 124.877C27.3815 129.918 31.8924 133.752 37.5138 134.586L43.3682 135.454C48.6201 136.233 53.9947 135.034 58.2519 132.134L67.8172 125.617C73.0501 122.051 80.4539 122.905 84.5401 127.545C88.7994 132.382 87.8259 139.458 82.3874 143.193L77.6218 146.466C70.2988 151.496 61.8896 155.065 52.9441 156.941L51.2052 157.305C47.2979 158.124 43.6932 159.855 40.7466 162.325L31.5943 170L27.1203 165.597L36.2726 157.923C40.0618 154.745 44.6974 152.52 49.722 151.467L51.4609 151.102C59.502 149.416 67.061 146.208 73.6437 141.687L78.4092 138.414C80.8856 136.713 81.3289 133.491 79.3895 131.288C77.5289 129.176 74.1576 128.787 71.7749 130.41L62.2095 136.927C56.5163 140.806 49.3289 142.41 42.3054 141.368L36.451 140.5C28.19 139.275 21.5611 133.639 19.6683 126.232L19.2915 124.758C16.6945 114.595 25.1883 104.883 36.6727 104.883C38.7349 104.883 40.7456 104.297 42.4237 103.209L42.679 103.043C44.3879 101.934 44.2573 99.59 42.434 98.6436L41.3897 98.1014Z" fill="url(#paint0_linear)"/>
<path fill-rule="evenodd" clip-rule="evenodd" d="M112.465 36.2203C108.748 29.8287 109.985 21.9897 115.53 16.8049L119.846 12.7698C126.866 6.20562 137.581 4.19202 146.892 7.68754L147.2 7.80304C153.408 10.1338 160.532 9.08811 165.617 5.09981L166.223 4.62439L161.912 0.089262L161.306 0.564678C158.107 3.07382 153.625 3.73169 149.719 2.26535L149.411 2.14985C137.605 -2.28271 124.016 0.270664 115.114 8.59454L110.799 12.6296C103.263 19.6768 101.58 30.3317 106.632 39.0192L107.194 39.9853C110.422 45.5363 118.895 46.1819 123.096 41.197L123.287 40.9707C125.376 38.4915 126.56 35.4813 126.674 32.3608C126.914 25.7883 133.827 21.1301 140.82 22.8286L142.43 23.2196C147.933 24.5559 152.003 28.7784 152.734 33.9099L153.495 39.2539C154.178 44.0481 152.681 48.888 149.349 52.6571L141.862 61.1258C137.766 65.7587 138.46 72.5091 143.43 76.3727C148.61 80.4 156.427 79.7505 160.717 74.9365L164.476 70.7181C170.253 64.236 174.458 56.7194 176.818 48.6597L177.276 47.0931C178.307 43.5727 180.33 40.3572 183.146 37.7638L191.893 29.7085L187.197 25.5006L178.45 33.5559C174.829 36.8909 172.227 41.026 170.902 45.5531L170.443 47.1197C168.322 54.3646 164.542 61.1212 159.349 66.948L155.59 71.1663C153.637 73.3584 150.077 73.6541 147.719 71.8203C145.456 70.061 145.14 66.9874 147.005 64.8778L154.492 56.4091C158.948 51.3686 160.95 44.8961 160.037 38.4848L159.275 33.1408C158.201 25.5999 152.22 19.3947 144.134 17.4309L142.524 17.0399C131.429 14.3454 120.462 21.7354 120.082 32.1623C120.013 34.0347 119.303 35.8408 118.049 37.3283L117.859 37.5546C116.582 39.0694 114.007 38.8732 113.026 37.1864L112.465 36.2203Z" fill="url(#paint1_linear)"/>
<path fill-rule="evenodd" clip-rule="evenodd" d="M109.24 36.0626C110.987 34.4879 113.817 34.5231 115.517 36.1406L124.097 44.3057L126.527 42.3578C130.399 39.2541 136.311 39.601 139.711 43.1313C142.943 46.4867 142.758 51.5439 139.287 54.6966L137.36 56.4475L146.893 65.1075C148.61 66.6675 148.61 69.1967 146.893 70.7568L137.993 78.8416C136.292 80.3861 133.542 80.4037 131.818 78.8811L127.521 75.0864C125.921 73.673 123.423 73.5357 121.647 74.7634C119.437 76.2906 119.257 79.2512 121.267 80.9905L125.359 84.5308C127.149 86.0786 127.183 88.6611 125.436 90.2481L104.929 108.877L106.719 110.504C111.195 114.569 111.195 121.161 106.719 125.227C102.244 129.292 94.9877 129.292 90.5122 125.227L88.7217 123.6L81.8526 129.84C80.273 131.275 77.76 131.406 76.01 130.145L66.3854 123.208L63.7087 125.189C59.1022 128.6 52.3871 128.233 48.2631 124.346C43.7252 120.069 44.0565 113.212 48.9896 109.312L51.0529 107.681L43.6632 100.673C42.004 99.0995 42.0391 96.6082 43.7423 95.0737L51.1775 88.3748L47.9673 85.1656C44.1767 81.3761 44.3316 75.5499 48.3192 71.931C52.4189 68.2105 59.0535 68.1873 63.1846 71.879L66.3298 74.6897L84.02 58.4955L80.7821 55.6689C76.2165 51.6834 76.0748 45.0896 80.4656 40.9452C84.9733 36.6905 92.4701 36.6905 96.9778 40.9452L100.319 44.0993L109.24 36.0626ZM112.293 41.7506L103.38 49.7814C101.637 51.3516 98.8167 51.3218 97.1147 49.7153L92.2253 45.1003C90.3124 43.2948 87.131 43.2948 85.2181 45.1003C83.3549 46.859 83.415 49.6572 85.3524 51.3485L90.2014 55.5814C91.9724 57.1275 92.006 59.6917 90.2758 61.2755L82.186 68.6811L90.2913 76.1009C91.9973 77.6627 91.992 80.1835 90.2794 81.7393L86.9331 84.7792C85.3839 86.1865 85.418 88.4777 87.0085 89.8465C88.5394 91.164 90.9468 91.1344 92.438 89.7798L96.1073 86.4465C97.7425 84.9611 100.365 84.88 102.107 86.2609L111.929 94.0442L119.179 87.4583L116.718 85.3295C111.768 81.0463 112.212 73.7555 117.653 69.9948C122.027 66.9713 128.178 67.3095 132.119 70.7902L134.862 73.2121L140.674 67.9321L130.647 58.8237C129.202 57.5113 129.202 55.3836 130.647 54.0713L134.623 50.4596C135.638 49.5375 135.692 48.0584 134.747 47.077C133.752 46.0445 132.023 45.943 130.891 46.8508L123.705 52.6107L112.293 41.7506ZM107.254 98.291L99.3191 92.0028L97.1021 94.0168C93.0841 97.6668 86.5972 97.7464 82.4721 94.1964C78.1864 90.508 78.0945 84.3344 82.269 80.5422L84.0665 78.9093L77.5397 72.9345L69.4698 80.3219C67.7644 81.8831 64.9906 81.8983 63.2646 80.3559L58.5588 76.1506C57.0088 74.7654 54.5193 74.7741 52.9811 76.1701C51.4848 77.5279 51.4267 79.714 52.849 81.1359L57.4746 85.7601C59.0576 87.3427 58.988 89.777 57.3167 91.2828L49.9213 97.9458L57.4117 105.05C59.1487 106.697 59.017 109.329 57.1227 110.826L53.3194 113.833C51.234 115.481 51.0939 118.38 53.0123 120.188C54.7556 121.831 57.5944 121.986 59.5417 120.544L63.589 117.548C65.1897 116.363 67.4826 116.349 69.1002 117.515L78.5744 124.344L85.6123 117.951C87.3296 116.391 90.1139 116.391 91.8311 117.951L95.1763 120.99C97.0759 122.715 100.156 122.715 102.055 120.99C103.955 119.264 103.955 116.466 102.055 114.741L98.7101 111.702C96.9928 110.142 96.9928 107.613 98.7101 106.053L107.254 98.291Z" fill="url(#paint2_linear)"/>
<path fill-rule="evenodd" clip-rule="evenodd" d="M62.3376 32.979C61.1233 32.979 60.1389 32.0848 60.1389 30.9817V17.9991C60.1389 16.896 61.1233 16.0017 62.3376 16.0017H64.5362C65.7505 16.0017 66.7349 16.896 66.7349 17.9991V30.9817C66.7349 32.0848 65.7505 32.979 64.5362 32.979H62.3376ZM46.7191 40.6758C45.8604 41.4558 44.4683 41.4558 43.6097 40.6758L25.8315 24.5259C24.9729 23.7459 24.9729 22.4812 25.8315 21.7012L27.3862 20.2889C28.2449 19.5089 29.637 19.5089 30.4957 20.2889L48.2738 36.4388C49.1324 37.2188 49.1324 38.4835 48.2738 39.2635L46.7191 40.6758ZM57.3905 48.9576C56.1026 50.1276 54.0144 50.1276 52.7264 48.9576L52.4435 48.7006C51.1555 47.5306 51.1555 45.6336 52.4435 44.4636C53.7314 43.2936 55.8196 43.2936 57.1076 44.4636L57.3905 44.7206C58.6785 45.8906 58.6785 47.7876 57.3905 48.9576ZM38.7017 57.4462C38.7017 58.5493 37.7173 59.4436 36.503 59.4436H22.7612C21.5469 59.4436 20.5625 58.5493 20.5625 57.4462V55.4489C20.5625 54.3458 21.5469 53.4516 22.7612 53.4516H36.503C37.7173 53.4516 38.7017 54.3458 38.7017 55.4489V57.4462Z" fill="url(#paint3_linear)"/>
<path fill-rule="evenodd" clip-rule="evenodd" d="M126.649 132.845C127.863 132.845 128.848 133.739 128.848 134.843V147.825C128.848 148.928 127.863 149.823 126.649 149.823H124.45C123.236 149.823 122.252 148.928 122.252 147.825V134.843C122.252 133.739 123.236 132.845 124.45 132.845H126.649ZM142.268 125.148C143.126 124.368 144.518 124.368 145.377 125.148L163.155 141.298C164.014 142.078 164.014 143.343 163.155 144.123L161.6 145.535C160.742 146.315 159.35 146.315 158.491 145.535L140.713 129.385C139.854 128.605 139.854 127.341 140.713 126.561L142.268 125.148ZM131.596 116.867C132.884 115.697 134.972 115.697 136.26 116.867L136.543 117.124C137.831 118.294 137.831 120.191 136.543 121.361C135.255 122.531 133.167 122.531 131.879 121.361L131.596 121.104C130.308 119.934 130.308 118.037 131.596 116.867ZM150.285 108.378C150.285 107.275 151.269 106.381 152.484 106.381H166.226C167.44 106.381 168.424 107.275 168.424 108.378V110.375C168.424 111.478 167.44 112.373 166.226 112.373H152.484C151.269 112.373 150.285 111.478 150.285 110.375V108.378Z" fill="url(#paint4_linear)"/>
<defs>
<linearGradient id="paint0_linear" x1="176.669" y1="5.01646" x2="30.5172" y2="173.675" gradientUnits="userSpaceOnUse">
<stop stop-color="#8C0FDD"/>
<stop offset="0.359116" stop-color="#A93FAD"/>
<stop offset="0.651464" stop-color="#CF776B"/>
<stop offset="0.996721" stop-color="#F3AF32"/>
</linearGradient>
<linearGradient id="paint1_linear" x1="176.669" y1="5.01646" x2="30.5172" y2="173.675" gradientUnits="userSpaceOnUse">
<stop stop-color="#8C0FDD"/>
<stop offset="0.359116" stop-color="#A93FAD"/>
<stop offset="0.651464" stop-color="#CF776B"/>
<stop offset="0.996721" stop-color="#F3AF32"/>
</linearGradient>
<linearGradient id="paint2_linear" x1="176.669" y1="5.01646" x2="30.5172" y2="173.675" gradientUnits="userSpaceOnUse">
<stop stop-color="#8C0FDD"/>
<stop offset="0.359116" stop-color="#A93FAD"/>
<stop offset="0.651464" stop-color="#CF776B"/>
<stop offset="0.996721" stop-color="#F3AF32"/>
</linearGradient>
<linearGradient id="paint3_linear" x1="176.669" y1="5.01646" x2="30.5172" y2="173.675" gradientUnits="userSpaceOnUse">
<stop stop-color="#8C0FDD"/>
<stop offset="0.359116" stop-color="#A93FAD"/>
<stop offset="0.651464" stop-color="#CF776B"/>
<stop offset="0.996721" stop-color="#F3AF32"/>
</linearGradient>
<linearGradient id="paint4_linear" x1="176.669" y1="5.01646" x2="30.5172" y2="173.675" gradientUnits="userSpaceOnUse">
<stop stop-color="#8C0FDD"/>
<stop offset="0.359116" stop-color="#A93FAD"/>
<stop offset="0.651464" stop-color="#CF776B"/>
<stop offset="0.996721" stop-color="#F3AF32"/>
</linearGradient>
</defs>
</svg>
