<svg width="192" height="170" viewBox="0 0 192 170" fill="none" xmlns="http://www.w3.org/2000/svg">
<path fill-rule="evenodd" clip-rule="evenodd" d="M95.5621 77.3676C84.8225 77.3676 76.1163 85.2564 76.1163 94.9879V107.795C76.1163 115.057 80.9682 121.595 88.3894 124.335C90.0389 124.944 91.1173 126.397 91.1173 128.011V131.066C91.1173 132.899 89.8983 134.551 88.0289 135.252L64.7267 143.99C61.1956 145.314 58.8929 148.435 58.8929 151.898V170H51.1146V151.898C51.1146 145.583 55.3136 139.891 61.7526 137.477L82.6338 129.648C73.8924 125.318 68.338 116.97 68.338 107.795V94.9879C68.338 81.3639 80.5266 70.3195 95.5621 70.3195C110.598 70.3195 122.786 81.3639 122.786 94.9879V107.795C122.786 116.97 117.232 125.318 108.49 129.648L129.372 137.477C135.811 139.891 140.01 145.583 140.01 151.898V170H132.231V151.898C132.231 148.435 129.929 145.314 126.397 143.99L103.095 135.252C101.226 134.551 100.007 132.899 100.007 131.066V128.011C100.007 126.397 101.085 124.944 102.735 124.335C110.156 121.595 115.008 115.057 115.008 107.795V94.9879C115.008 85.2564 106.302 77.3676 95.5621 77.3676Z" fill="url(#paint0_linear)"/>
<path fill-rule="evenodd" clip-rule="evenodd" d="M55.5593 77.3676C44.8197 77.3676 36.1136 85.2564 36.1136 94.9879V107.795C36.1136 115.057 40.9654 121.595 48.3867 124.335C50.0362 124.944 51.1146 126.397 51.1146 128.011V131.066C51.1146 132.899 49.8955 134.551 48.0261 135.252L24.7239 143.99C21.1929 145.314 18.8902 148.435 18.8902 151.898V170H11.1119V151.898C11.1119 145.583 15.3109 139.891 21.7499 137.477L42.631 129.648C33.8896 125.318 28.3353 116.97 28.3353 107.795V94.9879C28.3353 81.3639 40.5239 70.3195 55.5593 70.3195C60.5116 70.3195 65.166 71.5208 69.1742 73.6218L65.2794 79.7227C62.4232 78.2256 59.1077 77.3676 55.5593 77.3676Z" fill="url(#paint1_linear)"/>
<path fill-rule="evenodd" clip-rule="evenodd" d="M135.565 77.3676C146.304 77.3676 155.011 85.2564 155.011 94.9879V107.795C155.011 115.057 150.159 121.595 142.737 124.335C141.088 124.944 140.01 126.397 140.01 128.011V131.066C140.01 132.899 141.229 134.551 143.098 135.252L166.4 143.99C169.931 145.314 172.234 148.435 172.234 151.898V170H180.012V151.898C180.012 145.583 175.813 139.891 169.374 137.477L148.493 129.648C157.235 125.318 162.789 116.97 162.789 107.795V94.9879C162.789 81.3639 150.6 70.3195 135.565 70.3195C130.613 70.3195 125.958 71.5208 121.95 73.6218L125.845 79.7227C128.701 78.2256 132.016 77.3676 135.565 77.3676Z" fill="url(#paint2_linear)"/>
<path fill-rule="evenodd" clip-rule="evenodd" d="M92.5107 1.65893C94.138 -0.552933 97.725 -0.553023 99.3524 1.65893L127.828 40.3626C129.65 42.8384 127.691 46.1546 124.407 46.1546H110.933V66.292H103.154V43.6374C103.154 41.135 105.393 39.1064 108.155 39.1064H117.555L95.9316 9.7155L74.3077 39.1064H83.7085C86.4701 39.1064 88.7088 41.135 88.7088 43.6374V66.292H80.9305V46.1546H67.456C64.1721 46.1546 62.2136 42.8383 64.0351 40.3626L92.5107 1.65893ZM32.5939 21.798L10.97 51.1889H20.3709C23.1325 51.1889 25.3712 53.2175 25.3712 55.7199V78.5856C25.3712 80.3827 24.5556 82.1008 23.1159 83.3367L14.8149 90.4625V100.022H7.03661V90.246C7.03661 88.4489 7.85215 86.7308 9.29194 85.4949L17.5929 78.369V58.237H4.1183C0.834541 58.237 -1.12406 54.9209 0.697413 52.4451L29.173 13.7414C30.8004 11.5295 34.3875 11.5296 36.0148 13.7414L64.4904 52.4451C66.3119 54.9208 64.3533 58.237 61.0695 58.237H47.5949V67.2989H39.8166V55.7199C39.8166 53.2175 42.0554 51.1889 44.817 51.1889H54.2178L32.5939 21.798ZM155.848 13.7414C157.476 11.5296 161.063 11.5295 162.69 13.7414L191.166 52.4451C192.987 54.9209 191.028 58.237 187.745 58.237H174.27V78.369L182.571 85.4949C184.011 86.7308 184.827 88.4489 184.827 90.246V100.022H177.048V90.4625L168.747 83.3367C167.307 82.1007 166.492 80.3827 166.492 78.5856V55.7199C166.492 53.2175 168.731 51.1889 171.492 51.1889H180.893L159.269 21.798L137.645 51.1889H147.046C149.808 51.1889 152.047 53.2175 152.047 55.7199V67.2989H144.268V58.237H130.794C127.51 58.237 125.551 54.9207 127.373 52.4451L155.848 13.7414ZM14.8149 105.56V114.622H7.03661V105.56H14.8149ZM184.827 105.56V114.622H177.048V105.56H184.827ZM14.8149 121.67V128.718H7.03661V121.67H14.8149ZM184.827 121.67V128.718H177.048V121.67H184.827Z" fill="url(#paint3_linear)"/>
<path d="M75.5607 154.393H84.4502V160.435H75.5607V154.393Z" fill="url(#paint4_linear)"/>
<path d="M91.1173 154.393H100.007V160.435H91.1173V154.393Z" fill="url(#paint5_linear)"/>
<path d="M106.674 154.393H115.563V160.435H106.674V154.393Z" fill="url(#paint6_linear)"/>
<defs>
<linearGradient id="paint0_linear" x1="149.767" y1="-1.4388e-06" x2="27.6505" y2="181.008" gradientUnits="userSpaceOnUse">
<stop stop-color="#8C0FDD"/>
<stop offset="0.359116" stop-color="#A93FAD"/>
<stop offset="0.651464" stop-color="#CF776B"/>
<stop offset="0.996721" stop-color="#F3AF32"/>
</linearGradient>
<linearGradient id="paint1_linear" x1="149.767" y1="-1.4388e-06" x2="27.6505" y2="181.008" gradientUnits="userSpaceOnUse">
<stop stop-color="#8C0FDD"/>
<stop offset="0.359116" stop-color="#A93FAD"/>
<stop offset="0.651464" stop-color="#CF776B"/>
<stop offset="0.996721" stop-color="#F3AF32"/>
</linearGradient>
<linearGradient id="paint2_linear" x1="149.767" y1="-1.4388e-06" x2="27.6505" y2="181.008" gradientUnits="userSpaceOnUse">
<stop stop-color="#8C0FDD"/>
<stop offset="0.359116" stop-color="#A93FAD"/>
<stop offset="0.651464" stop-color="#CF776B"/>
<stop offset="0.996721" stop-color="#F3AF32"/>
</linearGradient>
<linearGradient id="paint3_linear" x1="149.767" y1="-1.4388e-06" x2="27.6505" y2="181.008" gradientUnits="userSpaceOnUse">
<stop stop-color="#8C0FDD"/>
<stop offset="0.359116" stop-color="#A93FAD"/>
<stop offset="0.651464" stop-color="#CF776B"/>
<stop offset="0.996721" stop-color="#F3AF32"/>
</linearGradient>
<linearGradient id="paint4_linear" x1="149.767" y1="-1.4388e-06" x2="27.6505" y2="181.008" gradientUnits="userSpaceOnUse">
<stop stop-color="#8C0FDD"/>
<stop offset="0.359116" stop-color="#A93FAD"/>
<stop offset="0.651464" stop-color="#CF776B"/>
<stop offset="0.996721" stop-color="#F3AF32"/>
</linearGradient>
<linearGradient id="paint5_linear" x1="149.767" y1="-1.4388e-06" x2="27.6505" y2="181.008" gradientUnits="userSpaceOnUse">
<stop stop-color="#8C0FDD"/>
<stop offset="0.359116" stop-color="#A93FAD"/>
<stop offset="0.651464" stop-color="#CF776B"/>
<stop offset="0.996721" stop-color="#F3AF32"/>
</linearGradient>
<linearGradient id="paint6_linear" x1="149.767" y1="-1.4388e-06" x2="27.6505" y2="181.008" gradientUnits="userSpaceOnUse">
<stop stop-color="#8C0FDD"/>
<stop offset="0.359116" stop-color="#A93FAD"/>
<stop offset="0.651464" stop-color="#CF776B"/>
<stop offset="0.996721" stop-color="#F3AF32"/>
</linearGradient>
</defs>
</svg>
