<svg width="178" height="176" viewBox="0 0 178 176" fill="none" xmlns="http://www.w3.org/2000/svg">
<path fill-rule="evenodd" clip-rule="evenodd" d="M61.8017 6V22.9126H69.9518C71.6086 22.9126 72.9518 24.2558 72.9518 25.9126C72.9518 27.5695 71.6086 28.9126 69.9518 28.9126H67.8414V30.4513C67.8414 34.0034 66.4387 37.4136 63.9364 39.9307L56.7142 47.1956C55.3331 48.5848 54.5541 50.4727 54.5541 52.4449V68.6184C54.5541 71.2313 55.9171 73.6444 58.1311 74.9806L60.6334 76.4909V68.0927H66.6334V115.076C66.6334 115.99 66.9943 116.862 67.6311 117.503C68.9515 118.831 71.085 118.831 72.4054 117.503L73.403 116.499V74.5152H79.403V119.649C79.403 120.747 79.8366 121.796 80.6028 122.566L81.701 123.671C82.6844 124.66 84.2716 124.66 85.2551 123.671C85.73 123.193 86 122.542 86 121.858V73.3001H92V116.499L92.9976 117.503C94.318 118.831 96.4515 118.831 97.7719 117.503C98.4087 116.862 98.7696 115.99 98.7696 115.076V74.5152H104.77V102.439L105.565 103.239C106.616 104.296 108.312 104.296 109.363 103.239C109.87 102.729 110.159 102.033 110.159 101.304V46.5713C110.159 45.1153 109.733 43.6926 108.938 42.4801L106.668 39.0209C105.23 36.8286 104.464 34.2616 104.464 31.6382V28.9126H86.9957C85.3389 28.9126 83.9957 27.5695 83.9957 25.9126C83.9957 24.2558 85.3389 22.9126 86.9957 22.9126H110.159V6H61.8017ZM110.464 28.9123C113.631 28.8765 116.159 26.2874 116.159 23.1353V5.77729C116.159 2.60325 113.596 0 110.398 0H61.5627C58.3644 0 55.8017 2.60326 55.8017 5.77729V23.1353C55.8017 26.3094 58.3644 28.9126 61.5627 28.9126H61.8414V30.4513C61.8414 32.4235 61.0623 34.3114 59.6813 35.7006L52.4591 42.9654C49.9568 45.4825 48.5541 48.8927 48.5541 52.4449V68.6184C48.5541 71.3093 49.3571 73.8901 50.7975 76.0608C47.2309 76.1724 43.727 77.6125 41.0609 80.2944L28.7589 92.669C26.5155 94.9257 25.2583 97.9827 25.2583 101.167V109.485C25.2583 111.089 24.6247 112.623 23.5026 113.752L21.1922 116.076C19.002 114.871 16.1957 115.2 14.3424 117.065L1.68112 129.801C-0.560372 132.056 -0.560372 135.704 1.68111 137.959L4.86133 141.158C6.02945 142.333 7.92894 142.338 9.10395 141.17C10.279 140.002 10.2846 138.103 9.11644 136.927L6.08657 133.88L18.4223 121.471L52.1556 155.404L39.8199 167.812L18.696 146.564C17.5279 145.389 15.6284 145.383 14.4534 146.551C13.2783 147.719 13.2728 149.619 14.4409 150.794L35.7401 172.219C37.9913 174.483 41.6486 174.483 43.8998 172.219L56.5611 159.483C58.8026 157.228 58.8026 153.58 56.5611 151.325L56.4766 151.24C58.4074 149.373 60.8108 148.077 63.4243 147.492L65.6869 146.987C69.6283 146.106 73.2234 144.08 76.0271 141.165L87.1835 129.565C88.0247 129.157 88.813 128.603 89.5102 127.901C90.6468 126.758 91.4271 125.326 91.7823 123.78C95.1886 125.199 99.2591 124.517 102.027 121.733C103.785 119.964 104.77 117.57 104.77 115.076V109.604C107.783 110.588 111.226 109.876 113.618 107.47C115.247 105.831 116.159 103.613 116.159 101.304V84.9125L121.858 90.6457C123.026 91.8207 124.926 91.8263 126.101 90.6582C127.276 89.49 127.281 87.5906 126.113 86.4155L121.506 81.7816C124.584 80.2784 128.396 80.7868 130.986 83.3372L142.389 94.5678C144.992 97.1305 146.362 100.709 146.136 104.374L145.972 107.051C145.649 112.301 147.551 117.444 151.207 121.207L124.891 147.678C122.264 145.115 118.937 143.389 115.328 142.723L114.374 142.547C111.937 142.098 109.684 140.93 107.904 139.189L101.18 132.617C99.9954 131.458 98.096 131.48 96.9378 132.665C95.7796 133.849 95.8012 135.749 96.9859 136.907L103.71 143.48C106.34 146.051 109.673 147.781 113.286 148.448L114.24 148.624C116.656 149.069 118.889 150.22 120.661 151.934L119.368 153.234C117.127 155.489 117.127 159.137 119.368 161.392L132.202 174.302C134.453 176.566 138.111 176.566 140.362 174.302L176.319 138.132C178.56 135.877 178.56 132.229 176.319 129.974L163.485 117.065C161.271 114.838 157.699 114.801 155.439 116.953C153.01 114.411 151.743 110.954 151.96 107.419L152.125 104.742C152.457 99.351 150.443 94.0774 146.6 90.2928L135.196 79.0622C130.24 74.1817 122.668 73.6499 117.141 77.3908L116.159 76.4022V46.5713C116.159 43.9479 115.393 41.3809 113.955 39.1886L111.685 35.7294C110.889 34.5168 110.464 33.0942 110.464 31.6382V28.9123ZM79.1696 129.242C78.5539 128.879 77.9738 128.432 77.4458 127.901L76.3477 126.797C75.4074 125.851 74.6731 124.738 74.173 123.528C70.6633 125.268 66.2952 124.669 63.3759 121.733C61.6179 119.964 60.6334 117.57 60.6334 115.076V85.6068L55.2791 90.9928C54.1109 92.1679 52.2114 92.1734 51.0364 91.0053C49.8614 89.8372 49.8558 87.9377 51.0239 86.7627L54.8757 82.8882C51.7039 81.3494 47.861 81.9646 45.316 84.5246L33.014 96.8992C31.8919 98.028 31.2583 99.5627 31.2583 101.167V109.485C31.2583 112.669 30.0011 115.726 27.7577 117.982L25.586 120.167L52.2462 146.984C54.9781 144.322 58.3935 142.469 62.1153 141.637L64.378 141.131C67.166 140.508 69.7132 139.075 71.7025 137.006L79.1696 129.242ZM159.405 121.471L123.774 157.313L136.282 169.895L171.913 134.053L159.405 121.471Z" fill="url(#paint0_linear)"/>
<defs>
<linearGradient id="paint0_linear" x1="174.859" y1="2.57292" x2="4.91785" y2="175.238" gradientUnits="userSpaceOnUse">
<stop stop-color="#8C0FDD"/>
<stop offset="0.359116" stop-color="#A93FAD"/>
<stop offset="0.651464" stop-color="#CF776B"/>
<stop offset="0.996721" stop-color="#F3AF32"/>
</linearGradient>
</defs>
</svg>
