<svg width="31" height="27" viewBox="0 0 31 27" fill="none" xmlns="http://www.w3.org/2000/svg">
<path d="M16.1214 1.41422C16.9025 0.633168 18.1688 0.633168 18.9499 1.41422L29.5565 12.0208C30.3375 12.8019 30.3375 14.0682 29.5565 14.8492L28.8494 15.5564C28.0683 16.3374 26.802 16.3374 26.0209 15.5564L15.4143 4.94975C14.6333 4.1687 14.6333 2.90237 15.4143 2.12132L16.1214 1.41422Z" fill="#F3F2F2"/>
<path d="M0 13C0 11.8954 0.895431 11 2 11H23C24.1046 11 25 11.8954 25 13V14C25 15.1046 24.1046 16 23 16H2C0.89543 16 0 15.1046 0 14V13Z" fill="#F3F2F2"/>
<path d="M15.4142 25.4142C14.6332 24.6332 14.6332 23.3668 15.4142 22.5858L26.0208 11.9792C26.8019 11.1981 28.0682 11.1981 28.8492 11.9792L29.5563 12.6863C30.3374 13.4673 30.3374 14.7337 29.5563 15.5147L18.9497 26.1213C18.1687 26.9024 16.9024 26.9024 16.1213 26.1213L15.4142 25.4142Z" fill="#F3F2F2"/>
</svg>
