<svg width="34" height="29" viewBox="0 0 34 29" fill="none" xmlns="http://www.w3.org/2000/svg">
<path d="M0 2C0 0.89543 0.895431 0 2 0H32C33.1046 0 34 0.895431 34 2V3C34 4.10457 33.1046 5 32 5H2C0.89543 5 0 4.10457 0 3V2Z" fill="#F3F2F2"/>
<path d="M0 14C0 12.8954 0.895431 12 2 12H32C33.1046 12 34 12.8954 34 14V15C34 16.1046 33.1046 17 32 17H2C0.89543 17 0 16.1046 0 15V14Z" fill="#F3F2F2"/>
<path d="M0 26C0 24.8954 0.895431 24 2 24H32C33.1046 24 34 24.8954 34 26V27C34 28.1046 33.1046 29 32 29H2C0.89543 29 0 28.1046 0 27V26Z" fill="#F3F2F2"/>
</svg>
