<svg width="112" height="113" viewBox="0 0 112 113" fill="none" xmlns="http://www.w3.org/2000/svg">
<path fill-rule="evenodd" clip-rule="evenodd" d="M18.771 11.1758C18.771 5.00359 23.8134 0 30.0335 0H82.5922C88.8123 0 93.8548 5.00359 93.8548 11.1758V63.9506H100.737C106.958 63.9506 112 68.9541 112 75.1264V101.824C112 107.996 106.958 113 100.737 113H89.4749V110.516H100.737C105.575 110.516 109.497 106.625 109.497 101.824V75.1264C109.497 70.3257 105.575 66.4341 100.737 66.4341H75.1911L68.2011 59.4979V66.4341H63.8212C58.9833 66.4341 55.0615 70.3257 55.0615 75.1264V101.824C55.0615 106.625 58.9833 110.516 63.8212 110.516H76.3352V113H63.8212C57.6011 113 52.5587 107.996 52.5587 101.824V75.1264C52.5587 68.9541 57.6011 63.9506 63.8212 63.9506H65.6983V53.5021L76.2278 63.9506H91.352V18.0055H21.2737V34.8573C23.2849 34.3934 25.3796 34.1483 27.5307 34.1483C33.8073 34.1483 39.5963 36.2341 44.2276 39.7443H60.8438L52.4519 49.8432C54.126 53.3716 55.0615 57.3125 55.0615 61.467C55.0615 76.5547 42.7355 88.7857 27.5307 88.7857C12.3259 88.7857 0 76.5547 0 61.467C0 49.4166 7.86183 39.1914 18.771 35.5606V11.1758ZM21.2737 15.522H91.352V11.1758C91.352 6.3752 87.4301 2.48352 82.5922 2.48352H30.0335C25.1956 2.48352 21.2737 6.3752 21.2737 11.1758V15.522ZM25.6536 6.82967H30.6592V9.31319H25.6536V6.82967ZM35.0391 6.82967H39.419V9.31319H35.0391V6.82967ZM42.5475 6.82967H47.5531V9.31319H42.5475V6.82967ZM55.0615 6.82967H85.7207V9.31319H55.0615V6.82967ZM50.6816 26.6978H64.4469V29.1813H50.6816V26.6978ZM70.7039 26.6978H83.2179V29.1813H70.7039V26.6978ZM27.5307 36.6319C25.0438 36.6319 22.6438 36.9914 20.3793 37.6602C10.0401 40.7135 2.50279 50.2185 2.50279 61.467C2.50279 75.1831 13.7082 86.3022 27.5307 86.3022C41.3533 86.3022 52.5587 75.1831 52.5587 61.467C52.5587 57.4214 51.5847 53.605 49.858 50.2328L49.4867 49.5078L55.5361 42.2278H43.3645L43.0236 41.9608C38.7619 38.6231 33.3824 36.6319 27.5307 36.6319ZM75.7095 40.3571H64.4469V37.8736H75.7095V40.3571ZM83.2179 40.3571H79.4637V37.8736H83.2179V40.3571ZM71.9553 51.533H60.067V49.0494H71.9553V51.533ZM83.2179 51.533H78.2123V49.0494H83.2179V51.533ZM81.3408 110.516H85.7207V113H81.3408V110.516Z" fill="#1B1144"/>
<path d="M15.6027 56.0471C14.2483 56.0471 13.1995 56.554 12.4565 57.5677C11.7135 58.5738 11.342 59.9793 11.342 61.7841C11.342 65.5397 12.7622 67.4175 15.6027 67.4175C16.7947 67.4175 18.2381 67.1218 19.9331 66.5305V69.5257C18.54 70.1017 16.9843 70.3897 15.2661 70.3897C12.7971 70.3897 10.9086 69.6486 9.60056 68.1663C8.29254 66.6764 7.63853 64.5413 7.63853 61.7611C7.63853 60.01 7.95973 58.4778 8.60213 57.1645C9.24453 55.8436 10.1656 54.8336 11.3652 54.1347C12.5726 53.4281 13.9851 53.0749 15.6027 53.0749C17.2513 53.0749 18.9076 53.4704 20.5717 54.2614L19.4107 57.1645C18.776 56.865 18.1375 56.6039 17.4951 56.3812C16.8527 56.1584 16.2219 56.0471 15.6027 56.0471Z" fill="#1B1144"/>
<path d="M33.5745 65.4821C33.5745 67.0028 33.0211 68.2009 31.9143 69.0764C30.8152 69.952 29.2828 70.3897 27.3169 70.3897C25.5058 70.3897 23.9036 70.0518 22.5105 69.376V66.0581C23.656 66.565 24.6234 66.9222 25.4129 67.1295C26.2101 67.3369 26.9376 67.4406 27.5955 67.4406C28.385 67.4406 28.9887 67.2908 29.4066 66.9913C29.8323 66.6918 30.0451 66.2463 30.0451 65.6549C30.0451 65.3247 29.9523 65.0328 29.7665 64.7794C29.5807 64.5183 29.306 64.2687 28.9422 64.0306C28.5862 63.7925 27.8548 63.4123 26.748 62.8901C25.7109 62.4062 24.933 61.9416 24.4145 61.4961C23.8959 61.0507 23.4818 60.5323 23.1722 59.9409C22.8626 59.3495 22.7078 58.6583 22.7078 57.8673C22.7078 56.3773 23.2148 55.2061 24.2287 54.3536C25.2503 53.5011 26.659 53.0749 28.4546 53.0749C29.3369 53.0749 30.1767 53.1785 30.9739 53.3859C31.7788 53.5933 32.6186 53.8851 33.4932 54.2614L32.3322 57.0378C31.4267 56.6692 30.6759 56.4119 30.08 56.266C29.4917 56.12 28.9113 56.0471 28.3385 56.0471C27.6574 56.0471 27.135 56.2045 26.7712 56.5194C26.4074 56.8343 26.2256 57.2452 26.2256 57.7521C26.2256 58.0669 26.2991 58.3434 26.4461 58.5815C26.5932 58.8119 26.8254 59.0385 27.1427 59.2612C27.4678 59.4763 28.2302 59.8679 29.4298 60.4363C31.0165 61.1889 32.1039 61.9454 32.6921 62.7058C33.2803 63.4584 33.5745 64.3839 33.5745 65.4821Z" fill="#1B1144"/>
<path d="M46.6701 65.4821C46.6701 67.0028 46.1167 68.2009 45.01 69.0764C43.9109 69.952 42.3784 70.3897 40.4125 70.3897C38.6014 70.3897 36.9993 70.0518 35.6061 69.376V66.0581C36.7516 66.565 37.7191 66.9222 38.5086 67.1295C39.3058 67.3369 40.0333 67.4406 40.6912 67.4406C41.4806 67.4406 42.0843 67.2908 42.5023 66.9913C42.928 66.6918 43.1408 66.2463 43.1408 65.6549C43.1408 65.3247 43.0479 65.0328 42.8622 64.7794C42.6764 64.5183 42.4017 64.2687 42.0379 64.0306C41.6819 63.7925 40.9504 63.4123 39.8437 62.8901C38.8065 62.4062 38.0287 61.9416 37.5101 61.4961C36.9916 61.0507 36.5775 60.5323 36.2679 59.9409C35.9583 59.3495 35.8035 58.6583 35.8035 57.8673C35.8035 56.3773 36.3105 55.2061 37.3244 54.3536C38.346 53.5011 39.7547 53.0749 41.5503 53.0749C42.4326 53.0749 43.2724 53.1785 44.0696 53.3859C44.8745 53.5933 45.7143 53.8851 46.5889 54.2614L45.4279 57.0378C44.5223 56.6692 43.7716 56.4119 43.1756 56.266C42.5874 56.12 42.0069 56.0471 41.4342 56.0471C40.7531 56.0471 40.2307 56.2045 39.8669 56.5194C39.5031 56.8343 39.3212 57.2452 39.3212 57.7521C39.3212 58.0669 39.3948 58.3434 39.5418 58.5815C39.6889 58.8119 39.9211 59.0385 40.2384 59.2612C40.5635 59.4763 41.3258 59.8679 42.5255 60.4363C44.1121 61.1889 45.1996 61.9454 45.7878 62.7058C46.376 63.4584 46.6701 64.3839 46.6701 65.4821Z" fill="#1B1144"/>
<path d="M70.2311 94.9945H67.3989V89.2556H62.5698V94.9945H59.7285V81.6977H62.5698V86.9091H67.3989V81.6977H70.2311V94.9945Z" fill="#1B1144"/>
<path d="M77.4777 94.9945H74.6364V84.0442H70.9977V81.6977H81.1164V84.0442H77.4777V94.9945Z" fill="#1B1144"/>
<path d="M87.5381 94.9945L84.3118 84.5626H84.2294C84.3455 86.6848 84.4035 88.1006 84.4035 88.81V94.9945H81.8647V81.6977H85.7325L88.9038 91.8659H88.9588L92.3225 81.6977H96.1903V94.9945H93.5415V88.7008C93.5415 88.4037 93.5446 88.0611 93.5507 87.6731C93.5629 87.2851 93.6057 86.2543 93.679 84.5808H93.5965L90.1411 94.9945H87.5381Z" fill="#1B1144"/>
<path d="M98.2584 94.9945V81.6977H101.1V92.6662H106.535V94.9945H98.2584Z" fill="#1B1144"/>
</svg>
