<svg width="109" height="111" viewBox="0 0 109 111" fill="none" xmlns="http://www.w3.org/2000/svg">
<path fill-rule="evenodd" clip-rule="evenodd" d="M28.6514 18.7079C28.6514 6.30938 38.6905 0 51.0743 0H56.68C69.0638 0 79.1029 6.30938 79.1029 18.7079V33.0506H90.3143C102.698 33.0506 109 43.1015 109 55.5V56.7472C109 69.1457 102.698 79.1966 90.3143 79.1966H56.68V83.5618H80.3486V92.2921C80.3486 104.691 70.3095 111 57.9257 111H51.0743C38.6905 111 28.6514 104.691 28.6514 92.2921V79.1966H18.6857C6.30191 79.1966 0 69.1457 0 56.7472V55.5C0 43.1015 6.30191 33.0506 18.6857 33.0506H52.9429V28.0618H28.6514V18.7079ZM28.6514 76.7022V66.1011C28.6514 59.2131 34.2287 53.6292 41.1086 53.6292H66.6457C72.1496 53.6292 76.6114 49.1621 76.6114 43.6517V18.7079C76.6114 7.68699 67.6878 2.49438 56.68 2.49438H51.0743C40.0665 2.49438 31.1429 7.68699 31.1429 18.7079V25.5674H55.4343V35.5449H18.6857C7.67789 35.5449 2.49143 44.4791 2.49143 55.5V56.7472C2.49143 67.7681 7.67789 76.7022 18.6857 76.7022H28.6514ZM79.1029 35.5449V43.6517C79.1029 50.5397 73.5256 56.1236 66.6457 56.1236H41.1086C35.6047 56.1236 31.1429 60.5907 31.1429 66.1011V92.2921C31.1429 103.313 40.0665 108.506 51.0743 108.506H57.9257C68.9335 108.506 77.8571 103.313 77.8571 92.2921V86.0562H54.1886V76.7022H90.3143C101.322 76.7022 106.509 67.7681 106.509 56.7472V55.5C106.509 44.4791 101.322 35.5449 90.3143 35.5449H79.1029Z" fill="#171043"/>
<path d="M46.7143 16.2135C46.7143 18.2799 45.0411 19.9551 42.9771 19.9551C40.9132 19.9551 39.24 18.2799 39.24 16.2135C39.24 14.1471 40.9132 12.4719 42.9771 12.4719C45.0411 12.4719 46.7143 14.1471 46.7143 16.2135Z" fill="#171043"/>
<path d="M69.1371 93.5393C69.1371 95.6057 67.464 97.2809 65.4 97.2809C63.336 97.2809 61.6629 95.6057 61.6629 93.5393C61.6629 91.4729 63.336 89.7977 65.4 89.7977C67.464 89.7977 69.1371 91.4729 69.1371 93.5393Z" fill="#171043"/>
</svg>
