<svg width="59" height="116" viewBox="0 0 59 116" fill="none" xmlns="http://www.w3.org/2000/svg">
<path d="M1 102.514L13.5275 115H51.1099M1 102.514V93.1492H12.2747M1 102.514H38.5824M38.5824 102.514L51.1099 115M38.5824 102.514V93.1492M51.1099 115H58V86.2818H51.1099M51.1099 115V105.635M51.1099 86.2818H12.2747V93.1492M51.1099 86.2818V105.635M51.1099 105.635L38.5824 93.1492M38.5824 93.1492H12.2747M22.9231 86.2818C22.9231 86.2818 22.9231 78.1657 30.4396 78.1657C37.956 78.1657 37.3297 86.2818 37.3297 86.2818M11.6484 80.663V76.9171M51.1099 80.663V76.9171M51.1099 73.1713V69.4254M31.0659 73.1713V69.4254M11.6484 73.1713V69.4254M11.6484 64.4309V60.6851M22.9231 55.0663L11.6484 60.6851M22.9231 55.0663H31.6923M22.9231 55.0663V48.1989M11.6484 60.6851V51.9448L21.6703 41.9558M31.6923 55.0663V48.1989M31.6923 55.0663V62.558M31.6923 55.0663H40.4615M31.6923 48.1989H22.9231M31.6923 48.1989H40.4615M22.9231 48.1989V41.9558H21.6703M31.6923 42.5801V38.2099M21.6703 41.9558C21.6703 41.9558 19.1648 32.5912 19.1648 25.0994C19.1648 17.6077 20.887 14.4862 22.9231 10.7403M22.9231 10.7403C26.3886 5.41331 31.6923 2 31.6923 2C31.6923 2 36.996 5.41331 40.4615 10.7403M22.9231 10.7403H40.4615M51.7363 64.4309V60.6851M40.4615 55.0663L51.7363 60.6851M40.4615 55.0663V48.1989M51.7363 60.6851V51.9448L41.7143 41.9558M40.4615 48.1989V41.9558H41.7143M41.7143 41.9558C41.7143 41.9558 44.2198 32.5912 44.2198 25.0994C44.2198 17.6077 42.4976 14.4862 40.4615 10.7403M31.6923 19.4807C24.1758 19.4807 24.1758 30.7182 31.6923 30.7182C39.2088 30.7182 39.2088 19.4807 31.6923 19.4807Z" stroke="#1B1144" stroke-width="2"/>
</svg>
