<svg width="86" height="107" viewBox="0 0 86 107" fill="none" xmlns="http://www.w3.org/2000/svg">
<path d="M26.4746 29.7389V36.5672C26.4746 39.0991 25.4821 40.6719 23.4971 41.2857C25.4821 41.925 26.4746 43.4978 26.4746 46.0041V53.6764C26.4746 54.8528 26.7665 55.7095 27.3504 56.2466C27.9634 56.7836 29.0727 57.0522 30.6782 57.0522C31.262 57.0522 31.554 57.4997 31.554 58.3948C31.554 59.2899 31.262 59.7375 30.6782 59.7375C28.051 59.7375 26.1097 59.2643 24.8545 58.3181C23.5992 57.3974 22.9716 55.8502 22.9716 53.6764V46.0041C22.9716 44.8788 22.8257 44.086 22.5337 43.6257C22.2418 43.1398 21.6872 42.8073 20.8698 42.6283L20.213 42.4749C19.6292 42.3214 19.3373 41.925 19.3373 41.2857C19.3373 40.6463 19.6292 40.2499 20.213 40.0965L20.8698 39.943C21.6872 39.764 22.2418 39.4443 22.5337 38.984C22.8257 38.4981 22.9716 37.6925 22.9716 36.5672V29.7389C22.9716 27.5651 23.5992 26.0179 24.8545 25.0972C26.1097 24.1509 28.051 23.6778 30.6782 23.6778C31.262 23.6778 31.554 24.1254 31.554 25.0205C31.554 25.9156 31.262 26.3631 30.6782 26.3631C29.0727 26.3631 27.9634 26.6316 27.3504 27.1687C26.7665 27.7057 26.4746 28.5625 26.4746 29.7389Z" fill="#1B1144"/>
<path d="M43.9378 49.6101V53.8682C43.9378 54.6866 43.675 55.7479 43.1496 57.0522L42.7555 57.9729C42.6679 58.203 42.4344 58.3181 42.0549 58.3181C41.7046 58.3181 41.3105 58.2158 40.8726 58.0112C40.464 57.8066 40.2596 57.6148 40.2596 57.4358C40.2596 57.3335 40.2888 57.2184 40.3472 57.0905L41.004 55.5561C41.1792 55.0958 41.2667 54.7505 41.2667 54.5203C41.2667 54.2902 41.0916 53.9449 40.7413 53.4846C40.391 53.0498 40.2158 52.679 40.2158 52.3721V49.6101C40.2158 48.9963 40.8288 48.6894 42.0549 48.6894C43.3101 48.6894 43.9378 48.9963 43.9378 49.6101ZM43.9378 34.2655V37.5263C43.9378 38.14 43.3101 38.4469 42.0549 38.4469C40.8288 38.4469 40.2158 38.14 40.2158 37.5263V34.2655C40.2158 33.6518 40.8288 33.3449 42.0549 33.3449C43.3101 33.3449 43.9378 33.6518 43.9378 34.2655Z" fill="#1B1144"/>
<path d="M57.0506 36.9126V30.0842C57.0506 28.9078 56.7441 28.0511 56.131 27.514C55.5472 26.977 54.4525 26.7084 52.847 26.7084C52.2631 26.7084 51.9712 26.2609 51.9712 25.3658C51.9712 24.4707 52.2631 24.0231 52.847 24.0231C55.4742 24.0231 57.4155 24.4963 58.6707 25.4425C59.926 26.3632 60.5536 27.9104 60.5536 30.0842V36.9126C60.5536 38.0378 60.6995 38.8434 60.9915 39.3293C61.2834 39.7897 61.838 40.1093 62.6554 40.2884L63.3122 40.4418C63.896 40.5952 64.1879 40.9916 64.1879 41.631C64.1879 42.2704 63.896 42.6668 63.3122 42.8202L62.6554 42.9737C61.838 43.1527 61.2834 43.4851 60.9915 43.9711C60.6995 44.4314 60.5536 45.2242 60.5536 46.3495V54.0217C60.5536 56.1955 59.926 57.7428 58.6707 58.6634C57.4155 59.6097 55.4742 60.0828 52.847 60.0828C52.2631 60.0828 51.9712 59.6353 51.9712 58.7402C51.9712 57.8451 52.2631 57.3975 52.847 57.3975C54.4525 57.3975 55.5472 57.129 56.131 56.5919C56.7441 56.0549 57.0506 55.1981 57.0506 54.0217V46.3495C57.0506 43.8432 58.0431 42.2704 60.0281 41.631C58.0431 41.0428 57.0506 39.47 57.0506 36.9126Z" fill="#1B1144"/>
<path fill-rule="evenodd" clip-rule="evenodd" d="M0 0H64.2284L86 21.247V107H0V0ZM2.47482 2.48837V72.1628H83.5252V23.6395H59.3957V2.48837H2.47482ZM61.8705 2.48837V21.1512H82.3485L63.2248 2.48837H61.8705ZM83.5252 74.6512H2.47482V104.512H83.5252V74.6512Z" fill="#1B1144"/>
<path d="M30.2276 101.078C29.0595 101.078 27.9805 100.799 26.9905 100.242C26.0204 99.6841 25.2483 98.9177 24.6741 97.9423C24.4959 97.6636 24.4068 97.3948 24.4068 97.136C24.4068 96.7578 24.5553 96.4393 24.8523 96.1805C25.1493 95.9018 25.4562 95.7625 25.7729 95.7625C26.2085 95.7625 26.654 96.0113 27.1093 96.509C27.8815 97.6636 28.9209 98.2409 30.2276 98.2409C31.3165 98.2409 32.2372 97.8726 32.9895 97.136C33.7418 96.3995 34.118 95.4937 34.118 94.4187V81.31C34.118 80.9119 34.2665 80.5734 34.5635 80.2947C34.8605 80.016 35.2069 79.8767 35.6029 79.8767C36.0385 79.8767 36.385 80.016 36.6423 80.2947C36.9195 80.5535 37.0581 80.8919 37.0581 81.31V94.4187C37.0581 95.6331 36.7611 96.7479 36.1672 97.7631C35.5732 98.7784 34.7516 99.5846 33.7023 100.182C32.6727 100.779 31.5145 101.078 30.2276 101.078Z" fill="#1B1144"/>
<path d="M48.2711 101.078C46.8258 101.078 45.5488 100.879 44.4401 100.48C43.3314 100.062 42.2722 99.3955 41.2624 98.4798C40.8467 98.1214 40.6388 97.7133 40.6388 97.2555C40.6388 96.8972 40.7774 96.5787 41.0546 96.3C41.3317 96.0014 41.6584 95.852 42.0346 95.852C42.3712 95.852 42.6582 95.9615 42.8958 96.1805C43.6878 96.9171 44.4995 97.4645 45.331 97.8228C46.1824 98.1613 47.1426 98.3305 48.2117 98.3305C49.459 98.3305 50.5084 98.0418 51.3597 97.4645C52.2308 96.8872 52.6664 96.1606 52.6664 95.2847C52.6466 94.2495 52.211 93.4533 51.3597 92.8959C50.5282 92.3186 49.2512 91.8408 47.5287 91.4626C45.4894 91.0445 43.9154 90.3577 42.8067 89.4022C41.7178 88.4467 41.1733 87.1228 41.1733 85.4307C41.1733 84.2562 41.4802 83.231 42.094 82.3551C42.7077 81.4593 43.5591 80.7725 44.648 80.2947C45.7369 79.817 46.9644 79.5781 48.3305 79.5781C49.558 79.5781 50.7163 79.7772 51.8052 80.1753C52.8941 80.5734 53.7751 81.101 54.4483 81.7579C54.9036 82.156 55.1313 82.584 55.1313 83.0419C55.1313 83.4002 54.9927 83.7187 54.7156 83.9974C54.4582 84.2761 54.1414 84.4155 53.7652 84.4155C53.488 84.4155 53.2604 84.3359 53.0822 84.1766C52.5674 83.659 51.8547 83.2211 50.9439 82.8627C50.0332 82.5044 49.1621 82.3253 48.3305 82.3253C47.004 82.3253 45.9448 82.604 45.1529 83.1613C44.3807 83.6988 43.9946 84.4155 43.9946 85.3113C43.9946 86.2867 44.3807 87.0333 45.1529 87.5508C45.9448 88.0684 47.1129 88.5064 48.6572 88.8647C50.2015 89.2031 51.4587 89.6012 52.4288 90.0591C53.4188 90.517 54.181 91.154 54.7156 91.9702C55.2501 92.7864 55.5174 93.8514 55.5174 95.1653C55.5174 96.3199 55.1907 97.3451 54.5374 98.2409C53.9038 99.1367 53.0327 99.8334 51.924 100.331C50.8152 100.829 49.5976 101.078 48.2711 101.078Z" fill="#1B1144"/>
</svg>
