<svg width="1920" height="1131" viewBox="0 0 1920 1131" fill="none" xmlns="http://www.w3.org/2000/svg">
<mask id="mask0" mask-type="alpha" maskUnits="userSpaceOnUse" x="0" y="0" width="1920" height="1131">
<path d="M0.0245972 31.9231C550.893 -85.7236 763.465 159.668 1097.72 159.668C1431.98 159.668 1646.84 -23.6663 1920 96V1019C1859.41 1057.88 1797.04 1086.2 1650.61 1063.98C1504.18 1041.77 1492.73 970.325 1348.67 959.968C1204.61 949.611 848.797 1121.54 632.186 1129.62C415.575 1137.7 161.599 1110.94 0.0245972 1031.67V31.9231Z" fill="black"/>
</mask>
<g mask="url(#mask0)">
<rect y="-31" width="1920" height="1167" fill="#1A1746"/>
<path d="M510.126 735.803C882.225 699.238 1256.32 907.797 1496.39 898.656C1736.45 889.514 1920 727 1920 727V1158H34C40.5017 1063.88 138.028 772.369 510.126 735.803Z" fill="#2A1342"/>
<path d="M510.126 735.803C882.225 699.238 1256.32 907.797 1496.39 898.656C1736.45 889.514 1920 727 1920 727V1158H34C40.5017 1063.88 138.028 772.369 510.126 735.803Z" fill="url(#paint0_radial)"/>
<path d="M510.126 735.803C882.225 699.238 1256.32 907.797 1496.39 898.656C1736.45 889.514 1920 727 1920 727V1158H34C40.5017 1063.88 138.028 772.369 510.126 735.803Z" fill="url(#paint1_radial)"/>
<path d="M510.126 735.803C882.225 699.238 1256.32 907.797 1496.39 898.656C1736.45 889.514 1920 727 1920 727V1158H34C40.5017 1063.88 138.028 772.369 510.126 735.803Z" fill="url(#paint2_radial)"/>
<path fill-rule="evenodd" clip-rule="evenodd" d="M219 1119L219 312.517L220 312.517L220 1119L219 1119Z" fill="white" fill-opacity="0.07"/>
<path fill-rule="evenodd" clip-rule="evenodd" d="M533 1119L533 157.599L534 157.599L534 1119L533 1119Z" fill="white" fill-opacity="0.07"/>
<path fill-rule="evenodd" clip-rule="evenodd" d="M608 1119L608 117.731L609 117.731L609 1119L608 1119Z" fill="white" fill-opacity="0.07"/>
<path fill-rule="evenodd" clip-rule="evenodd" d="M755 1119L755 81.2798L756 81.2798L756 1119L755 1119Z" fill="white" fill-opacity="0.07"/>
<path fill-rule="evenodd" clip-rule="evenodd" d="M1107 1119L1107 86.9751L1108 86.9751L1108 1119L1107 1119Z" fill="white" fill-opacity="0.07"/>
<path fill-rule="evenodd" clip-rule="evenodd" d="M1225 1119L1225 208.859L1226 208.859L1226 1119L1225 1119Z" fill="white" fill-opacity="0.07"/>
<path fill-rule="evenodd" clip-rule="evenodd" d="M1467 1119L1467 162.156L1468 162.156L1468 1119L1467 1119Z" fill="white" fill-opacity="0.07"/>
<path fill-rule="evenodd" clip-rule="evenodd" d="M1434 1119L1434 162.156L1435 162.156L1435 1119L1434 1119Z" fill="white" fill-opacity="0.07"/>
<g opacity="0.08">
<path d="M1295.35 495H1350.65C1493.33 495 1609 366.953 1609 209C1609 51.0466 1493.33 -77 1350.65 -77H1295.35C1152.67 -77 1037 51.0466 1037 209C1037 366.953 1152.67 495 1295.35 495Z" fill="#1D164A"/>
<path d="M1295.35 495H1350.65C1493.33 495 1609 366.953 1609 209C1609 51.0466 1493.33 -77 1350.65 -77H1295.35C1152.67 -77 1037 51.0466 1037 209C1037 366.953 1152.67 495 1295.35 495Z" fill="url(#paint3_linear)"/>
</g>
<rect y="-24.4907" width="1920" height="479" fill="url(#paint4_linear)"/>
<rect y="-24.4907" width="1920" height="1137" fill="url(#paint5_radial)"/>
<rect y="-24.4907" width="1920" height="1137" fill="url(#paint6_radial)"/>
</g>
<defs>
<radialGradient id="paint0_radial" cx="0" cy="0" r="1" gradientUnits="userSpaceOnUse" gradientTransform="translate(826.21 573.29) rotate(133.694) scale(808.687 805.922)">
<stop stop-color="#7A2C81" stop-opacity="0.39"/>
<stop offset="0.901075" stop-color="#7A2C81" stop-opacity="0"/>
</radialGradient>
<radialGradient id="paint1_radial" cx="0" cy="0" r="1" gradientUnits="userSpaceOnUse" gradientTransform="translate(1473.38 539.771) rotate(46.6325) scale(769.855 921.969)">
<stop offset="0.629834" stop-color="#20164A" stop-opacity="0.89"/>
<stop offset="1" stop-color="#1F1649" stop-opacity="0"/>
</radialGradient>
<radialGradient id="paint2_radial" cx="0" cy="0" r="1" gradientUnits="userSpaceOnUse" gradientTransform="translate(505.125 720.568) rotate(90.5568) scale(205.86 326.794)">
<stop stop-color="#421056"/>
<stop offset="1" stop-color="#421056" stop-opacity="0"/>
</radialGradient>
<linearGradient id="paint3_linear" x1="1511" y1="29" x2="1067.92" y2="347.147" gradientUnits="userSpaceOnUse">
<stop offset="0.18425" stop-color="#892DFF"/>
<stop offset="0.591264" stop-color="#DB77B5"/>
<stop offset="1" stop-color="#DEAD55"/>
</linearGradient>
<linearGradient id="paint4_linear" x1="960" y1="-24.4907" x2="960" y2="454.509" gradientUnits="userSpaceOnUse">
<stop stop-color="#0F0E2D" stop-opacity="0.79"/>
<stop offset="1" stop-color="#0F0E2D" stop-opacity="0"/>
</linearGradient>
<radialGradient id="paint5_radial" cx="0" cy="0" r="1" gradientUnits="userSpaceOnUse" gradientTransform="translate(960 544.009) scale(979.5 832.261)">
<stop offset="0.403315" stop-color="#131035" stop-opacity="0"/>
<stop offset="0.756906" stop-color="#131035" stop-opacity="0.5"/>
<stop offset="1" stop-color="#131035"/>
</radialGradient>
<radialGradient id="paint6_radial" cx="0" cy="0" r="1" gradientUnits="userSpaceOnUse" gradientTransform="translate(348.5 786.509) rotate(-27.1482) scale(856.906)">
<stop stop-color="#2A03FF" stop-opacity="0.38"/>
<stop offset="0.276243" stop-color="#2A03FF" stop-opacity="0.22"/>
<stop offset="0.668508" stop-color="#2A03FF" stop-opacity="0.05"/>
<stop offset="1" stop-color="#2A03FF" stop-opacity="0"/>
</radialGradient>
</defs>
</svg>
