<svg width="1411" height="1361" viewBox="0 0 1411 1361" fill="none" xmlns="http://www.w3.org/2000/svg">
<path d="M1410.5 680.5C1410.5 1056.04 1094.88 1360.5 705.5 1360.5C316.122 1360.5 0.5 1056.04 0.5 680.5C0.5 304.963 316.122 0.5 705.5 0.5C1094.88 0.5 1410.5 304.963 1410.5 680.5Z" stroke="#B7B7B7" stroke-opacity="0.3"/>
<path d="M1355.5 672.5C1355.5 1002.75 1077.93 1270.5 735.5 1270.5C393.066 1270.5 115.5 1002.75 115.5 672.5C115.5 342.251 393.066 74.5 735.5 74.5C1077.93 74.5 1355.5 342.251 1355.5 672.5Z" stroke="#B7B7B7" stroke-opacity="0.3"/>
<path d="M1303.5 691C1303.5 966.85 1071.82 1190.5 786 1190.5C500.176 1190.5 268.5 966.85 268.5 691C268.5 415.15 500.176 191.5 786 191.5C1071.82 191.5 1303.5 415.15 1303.5 691Z" stroke="#B7B7B7" stroke-opacity="0.3"/>
<path d="M1286.5 727.5C1286.5 959.443 1091.76 1147.5 851.5 1147.5C611.239 1147.5 416.5 959.443 416.5 727.5C416.5 495.557 611.239 307.5 851.5 307.5C1091.76 307.5 1286.5 495.557 1286.5 727.5Z" stroke="#B7B7B7" stroke-opacity="0.3"/>
<path d="M1277.5 758C1277.5 943.275 1121.94 1093.5 930 1093.5C738.064 1093.5 582.5 943.275 582.5 758C582.5 572.725 738.064 422.5 930 422.5C1121.94 422.5 1277.5 572.725 1277.5 758Z" stroke="#B7B7B7" stroke-opacity="0.3"/>
<path d="M1269.5 758C1269.5 929.468 1125.58 1068.5 948 1068.5C770.424 1068.5 626.5 929.468 626.5 758C626.5 586.532 770.424 447.5 948 447.5C1125.58 447.5 1269.5 586.532 1269.5 758Z" stroke="#B7B7B7" stroke-opacity="0.3"/>
<path d="M1264.5 758.5C1264.5 918.094 1130.43 1047.5 965 1047.5C799.574 1047.5 665.5 918.094 665.5 758.5C665.5 598.906 799.574 469.5 965 469.5C1130.43 469.5 1264.5 598.906 1264.5 758.5Z" stroke="#B7B7B7" stroke-opacity="0.3"/>
<path d="M1261.5 758.5C1261.5 868.389 1169.29 957.5 1055.5 957.5C941.713 957.5 849.5 868.389 849.5 758.5C849.5 648.611 941.713 559.5 1055.5 559.5C1169.29 559.5 1261.5 648.611 1261.5 758.5Z" stroke="#B7B7B7" stroke-opacity="0.3"/>
<path d="M1238.5 758C1238.5 837.789 1171.58 902.5 1089 902.5C1006.42 902.5 939.5 837.789 939.5 758C939.5 678.211 1006.42 613.5 1089 613.5C1171.58 613.5 1238.5 678.211 1238.5 758Z" stroke="#B7B7B7" stroke-opacity="0.3"/>
</svg>
