<svg width="96" height="112" viewBox="0 0 96 112" fill="none" xmlns="http://www.w3.org/2000/svg">
<path fill-rule="evenodd" clip-rule="evenodd" d="M0 8.75978C0 3.92189 3.88212 0 8.67097 0H96V96.9832H89.0808L89.0186 97.0461C85.6324 100.467 85.6324 106.013 89.0186 109.434L89.0808 109.497H95.3806V112H8.67097C3.88212 112 0 108.078 0 103.24V8.75978ZM8.67097 2.50279C5.25037 2.50279 2.47742 5.30414 2.47742 8.75978V81.3408L2.4774 81.3463L2.3393 97.2555C3.92109 95.5483 6.17237 94.4804 8.67097 94.4804H15.4839V85.7207H17.9613V94.4804H93.5226V2.50279H17.9613V81.3408H15.4839V2.50279H8.67097ZM1.23871 101.215V103.24C1.23871 100.059 3.19759 97.339 5.96344 96.2456C4.39072 96.8673 3.07859 98.0149 2.23897 99.4754L1.23871 101.215ZM88.5677 95.7318H88.4612L87.5932 96.7629C86.4167 98.1604 85.6814 99.8074 85.3873 101.517C85.7248 99.5554 86.6433 97.676 88.1427 96.1613L88.5677 95.7318ZM8.67097 96.9832C5.25037 96.9832 2.47742 99.7846 2.47742 103.24C2.47742 106.696 5.25037 109.497 8.67097 109.497H85.8778C83.3761 105.722 83.3761 100.758 85.8778 96.9832H8.67097ZM85.277 104.104C85.4486 106.117 86.2206 108.087 87.5932 109.718L88.4612 110.749H88.5677L88.1427 110.319C86.4255 108.584 85.4703 106.371 85.277 104.104ZM7.43226 101.989H12.3871V104.492H7.43226V101.989ZM14.8645 101.989H78.6581V104.492H14.8645V101.989Z" fill="#1B1144"/>
<path fill-rule="evenodd" clip-rule="evenodd" d="M23.5355 36.9162H89.8064V68.8268H23.5355V36.9162ZM26.0129 39.419V66.324H87.329V39.419H26.0129ZM87.329 75.0838H26.0129V72.581H87.329V75.0838ZM26.0129 80.0894H87.329V82.5922H26.0129V80.0894ZM79.8968 90.1006H26.0129V87.5978H79.8968V90.1006ZM87.329 90.1006H84.2323V87.5978H87.329V90.1006Z" fill="#1B1144"/>
<path d="M43.6258 32.5363L40.7637 25.1489H31.5484L28.7177 32.5363H26.0129L35.1024 9.21439H37.3512L46.3935 32.5363H43.6258ZM39.9302 22.7182L37.2569 15.5215C36.9109 14.6106 36.5544 13.4932 36.1875 12.1693C35.9569 13.1861 35.6266 14.3035 35.1968 15.5215L32.4919 22.7182H39.9302Z" fill="#1B1144"/>
<path d="M49.5544 9.30971H56.0492C59.1 9.30971 61.3069 9.77043 62.6698 10.6919C64.0327 11.6133 64.7141 13.0696 64.7141 15.0608C64.7141 16.4376 64.3315 17.5762 63.5661 18.4764C62.8113 19.3661 61.7052 19.9433 60.248 20.2081V20.367C63.7391 20.9707 65.4847 22.8241 65.4847 25.9274C65.4847 28.0033 64.7875 29.6237 63.3931 30.7888C62.0093 31.9538 60.0698 32.5363 57.5746 32.5363H49.5544V9.30971ZM52.2278 19.2549H56.6311C58.5181 19.2549 59.8758 18.9583 60.704 18.3652C61.5323 17.7615 61.9464 16.7501 61.9464 15.3308C61.9464 14.0281 61.4851 13.0908 60.5625 12.5189C59.6399 11.9363 58.1722 11.6451 56.1593 11.6451H52.2278V19.2549ZM52.2278 21.5426V30.2327H57.0242C58.8798 30.2327 60.2742 29.8726 61.2073 29.1524C62.1508 28.4216 62.6226 27.2831 62.6226 25.7367C62.6226 24.2963 62.1403 23.2372 61.1758 22.5594C60.2218 21.8815 58.7645 21.5426 56.804 21.5426H52.2278Z" fill="#1B1144"/>
<path d="M80.2827 11.3909C77.7561 11.3909 75.7589 12.2435 74.2911 13.9487C72.8339 15.6433 72.1052 17.9681 72.1052 20.923C72.1052 23.9627 72.8077 26.314 74.2125 27.9768C75.6278 29.629 77.6407 30.4551 80.2512 30.4551C81.8552 30.4551 83.6847 30.1639 85.7395 29.5814V31.9485C84.146 32.5522 82.1802 32.854 79.8423 32.854C76.456 32.854 73.8403 31.8161 71.9952 29.7402C70.1605 27.6643 69.2431 24.7147 69.2431 20.8912C69.2431 18.4976 69.6835 16.4005 70.5641 14.6C71.4552 12.7995 72.7343 11.4121 74.4012 10.4377C76.0786 9.46328 78.0496 8.97608 80.3141 8.97608C82.7254 8.97608 84.8327 9.42091 86.6359 10.3106L85.5036 12.6301C83.7633 11.8039 82.023 11.3909 80.2827 11.3909Z" fill="#1B1144"/>
</svg>
