<svg width="109" height="111" viewBox="0 0 109 111" fill="none" xmlns="http://www.w3.org/2000/svg">
<path d="M47.9298 55.5V54.5H46.9298V55.5H47.9298ZM47.9298 70.5345H46.9298V71.5345H47.9298V70.5345ZM62.9474 70.5345V71.5345H63.9474V70.5345H62.9474ZM62.9474 55.5H63.9474V54.5H62.9474V55.5ZM59.193 66.1494L58.4855 66.8561L59.193 67.5644L59.9005 66.8561L59.193 66.1494ZM48.5556 32.9483V31.9483H47.5556V32.9483H48.5556ZM48.5556 47.9828H47.5556V48.9828H48.5556V47.9828ZM63.5731 47.9828V48.9828H64.5731V47.9828H63.5731ZM63.5731 32.9483H64.5731V31.9483H63.5731V32.9483ZM59.8187 43.5977L59.1112 44.3044L59.8187 45.0127L60.5262 44.3044L59.8187 43.5977ZM48.5556 10.3966V9.39655H47.5556V10.3966H48.5556ZM48.5556 25.431H47.5556V26.431H48.5556V25.431ZM63.5731 25.431V26.431H64.5731V25.431H63.5731ZM63.5731 10.3966H64.5731V9.39655H63.5731V10.3966ZM59.8187 21.046L59.1112 21.7527L59.8187 22.461L60.5262 21.7527L59.8187 21.046ZM36.6667 1V0H35.6667V1H36.6667ZM84.848 1L85.5555 0.293292L85.2625 0H84.848V1ZM100.491 16.6609H101.491V16.247L101.199 15.9542L100.491 16.6609ZM100.491 81.1839V82.1839H101.491V81.1839H100.491ZM36.6667 81.1839H35.6667V82.1839H36.6667V81.1839ZM82.9708 19.1667H81.9708V20.1667H82.9708V19.1667ZM11.374 52.7927L10.7939 53.6073L11.374 52.7927ZM24.4155 52.7927L24.9955 53.6073L24.4155 52.7927ZM21.645 43.0042V44.0042H22.2774L22.5484 43.4329L21.645 43.0042ZM14.1445 43.0042L13.241 43.4329L13.5121 44.0042H14.1445V43.0042ZM11.374 79.1031L10.7939 79.9177L11.374 79.1031ZM24.4155 79.1031L24.9955 79.9177L24.4155 79.1031ZM21.645 69.3146V70.3146H22.2774L22.5484 69.7433L21.645 69.3146ZM14.1445 69.3146L13.241 69.7433L13.5121 70.3146H14.1445V69.3146ZM71.0819 71.5345H92.9825V69.5345H71.0819V71.5345ZM71.0819 64.0172H92.9825V62.0172H71.0819V64.0172ZM71.0819 48.9828H92.9825V46.9828H71.0819V48.9828ZM71.0819 41.4655H92.9825V39.4655H71.0819V41.4655ZM71.0819 26.431H92.9825V24.431H71.0819V26.431ZM71.0819 18.9138H77.3392V16.9138H71.0819V18.9138ZM46.9298 55.5V70.5345H48.9298V55.5H46.9298ZM47.9298 71.5345H62.9474V69.5345H47.9298V71.5345ZM63.9474 70.5345V62.3908H61.9474V70.5345H63.9474ZM63.9474 62.3908V55.5H61.9474V62.3908H63.9474ZM62.9474 54.5H47.9298V56.5H62.9474V54.5ZM59.9005 66.8561L63.6549 63.0975L62.2399 61.6841L58.4855 65.4427L59.9005 66.8561ZM63.6549 63.0975L69.2865 57.4596L67.8714 56.0462L62.2399 61.6841L63.6549 63.0975ZM53.4796 61.8446L58.4855 66.8561L59.9005 65.4427L54.8946 60.4312L53.4796 61.8446ZM47.5556 32.9483V47.9828H49.5556V32.9483H47.5556ZM48.5556 48.9828H63.5731V46.9828H48.5556V48.9828ZM64.5731 47.9828V39.8391H62.5731V47.9828H64.5731ZM64.5731 39.8391V32.9483H62.5731V39.8391H64.5731ZM63.5731 31.9483H48.5556V33.9483H63.5731V31.9483ZM60.5262 44.3044L64.2806 40.5458L62.8656 39.1324L59.1112 42.891L60.5262 44.3044ZM64.2806 40.5458L69.9122 34.9079L68.4972 33.4944L62.8656 39.1324L64.2806 40.5458ZM54.1054 39.2929L59.1112 44.3044L60.5262 42.891L55.5204 37.8795L54.1054 39.2929ZM47.5556 10.3966V25.431H49.5556V10.3966H47.5556ZM48.5556 26.431H63.5731V24.431H48.5556V26.431ZM64.5731 25.431V17.2874H62.5731V25.431H64.5731ZM64.5731 17.2874V10.3966H62.5731V17.2874H64.5731ZM63.5731 9.39655H48.5556V11.3966H63.5731V9.39655ZM60.5262 21.7527L64.2806 17.9941L62.8656 16.5806L59.1112 20.3393L60.5262 21.7527ZM64.2806 17.9941L69.9122 12.3561L68.4972 10.9427L62.8656 16.5806L64.2806 17.9941ZM54.1054 16.7412L59.1112 21.7527L60.5262 20.3393L55.5204 15.3278L54.1054 16.7412ZM5 27.0575H36.6667V25.0575H5V27.0575ZM37.6667 26.0575V1H35.6667V26.0575H37.6667ZM84.1404 1.70671L99.7837 17.3676L101.199 15.9542L85.5555 0.293292L84.1404 1.70671ZM100.491 80.1839H36.6667V82.1839H100.491V80.1839ZM37.6667 81.1839V26.0575H35.6667V81.1839H37.6667ZM99.4912 26.0575V81.1839H101.491V26.0575H99.4912ZM104 25.0575H100.491V27.0575H104V25.0575ZM99.4912 16.6609V19.1667H101.491V16.6609H99.4912ZM99.4912 19.1667V26.0575H101.491V19.1667H99.4912ZM100.491 18.1667H82.9708V20.1667H100.491V18.1667ZM36.6667 2H82.9708V0H36.6667V2ZM82.9708 2H84.848V0H82.9708V2ZM83.9708 19.1667V1H81.9708V19.1667H83.9708ZM0 30.0575V88.0747H2V30.0575H0ZM0 88.0747V94.7241H2V88.0747H0ZM109 94.7241V88.0747H107V94.7241H109ZM109 88.0747V30.0575H107V88.0747H109ZM1 89.0747H108V87.0747H1V89.0747ZM78.5906 99.7241H104V97.7241H78.5906V99.7241ZM77.5906 98.7241V110H79.5906V98.7241H77.5906ZM78.5906 111H86.0994V109H78.5906V111ZM78.5906 109H31.6608V111H78.5906V109ZM31.6608 109H22.2749V111H31.6608V109ZM5 99.7241H31.6608V97.7241H5V99.7241ZM31.6608 99.7241H78.5906V97.7241H31.6608V99.7241ZM32.6608 110V98.7241H30.6608V110H32.6608ZM7.63158 43.5977C7.63158 37.9214 12.2276 33.3218 17.8947 33.3218V31.3218C11.1209 31.3218 5.63158 36.819 5.63158 43.5977H7.63158ZM17.8947 33.3218C23.5619 33.3218 28.1579 37.9214 28.1579 43.5977H30.1579C30.1579 36.819 24.6686 31.3218 17.8947 31.3218V33.3218ZM14.7452 41.2238C14.7452 39.4807 16.1563 38.0696 17.8947 38.0696V36.0696C15.0496 36.0696 12.7452 38.3783 12.7452 41.2238H14.7452ZM17.8947 38.0696C19.6331 38.0696 21.0443 39.4807 21.0443 41.2238H23.0443C23.0443 38.3783 20.7398 36.0696 17.8947 36.0696V38.0696ZM12.374 52.4997C12.374 49.4455 14.8468 46.9716 17.8947 46.9716V44.9716C13.7401 44.9716 10.374 48.3431 10.374 52.4997H12.374ZM17.8947 46.9716C20.9427 46.9716 23.4155 49.4455 23.4155 52.4997H25.4155C25.4155 48.3431 22.0494 44.9716 17.8947 44.9716V46.9716ZM17.8947 53.8736C15.6793 53.8736 13.6305 53.1719 11.954 51.9781L10.7939 53.6073C12.7978 55.0342 15.2498 55.8736 17.8947 55.8736V53.8736ZM11.954 51.9781C9.33628 50.1142 7.63158 47.0554 7.63158 43.5977H5.63158C5.63158 47.7291 7.67137 51.3839 10.7939 53.6073L11.954 51.9781ZM10.374 52.4997V52.7927H12.374V52.4997H10.374ZM28.1579 43.5977C28.1579 47.0554 26.4532 50.1142 23.8355 51.9781L24.9955 53.6073C28.1181 51.3839 30.1579 47.7291 30.1579 43.5977H28.1579ZM23.8355 51.9781C22.159 53.1719 20.1102 53.8736 17.8947 53.8736V55.8736C20.5397 55.8736 22.9916 55.0342 24.9955 53.6073L23.8355 51.9781ZM23.4155 52.4997V52.7927H25.4155V52.4997H23.4155ZM21.0443 41.2238C21.0443 41.7096 20.9354 42.1671 20.7415 42.5755L22.5484 43.4329C22.8667 42.7621 23.0443 42.0123 23.0443 41.2238H21.0443ZM15.0479 42.5755C14.8541 42.1671 14.7452 41.7096 14.7452 41.2238H12.7452C12.7452 42.0123 12.9227 42.7621 13.241 43.4329L15.0479 42.5755ZM14.1445 44.0042H17.8947V42.0042H14.1445V44.0042ZM17.8947 44.0042H21.645V42.0042H17.8947V44.0042ZM16.8947 43.0042V45.9716H18.8947V43.0042H16.8947ZM7.63158 69.908C7.63158 64.2318 12.2276 59.6322 17.8947 59.6322V57.6322C11.1209 57.6322 5.63158 63.1293 5.63158 69.908H7.63158ZM17.8947 59.6322C23.5619 59.6322 28.1579 64.2318 28.1579 69.908H30.1579C30.1579 63.1293 24.6686 57.6322 17.8947 57.6322V59.6322ZM14.7452 67.5342C14.7452 65.7911 16.1563 64.3799 17.8947 64.3799V62.3799C15.0496 62.3799 12.7452 64.6886 12.7452 67.5342H14.7452ZM17.8947 64.3799C19.6331 64.3799 21.0443 65.7911 21.0443 67.5342H23.0443C23.0443 64.6886 20.7398 62.3799 17.8947 62.3799V64.3799ZM12.374 78.81C12.374 75.7559 14.8468 73.2819 17.8947 73.2819V71.2819C13.7401 71.2819 10.374 74.6534 10.374 78.81H12.374ZM17.8947 73.2819C20.9427 73.2819 23.4155 75.7559 23.4155 78.81H25.4155C25.4155 74.6534 22.0494 71.2819 17.8947 71.2819V73.2819ZM17.8947 80.1839C15.6793 80.1839 13.6305 79.4822 11.954 78.2885L10.7939 79.9177C12.7978 81.3446 15.2498 82.1839 17.8947 82.1839V80.1839ZM11.954 78.2885C9.33628 76.4246 7.63158 73.3658 7.63158 69.908H5.63158C5.63158 74.0395 7.67137 77.6943 10.7939 79.9177L11.954 78.2885ZM10.374 78.81V79.1031H12.374V78.81H10.374ZM28.1579 69.908C28.1579 73.3658 26.4532 76.4246 23.8355 78.2885L24.9955 79.9177C28.1181 77.6943 30.1579 74.0395 30.1579 69.908H28.1579ZM23.8355 78.2885C22.159 79.4822 20.1102 80.1839 17.8947 80.1839V82.1839C20.5397 82.1839 22.9916 81.3446 24.9955 79.9177L23.8355 78.2885ZM23.4155 78.81V79.1031H25.4155V78.81H23.4155ZM21.0443 67.5342C21.0443 68.02 20.9354 68.4774 20.7415 68.8859L22.5484 69.7433C22.8667 69.0725 23.0443 68.3227 23.0443 67.5342H21.0443ZM15.0479 68.8859C14.8541 68.4774 14.7452 68.02 14.7452 67.5342H12.7452C12.7452 68.3227 12.9227 69.0725 13.241 69.7433L15.0479 68.8859ZM14.1445 70.3146H17.8947V68.3146H14.1445V70.3146ZM17.8947 70.3146H21.645V68.3146H17.8947V70.3146ZM16.8947 69.3146V72.2819H18.8947V69.3146H16.8947ZM107 94.7241C107 96.381 105.657 97.7241 104 97.7241V99.7241C106.761 99.7241 109 97.4856 109 94.7241H107ZM0 94.7241C0 97.4856 2.23858 99.7241 5 99.7241V97.7241C3.34315 97.7241 2 96.381 2 94.7241H0ZM104 27.0575C105.657 27.0575 107 28.4006 107 30.0575H109C109 27.2961 106.761 25.0575 104 25.0575V27.0575ZM5 25.0575C2.23858 25.0575 0 27.296 0 30.0575H2C2 28.4006 3.34315 27.0575 5 27.0575V25.0575Z" fill="#171043"/>
</svg>
