<svg width="119" height="116" viewBox="0 0 119 116" fill="none" xmlns="http://www.w3.org/2000/svg">
<path fill-rule="evenodd" clip-rule="evenodd" d="M5.60733 39.33C5.60733 35.1989 8.95465 31.85 13.0838 31.85H38.6283V34.3433H13.0838C10.331 34.3433 8.09948 36.5759 8.09948 39.33V98.5467H5.60733V39.33ZM81.6178 31.85H106.539C110.668 31.85 114.016 35.1989 114.016 39.33V97.3H115.262C117.326 97.3 119 98.9745 119 101.04V103.533C119 110.418 113.421 116 106.539 116H10.5916C4.74203 116 0 111.256 0 105.403H1.24607V104.157H110.277V106.65H2.58741C3.18677 110.533 6.54215 113.507 10.5916 113.507H106.539C112.045 113.507 116.508 109.041 116.508 103.533V101.04C116.508 100.351 115.95 99.7933 115.262 99.7933H111.524V39.33C111.524 36.5759 109.292 34.3433 106.539 34.3433H81.6178V31.85ZM14.3298 43.07C14.3298 40.3159 16.5614 38.0833 19.3141 38.0833H38.6283V40.5766H19.3141C17.9378 40.5766 16.822 41.6929 16.822 43.07V97.3H104.67V43.07C104.67 41.6929 103.554 40.5766 102.178 40.5766H81.6178V38.0833H102.178C104.931 38.0833 107.162 40.3159 107.162 43.07V99.7933H14.3298V43.07Z" fill="#171043"/>
<path fill-rule="evenodd" clip-rule="evenodd" d="M59.671 0.902793C60.0705 0.430477 60.7986 0.430476 61.1981 0.902792L73.7322 15.7229C74.801 16.9866 75.3874 18.5882 75.3874 20.2432V46.4105L83.8023 58.1969C84.4076 59.0448 84.733 60.0605 84.733 61.1022V69.25H76.322V72.99H73.8298V69.25H66.6649V66.7567H82.2408V61.9012C82.2408 60.8595 81.9155 59.8438 81.3102 58.996L72.8953 47.2095V21.1566C72.8953 19.5015 72.3088 17.8999 71.2401 16.6362L61.1981 4.76279C60.7986 4.29047 60.0705 4.29047 59.671 4.76279L49.6291 16.6362C48.5603 17.8999 47.9738 19.5015 47.9738 21.1566V47.2095L39.5589 58.996C38.9536 59.8438 38.6283 60.8595 38.6283 61.9012V66.7567H54.2042V69.25H47.0393V72.99H44.5471V69.25H36.1361V61.1022C36.1361 60.0605 36.4615 59.0448 37.0668 58.1969L45.4817 46.4105V20.2432C45.4817 18.5881 46.0681 16.9866 47.1369 15.7229L59.671 0.902793ZM60.4346 23.7467C56.9936 23.7467 54.2042 26.5374 54.2042 29.98C54.2042 33.4226 56.9936 36.2133 60.4346 36.2133C63.8755 36.2133 66.6649 33.4226 66.6649 29.98C66.6649 26.5374 63.8755 23.7467 60.4346 23.7467ZM51.712 29.98C51.712 25.1604 55.6172 21.2533 60.4346 21.2533C65.2519 21.2533 69.1571 25.1604 69.1571 29.98C69.1571 34.7996 65.2519 38.7067 60.4346 38.7067C55.6172 38.7067 51.712 34.7996 51.712 29.98ZM59.1885 72.99V54.29H61.6806V72.99H59.1885Z" fill="#171043"/>
<path fill-rule="evenodd" clip-rule="evenodd" d="M60.4347 79.2233C57.6874 79.2233 55.2374 80.4926 53.6365 82.4817C53.0117 83.258 51.8364 83.2627 51.2008 82.5085C49.8274 80.8787 47.7757 79.8467 45.4818 79.8467C42.8757 79.8467 40.5802 81.1797 39.2402 83.2072C38.8646 83.7754 38.1657 84.0373 37.5095 83.8559C36.8754 83.6807 36.2063 83.5867 35.5132 83.5867C31.8068 83.5867 28.7303 86.285 28.1393 89.8252C28.0259 90.5043 27.4789 91.0667 26.7907 91.0667C26.1025 91.0667 25.5364 90.5057 25.6214 89.8225C26.2335 84.9015 30.4288 81.0933 35.5132 81.0933C35.9365 81.0933 36.354 81.1198 36.7641 81.1712C37.2403 81.2309 37.7186 81.0515 38.038 80.6931C39.8625 78.6454 42.5211 77.3533 45.4818 77.3533C47.7172 77.3533 49.7813 78.0903 51.4435 79.3329C51.9928 79.7435 52.77 79.731 53.2987 79.2943C55.2369 77.6933 57.7236 76.73 60.4347 76.73C63.1457 76.73 65.6324 77.6933 67.5706 79.2943C68.0993 79.731 68.8766 79.7435 69.4258 79.3329C71.088 78.0903 73.1521 77.3533 75.3875 77.3533C78.3482 77.3533 81.0069 78.6454 82.8314 80.6931C83.1507 81.0515 83.629 81.2309 84.1052 81.1712C84.5153 81.1198 84.9329 81.0933 85.3561 81.0933C90.4405 81.0933 94.6358 84.9015 95.2479 89.8225C95.3329 90.5057 94.7668 91.0667 94.0786 91.0667C93.3904 91.0667 92.8435 90.5043 92.7301 89.8252C92.139 86.285 89.0625 83.5867 85.3561 83.5867C84.663 83.5867 83.9939 83.6807 83.3598 83.8559C82.7036 84.0373 82.0047 83.7754 81.6291 83.2072C80.2891 81.1797 77.9936 79.8467 75.3875 79.8467C73.0936 79.8467 71.0419 80.8787 69.6685 82.5085C69.0329 83.2627 67.8576 83.258 67.2328 82.4817C65.632 80.4926 63.1819 79.2233 60.4347 79.2233Z" fill="#171043"/>
</svg>
