<svg width="113" height="114" viewBox="0 0 113 114" fill="none" xmlns="http://www.w3.org/2000/svg">
<path fill-rule="evenodd" clip-rule="evenodd" d="M56.5 2.50549C26.6675 2.50549 2.48352 26.9035 2.48352 57C2.48352 87.0965 26.6675 111.495 56.5 111.495C86.3325 111.495 110.516 87.0965 110.516 57C110.516 26.9035 86.3325 2.50549 56.5 2.50549ZM0 57C0 25.5198 25.2959 0 56.5 0C87.7041 0 113 25.5198 113 57C113 88.4802 87.7041 114 56.5 114C25.2959 114 0 88.4802 0 57ZM57.1209 17.5385C35.861 17.5385 18.6264 34.9256 18.6264 56.3736C18.6264 77.8217 35.861 95.2088 57.1209 95.2088C78.3808 95.2088 95.6154 77.8217 95.6154 56.3736C95.6154 34.9256 78.3808 17.5385 57.1209 17.5385ZM16.1429 56.3736C16.1429 33.5418 34.4893 15.033 57.1209 15.033C79.7524 15.033 98.0989 33.5418 98.0989 56.3736C98.0989 79.2054 79.7524 97.7143 57.1209 97.7143C34.4893 97.7143 16.1429 79.2054 16.1429 56.3736ZM29.5227 39.4615H39.7363V41.967H36.0804L50.2568 73.2908L54.6767 62.9137L45.0587 41.7693C44.568 40.6905 45.3493 39.4615 46.5259 39.4615H65.1923V41.967H62.1084L75.0868 72.5179L79.9808 60.1746C78.8313 57.7118 77.1782 53.9166 75.6675 50.1578C74.0632 46.1662 72.5741 42.1057 72.0515 39.7333C71.4968 37.2147 72.519 35.2229 73.9771 33.8184C75.1136 32.7237 76.5523 31.9366 77.861 31.4106C72.2505 26.6611 65.018 23.8022 57.1209 23.8022C45.4305 23.8022 35.1896 30.07 29.5227 39.4615ZM81.2508 56.9627C80.2553 54.7326 79.0746 51.967 77.969 49.2164C76.3551 45.2008 74.9468 41.3273 74.4759 39.1898C74.1592 37.7519 74.6785 36.6069 75.6921 35.6305C76.7428 34.6185 78.2511 33.8817 79.579 33.4473C80.8385 33.0352 81.4669 31.2808 80.2892 30.2183C74.1401 24.6709 66.0196 21.2967 57.1209 21.2967C43.9527 21.2967 32.4962 28.6823 26.5961 39.5655C26.0008 40.6637 26.805 41.967 28.0105 41.967H33.3502L48.9331 76.3985L44.66 86.4309C43.0805 85.7636 41.5645 84.9732 40.1239 84.0714L26.1636 47.8638C25.6499 46.5315 23.6897 46.5869 23.3368 48.0499C22.6927 50.7193 22.3516 53.5071 22.3516 56.3736C22.3516 68.8146 28.7725 79.7417 38.4476 85.9675C40.4621 87.2638 42.6181 88.3567 44.8872 89.2173C48.6943 90.6613 52.8177 91.4506 57.1209 91.4506C60.9429 91.4506 64.6234 90.8279 68.0665 89.6768C69.2342 89.2863 70.3744 88.8352 71.4835 88.3271C83.5174 82.8134 91.8901 70.5813 91.8901 56.3736C91.8901 52.097 91.1309 47.9964 89.74 44.2035C89.1304 42.5411 86.9079 42.6477 86.3051 44.1731L81.2508 56.9627ZM36.4163 81.3668L25.1159 52.058C24.9308 53.4696 24.8352 54.9101 24.8352 56.3736C24.8352 66.412 29.3358 75.3906 36.4163 81.3668ZM46.989 87.3093C50.1741 88.3704 53.5799 88.9451 57.1209 88.9451C60.1859 88.9451 63.1494 88.5145 65.9562 87.7107L56.0726 65.9826L46.989 87.3093ZM68.3326 86.9278C68.8911 86.7192 69.4424 86.4953 69.9859 86.2569L73.7904 75.8265L59.4065 41.967H47.8812L68.3326 86.9278ZM76.2857 76.2404L73.2348 84.6047C82.9028 78.976 89.4066 68.44 89.4066 56.3736C89.4066 53.0145 88.903 49.776 87.9683 46.7298L82.4881 60.5971L76.2857 76.2404ZM88.612 45.1009C88.6117 45.1018 88.6113 45.1027 88.611 45.1036L88.612 45.1009Z" fill="#171043"/>
</svg>
