<?xml version="1.0"?>
<svg version="1.1" id="Capa_1" xmlns="http://www.w3.org/2000/svg" xmlns:xlink="http://www.w3.org/1999/xlink" x="0px" y="0px"
	 viewBox="0 0 411.04 411.04" style="enable-background:new 0 0 411.04 411.04;" xml:space="preserve">
<g>
	<g>
		<path d="M405.041,89.999c-0.027,0-0.054,0-0.081,0.001h-54.8V50c0-3.314-2.686-6-6-6H36.4C16.315,44.044,0.044,60.315,0,80.4
			v250.24c0.044,20.085,16.315,36.356,36.4,36.4h338.24c20.085-0.044,36.356-16.315,36.4-36.4V96
			C411.04,92.686,408.354,90,405.041,89.999z M36.4,355.12c-13.458-0.044-24.356-10.942-24.4-24.4V80.64
			c0.044-13.458,10.943-24.356,24.4-24.4h301.76v274.4c0.022,9.021,3.385,17.714,9.44,24.4L36.4,355.12z M398.64,330.64
			c0.003,13.335-10.668,24.219-24,24.48c-13.253,0.223-24.177-10.34-24.4-23.593c-0.005-0.269-0.005-0.538,0-0.807V102.08h48.4
			V330.64z"/>
	</g>
</g>
<g>
	<g>
		<path d="M93.28,80.72c-2.368,0.043-4.277,1.952-4.32,4.32v33.04L62.64,82.24c-1.428-1.92-4.13-2.347-6.08-0.96
			c-1.165,0.855-1.826,2.236-1.76,3.68v46.72c-0.051,2.43,1.878,4.44,4.307,4.491c0.138,0.003,0.275-0.001,0.413-0.011
			c2.381-0.085,4.279-2.018,4.32-4.4V98.4l25.76,35.68l0.4,0.48c0.803,0.992,2.004,1.577,3.28,1.6c2.412-0.043,4.357-1.988,4.4-4.4
			V85.04C97.595,82.659,95.662,80.761,93.28,80.72z"/>
	</g>
</g>
<g>
	<g>
		<path d="M142.64,127.28h-22V112.4h18.72c2.452-0.33,4.173-2.585,3.843-5.037c-0.269-2-1.842-3.574-3.843-3.843h-18.72V88.8h22
			c2.425-0.085,4.359-2.054,4.4-4.48c-0.043-2.412-1.988-4.357-4.4-4.4h-26.48c-2.43,0-4.4,1.97-4.4,4.4v47.36
			c-0.044,2.43,1.89,4.435,4.319,4.479c0.027,0,0.054,0.001,0.081,0.001h26.48c2.452-0.33,4.173-2.585,3.843-5.037
			C146.214,129.122,144.64,127.549,142.64,127.28z"/>
	</g>
</g>
<g>
	<g>
		<path d="M227.44,80.88c-2.254-0.95-4.853,0.082-5.84,2.32l-16,37.2l-10.32-24.64c-0.727-1.649-2.358-2.715-4.16-2.72
			c-1.815-0.038-3.467,1.042-4.16,2.72l-10.32,24.64l-16-37.2c-1.301-2.052-4.02-2.661-6.072-1.36
			c-1.582,1.003-2.355,2.897-1.928,4.72l23.76,46.8c0.117,0.249,0.251,0.489,0.4,0.72v0.48c0,0,0,0,0.56,0
			c0.204,0.209,0.449,0.372,0.72,0.48h0.56h2c0.209-0.058,0.431-0.058,0.64,0l0.64-0.48h0.48l0.48-0.48v-0.72l10.48-24.88
			l10.56,24.88c-0.039,0.238-0.039,0.482,0,0.72v0.48h0.56c0.188,0.226,0.439,0.393,0.72,0.48h0.56h1.92h0.64c0,0,0.48,0,0.72-0.48
			h0.56v-0.48c0.177-0.213,0.312-0.457,0.4-0.72l19.68-46.8C230.628,84.373,229.626,81.831,227.44,80.88z"/>
	</g>
</g>
<g>
	<g>
		<path d="M285.44,112.24c-1.989-2.921-4.762-5.223-8-6.64c-3.55-1.621-7.284-2.803-11.12-3.52c-3.529-0.518-6.925-1.713-10-3.52
			c-0.845-0.551-1.578-1.257-2.16-2.08c-0.412-0.672-0.608-1.454-0.56-2.24c0.135-2.074,1.268-3.953,3.04-5.04
			c2.631-1.817,5.763-2.768,8.96-2.72c4.824-0.058,9.478,1.78,12.96,5.12c1.755,1.268,4.205,0.873,5.473-0.882
			c0.074-0.103,0.143-0.209,0.207-0.318c1.221-1.885,0.726-4.4-1.12-5.68c-4.896-4.144-11.106-6.412-17.52-6.4
			c-4.967-0.061-9.831,1.42-13.92,4.24c-3.876,2.685-6.25,7.047-6.4,11.76c-0.016,2.316,0.622,4.59,1.84,6.56
			c1.836,2.745,4.417,4.91,7.44,6.24c3.321,1.476,6.815,2.524,10.4,3.12c3.879,0.567,7.621,1.841,11.04,3.76
			c0.972,0.607,1.793,1.428,2.4,2.4c0.489,0.763,0.74,1.654,0.72,2.56c-0.127,2.37-1.414,4.524-3.44,5.76
			c-2.949,1.993-6.441,3.027-10,2.96c-5.652-0.337-11.041-2.499-15.36-6.16c-1.769-1.451-4.379-1.201-5.84,0.56
			c-1.388,1.803-1.106,4.38,0.64,5.84c5.759,4.873,12.948,7.737,20.48,8.16c5.318,0.094,10.528-1.503,14.88-4.56
			c4.181-2.799,6.745-7.451,6.88-12.48C287.358,116.64,286.694,114.287,285.44,112.24z"/>
	</g>
</g>
<g>
	<g>
		<path d="M291.36,155.44H49.52c-3.314,0-6,2.686-6,6s2.686,6,6,6h241.84c3.314,0,6-2.686,6-6S294.674,155.44,291.36,155.44z"/>
	</g>
</g>
<g>
	<g>
		<path d="M264.64,204.08H49.52c-3.314,0-6,2.686-6,6s2.686,6,6,6h215.12c3.314,0,6-2.686,6-6S267.954,204.08,264.64,204.08z"/>
	</g>
</g>
<g>
	<g>
		<path d="M264.64,235.12H49.52c-3.314,0-6,2.686-6,6s2.686,6,6,6h215.12c3.314,0,6-2.686,6-6S267.954,235.12,264.64,235.12z"/>
	</g>
</g>
<g>
	<g>
		<path d="M264.64,266.08H49.52c-3.314,0-6,2.686-6,6s2.686,6,6,6h215.12c3.314,0,6-2.686,6-6S267.954,266.08,264.64,266.08z"/>
	</g>
</g>
<g>
	<g>
		<path d="M264.64,297.12H49.52c-3.314,0-6,2.686-6,6s2.686,6,6,6h215.12c3.314,0,6-2.686,6-6S267.954,297.12,264.64,297.12z"/>
	</g>
</g>
<g>
</g>
<g>
</g>
<g>
</g>
<g>
</g>
<g>
</g>
<g>
</g>
<g>
</g>
<g>
</g>
<g>
</g>
<g>
</g>
<g>
</g>
<g>
</g>
<g>
</g>
<g>
</g>
<g>
</g>
</svg>
