<svg width="40" height="40" viewBox="0 0 40 40" fill="none" xmlns="http://www.w3.org/2000/svg">
<path d="M35.6965 25.4782C34.8122 25.4782 34.0045 25.7842 33.3487 26.2812V26.2608C33.3487 24.1032 31.5933 22.3478 29.4357 22.3478C28.1514 22.3478 27.019 22.9786 26.3053 23.9373C25.5915 22.9786 24.4591 22.3478 23.1748 22.3478C22.2905 22.3478 21.4828 22.6538 20.827 23.1508V16.8696C20.827 14.7119 19.0716 12.9565 16.914 12.9565C14.7564 12.9565 13.001 14.7119 13.001 16.8696V38.7825C13.001 39.2145 13.3516 39.5651 13.7836 39.5651C14.2156 39.5651 14.5662 39.2145 14.5662 38.7825V16.8696C14.5662 15.5751 15.6196 14.5218 16.914 14.5218C18.2084 14.5218 19.2618 15.5751 19.2618 16.8696V34.0869C19.2618 34.5189 19.6124 34.8695 20.0444 34.8695C20.4764 34.8695 20.827 34.5189 20.827 34.0869V26.2608C20.827 24.9664 21.8804 23.913 23.1748 23.913C24.4693 23.913 25.5226 24.9664 25.5226 26.2608V34.0869C25.5226 34.5189 25.8725 34.8695 26.3053 34.8695C26.738 34.8695 27.0879 34.5189 27.0879 34.0869V26.2608C27.0879 24.9664 28.1412 23.913 29.4357 23.913C30.7301 23.913 31.7835 24.9664 31.7835 26.2608V34.0869C31.7835 34.5189 32.1333 34.8695 32.5661 34.8695C32.9989 34.8695 33.3487 34.5189 33.3487 34.0869V29.3912C33.3487 28.0968 34.4021 27.0434 35.6965 27.0434C36.9909 27.0434 38.0443 28.0968 38.0443 29.3912V38.7825C38.0443 39.2145 38.3941 39.5651 38.8269 39.5651C39.2597 39.5651 39.6095 39.2145 39.6095 38.7825V29.3912C39.6095 27.2336 37.8541 25.4782 35.6965 25.4782Z" fill="white" fill-opacity="0.25"/>
<path d="M4.92415 0.229499L0.229313 4.92434C0.156532 4.99712 0.0993996 5.08321 0.0594864 5.17947C-0.019558 5.37043 -0.019558 5.58643 0.0594864 5.77738C0.0993996 5.87364 0.156532 5.96051 0.229313 6.03251L4.92415 10.7274C5.07676 10.88 5.27711 10.9567 5.47746 10.9567C5.6778 10.9567 5.87815 10.88 6.03076 10.7274C6.33676 10.4214 6.33676 9.92675 6.03076 9.62075L2.67104 6.26103H15.9133C16.2593 7.83005 17.6582 9.00391 19.3312 9.00391C21.0042 9.00391 22.4031 7.83005 22.7491 6.26103H33.3272L29.9675 9.62075C29.6615 9.92675 29.6615 10.4214 29.9675 10.7274C30.1201 10.88 30.3204 10.9567 30.5208 10.9567C30.7211 10.9567 30.9215 10.88 31.0741 10.7274L35.7697 6.03173C35.8417 5.95973 35.8989 5.87286 35.9388 5.77738C36.0178 5.58643 36.0178 5.37121 35.9388 5.17947C35.8989 5.08399 35.8417 4.99712 35.7697 4.92513L31.0741 0.229499C30.7681 -0.0764996 30.2735 -0.0764996 29.9675 0.229499C29.6615 0.535497 29.6615 1.0301 29.9675 1.3361L33.3272 4.69582H22.7375C22.3727 3.15241 20.9861 2.00391 19.3312 2.00391C17.6763 2.00391 16.2897 3.15241 15.925 4.69582H2.67104L6.03076 1.3361C6.33676 1.0301 6.33676 0.535497 6.03076 0.229499C5.72476 -0.0764996 5.23015 -0.0764996 4.92415 0.229499Z" fill="white" fill-opacity="0.25"/>
</svg>
