<svg width="167" height="168" viewBox="0 0 167 168" fill="none" xmlns="http://www.w3.org/2000/svg">
<path d="M19.2635 103.02C18.0919 101.849 18.0919 99.9491 19.2635 98.7775L30.5772 87.4638C31.7487 86.2923 33.6482 86.2923 34.8198 87.4638C35.9914 88.6354 35.9914 90.5349 34.8198 91.7065L23.5061 103.02C22.3345 104.192 20.435 104.192 19.2635 103.02Z" fill="url(#paint0_linear)"/>
<path d="M3.70711 136.961C2.53554 135.79 2.53554 133.89 3.70711 132.719L27.0416 109.384C28.2132 108.213 30.1127 108.213 31.2843 109.384C32.4558 110.556 32.4558 112.455 31.2843 113.627L7.94976 136.961C6.77818 138.133 4.87868 138.133 3.70711 136.961Z" fill="url(#paint1_linear)"/>
<path d="M64.5183 148.275C65.6899 149.447 67.5894 149.447 68.7609 148.275L80.0746 136.961C81.2462 135.79 81.2462 133.89 80.0746 132.719C78.9031 131.547 77.0036 131.547 75.832 132.719L64.5183 144.032C63.3467 145.204 63.3467 147.103 64.5183 148.275Z" fill="url(#paint2_linear)"/>
<path d="M30.5772 163.831C31.7487 165.003 33.6482 165.003 34.8198 163.831L58.1543 140.497C59.3259 139.325 59.3259 137.426 58.1543 136.254C56.9828 135.083 55.0833 135.083 53.9117 136.254L30.5772 159.589C29.4056 160.76 29.4056 162.66 30.5772 163.831Z" fill="url(#paint3_linear)"/>
<path d="M0.87868 166.66C-0.292893 165.488 -0.292893 163.589 0.87868 162.417L29.163 134.133C30.3345 132.961 32.234 132.961 33.4056 134.133C34.5772 135.304 34.5772 137.204 33.4056 138.376L5.12133 166.66C3.94975 167.831 2.05025 167.831 0.87868 166.66Z" fill="url(#paint4_linear)"/>
<path fill-rule="evenodd" clip-rule="evenodd" d="M163.826 0.0021402C165.514 -0.0618435 166.893 1.31727 166.829 3.0051C166.342 15.8639 163.902 28.4501 159.393 40.5665C152.688 58.5868 142.244 75.621 127.666 88.3216C133.72 97.6764 133.014 109.478 124.976 117.516C116.304 126.187 105.47 130.235 93.7958 130.919C91.5069 131.053 90.1476 128.592 91.3178 126.62C94.6562 120.995 97.5557 115.079 95.3774 108.448C88.4115 111.413 81.212 113.737 73.7614 115.092L73.544 114.874C66.5788 127.129 52.1091 131.395 38.7724 130.698C37.3434 130.623 36.208 129.488 36.1334 128.059C35.4365 114.722 39.7023 100.253 51.9569 93.2874L51.7395 93.0699C53.0941 85.6194 55.4183 78.4199 58.3836 71.4539C51.8789 69.3174 45.8206 72.2293 40.217 75.5231C38.2403 76.685 35.7785 75.3245 35.9126 73.0356C36.5962 61.3617 40.644 50.5269 49.3154 41.8555C57.3533 33.8176 69.155 33.1111 78.5097 39.1657C91.2103 24.5876 108.245 14.1436 126.265 7.43801C138.381 2.92934 150.967 0.489602 163.826 0.0021402ZM74.665 43.8379C67.7086 39.667 59.4326 40.2236 53.558 46.0982C46.4287 53.2275 43.3402 61.7383 42.2309 67.6297C48.2975 64.6565 54.3968 63.6878 60.8817 65.9663C64.3271 58.8918 69.0135 51.0964 74.665 43.8379ZM63.3926 75.0246C60.7107 81.5252 59.0671 87.1592 58.2272 91.0724L75.759 108.604C79.6722 107.764 85.3061 106.121 91.8067 103.439L63.3926 75.0246ZM97.6789 100.826L66.0057 69.1524C78.4398 43.248 99.7562 24.1741 126.563 13.7442L153.087 40.2684C142.657 67.0752 123.583 88.3916 97.6789 100.826ZM154.173 32.8687C154.7 33.3962 155.598 33.1809 155.82 32.4686C158.356 24.3285 160.006 15.9641 160.613 8.29153C160.706 7.10629 159.725 6.12496 158.54 6.21872C150.867 6.82568 142.503 8.47533 134.363 11.0115C133.65 11.2334 133.435 12.1311 133.963 12.6586L154.173 32.8687ZM69.0976 110.428L56.4032 97.7337C46.9017 102.248 42.4353 112.846 41.9647 122.929C41.9136 124.024 42.8072 124.918 43.9028 124.867C53.9851 124.396 64.5833 119.93 69.0976 110.428ZM100.865 105.95C103.144 112.435 102.175 118.534 99.2017 124.6C105.093 123.491 113.604 120.403 120.733 113.273C126.608 107.399 127.164 99.1227 122.993 92.1664C115.735 97.8179 107.94 102.504 100.865 105.95ZM108.005 58.8261C122.717 73.5381 145.345 50.9107 130.633 36.1987C115.921 21.4866 93.2932 44.1141 108.005 58.8261ZM126.39 40.4413C135.644 49.6951 121.502 63.8373 112.248 54.5834C102.994 45.3296 117.136 31.1875 126.39 40.4413ZM103.763 63.0687C104.934 64.2403 104.934 66.1398 103.763 67.3114L98.8129 72.2611C97.6413 73.4327 95.7418 73.4327 94.5703 72.2611C93.3987 71.0895 93.3987 69.19 94.5703 68.0185L99.52 63.0687C100.692 61.8972 102.591 61.8972 103.763 63.0687ZM86.085 80.7464C84.9134 79.5748 84.9134 77.6753 86.085 76.5038C87.2565 75.3322 89.156 75.3322 90.3276 76.5038C91.4992 77.6753 91.4992 79.5748 90.3276 80.7464C89.156 81.918 87.2565 81.918 86.085 80.7464Z" fill="url(#paint5_linear)"/>
<defs>
<linearGradient id="paint0_linear" x1="166.695" y1="-0.420908" x2="-0.807034" y2="167.077" gradientUnits="userSpaceOnUse">
<stop stop-color="#8C0FDD"/>
<stop offset="0.359116" stop-color="#A93FAD"/>
<stop offset="0.651464" stop-color="#CF776B"/>
<stop offset="0.996721" stop-color="#F3AF32"/>
</linearGradient>
<linearGradient id="paint1_linear" x1="166.695" y1="-0.420908" x2="-0.807034" y2="167.077" gradientUnits="userSpaceOnUse">
<stop stop-color="#8C0FDD"/>
<stop offset="0.359116" stop-color="#A93FAD"/>
<stop offset="0.651464" stop-color="#CF776B"/>
<stop offset="0.996721" stop-color="#F3AF32"/>
</linearGradient>
<linearGradient id="paint2_linear" x1="166.695" y1="-0.420908" x2="-0.807034" y2="167.077" gradientUnits="userSpaceOnUse">
<stop stop-color="#8C0FDD"/>
<stop offset="0.359116" stop-color="#A93FAD"/>
<stop offset="0.651464" stop-color="#CF776B"/>
<stop offset="0.996721" stop-color="#F3AF32"/>
</linearGradient>
<linearGradient id="paint3_linear" x1="166.695" y1="-0.420908" x2="-0.807034" y2="167.077" gradientUnits="userSpaceOnUse">
<stop stop-color="#8C0FDD"/>
<stop offset="0.359116" stop-color="#A93FAD"/>
<stop offset="0.651464" stop-color="#CF776B"/>
<stop offset="0.996721" stop-color="#F3AF32"/>
</linearGradient>
<linearGradient id="paint4_linear" x1="166.695" y1="-0.420908" x2="-0.807034" y2="167.077" gradientUnits="userSpaceOnUse">
<stop stop-color="#8C0FDD"/>
<stop offset="0.359116" stop-color="#A93FAD"/>
<stop offset="0.651464" stop-color="#CF776B"/>
<stop offset="0.996721" stop-color="#F3AF32"/>
</linearGradient>
<linearGradient id="paint5_linear" x1="166.695" y1="-0.420908" x2="-0.807034" y2="167.077" gradientUnits="userSpaceOnUse">
<stop stop-color="#8C0FDD"/>
<stop offset="0.359116" stop-color="#A93FAD"/>
<stop offset="0.651464" stop-color="#CF776B"/>
<stop offset="0.996721" stop-color="#F3AF32"/>
</linearGradient>
</defs>
</svg>
