<svg xmlns="http://www.w3.org/2000/svg" xmlns:xlink="http://www.w3.org/1999/xlink" width="33" height="33" viewBox="0 0 33 33"><defs><path id="plo8a" d="M603.5 977c9.113 0 16.5 7.387 16.5 16.5s-7.387 16.5-16.5 16.5-16.5-7.387-16.5-16.5 7.387-16.5 16.5-16.5z"/><path id="plo8b" d="M607.323 993.905h-2.421v.296l-.002 8.214c0 .31 0 .31-.306.31-.922 0-1.844-.006-2.767.006-.22.002-.278-.06-.278-.277.007-2.73.005-5.46.005-8.191v-.347h-2.204v-3.043h2.203v-.297c.012-.765.005-1.532.043-2.297.026-.53.113-1.056.33-1.553.37-.845 1.044-1.318 1.924-1.5.452-.093.922-.115 1.386-.13.716-.021 1.435-.001 2.152-.008.174-.002.251.031.25.23-.012.86-.01 1.72-.003 2.582.002.182-.05.244-.239.241a25.22 25.22 0 0 0-1.537.012c-.71.03-.928.252-.946.95-.013.576-.002 1.153-.002 1.763h2.738l-.326 3.039z"/><clipPath id="plo8c"><use fill="#fff" xlink:href="#plo8a"/></clipPath></defs><g><g opacity=".39" transform="translate(-587 -977)"><use fill="#fff" xlink:href="#plo8b"/></g><g opacity=".39" transform="translate(-587 -977)"><use fill="#fff" fill-opacity="0" stroke="#fff" stroke-miterlimit="50" stroke-width="2" clip-path="url(&quot;#plo8c&quot;)" xlink:href="#plo8a"/></g></g></svg>