<svg xmlns="http://www.w3.org/2000/svg" xmlns:xlink="http://www.w3.org/1999/xlink" width="34" height="33" viewBox="0 0 34 33"><defs><path id="ckq8a" d="M597.67 5973.977c9.204 0 16.666 7.367 16.666 16.455 0 9.088-7.462 16.455-16.666 16.455-9.205 0-16.667-7.367-16.667-16.455 0-9.088 7.462-16.455 16.667-16.455z"/><path id="ckq8b" d="M601.538 5990.839h-2.449v.297l-.001 8.19c0 .309 0 .309-.31.309-.932.002-1.865-.006-2.797.006-.222.002-.281-.061-.281-.277.007-2.722.005-5.446.005-8.167v-.346h-2.23v-3.033h2.229c0-.117-.002-.207 0-.297.012-.764.004-1.528.043-2.29.026-.53.114-1.053.334-1.548.374-.845 1.056-1.315 1.945-1.496.457-.092.933-.116 1.402-.13.724-.02 1.45-.002 2.175-.008.176-.002.254.031.252.23-.011.857-.008 1.716-.001 2.574.001.18-.05.244-.242.24a27.302 27.302 0 0 0-1.555.011c-.717.03-.938.25-.956.948-.014.575-.002 1.15-.002 1.758h2.768l-.33 3.029z"/><clipPath id="ckq8c"><use fill="#fff" xlink:href="#ckq8a"/></clipPath></defs><g><g opacity=".75" transform="translate(-581 -5974)"><use fill="#fff" xlink:href="#ckq8b"/></g><g opacity=".75" transform="translate(-581 -5974)"><use fill="#fff" fill-opacity="0" stroke="#fff" stroke-miterlimit="50" stroke-width="2" clip-path="url(&quot;#ckq8c&quot;)" xlink:href="#ckq8a"/></g></g></svg>