<svg xmlns="http://www.w3.org/2000/svg" xmlns:xlink="http://www.w3.org/1999/xlink" width="34" height="33" viewBox="0 0 34 33"><defs><path id="kr7pa" d="M608.234 2088.93c9.145 0 16.558 7.41 16.558 16.551 0 9.141-7.413 16.552-16.558 16.552-9.144 0-16.557-7.41-16.557-16.552 0-9.14 7.413-16.551 16.557-16.551z"/><path id="kr7pb" d="M612.07 2105.887h-2.43v.297l-.001 8.24c0 .311 0 .311-.307.311-.925.001-1.851-.006-2.777.006-.218.003-.279-.061-.278-.278.007-2.74.005-5.478.005-8.218v-.347h-2.213v-3.05h2.212v-.3c.011-.769.004-1.537.042-2.305.027-.53.114-1.058.332-1.557.371-.848 1.048-1.322 1.93-1.504.455-.094.926-.118 1.39-.131.72-.02 1.441-.002 2.162-.009.173 0 .251.032.249.231-.012.863-.01 1.727-.002 2.59.002.182-.05.247-.24.243a26.485 26.485 0 0 0-1.543.01c-.712.03-.931.254-.948.955-.014.577-.003 1.156-.003 1.768h2.748l-.328 3.048z"/><clipPath id="kr7pc"><use fill="#fff" xlink:href="#kr7pa"/></clipPath></defs><g><g opacity=".75" transform="translate(-591 -2089)"><use fill="#fff" xlink:href="#kr7pb"/></g><g opacity=".75" transform="translate(-591 -2089)"><use fill="#fff" fill-opacity="0" stroke="#fff" stroke-miterlimit="50" stroke-width="2" clip-path="url(&quot;#kr7pc&quot;)" xlink:href="#kr7pa"/></g></g></svg>