<?xml version="1.0" encoding="utf-8"?>
<!-- Generator: Adobe Illustrator 20.1.0, SVG Export Plug-In . SVG Version: 6.00 Build 0)  -->
<svg version="1.1" id="Layer_1" xmlns="http://www.w3.org/2000/svg" xmlns:xlink="http://www.w3.org/1999/xlink" x="0px" y="0px"
	 viewBox="0 0 36.4 35.8" enable-background="new 0 0 36.4 35.8" xml:space="preserve">
<g>
	<g transform="translate(-628 -5975)" opacity="0.75">
		<g>
			<g>
				<defs>
					<ellipse id="SVGID_2_" cx="645.2" cy="5992" rx="16.7" ry="16.5"/>
				</defs>
				<clipPath id="SVGID_3_">
					<use xlink:href="#SVGID_2_"  overflow="visible"/>
				</clipPath>
				<g opacity="0" clip-path="url(#SVGID_3_)">
					<path id="sp7ta" fill="#FFFFFF" fill-opacity="0" stroke="#FFFFFF" stroke-width="2" stroke-miterlimit="50" d="M645.2,5975.5
						c9.2,0,16.7,7.4,16.7,16.5s-7.5,16.5-16.7,16.5s-16.7-7.4-16.7-16.5S636,5975.5,645.2,5975.5z"/>
				</g>
			</g>
			<g>
				<ellipse id="SVGID_1_" fill="none" stroke="#FFFFFF" stroke-miterlimit="10" cx="645.2" cy="5992" rx="16.7" ry="16.5"/>
			</g>
		</g>
	</g>
</g>
<path fill="none" stroke="#FFFFFF" stroke-miterlimit="10" stroke-opacity="0.6" d="M13.7,8.8h7c1.4,0,2.7,0.6,3.7,1.5l0,0
	c1,1,1.5,2.3,1.5,3.7v5.9c0,1.3-0.5,2.5-1.3,3.5l0,0c-1,1.1-2.5,1.8-4,1.8h-7c-1.4,0-2.7-0.6-3.7-1.5l0,0c-1-1-1.5-2.3-1.5-3.7v-6
	c0-1.4,0.6-2.7,1.5-3.7l0,0C10.9,9.3,12.3,8.8,13.7,8.8z"/>
<ellipse fill="none" stroke="#FFFFFF" stroke-linecap="round" stroke-miterlimit="10" stroke-opacity="0.8" cx="17.2" cy="17" rx="3.4" ry="3.4"/>
<ellipse transform="matrix(0.9222 -0.3866 0.3866 0.9222 -2.9282 9.642)" fill="none" stroke="#FFFFFF" stroke-linecap="round" stroke-miterlimit="10" stroke-opacity="0.8" cx="22.5" cy="12.1" rx="0.9" ry="0.9"/>
</svg>
