<svg width="32" height="32" xmlns="http://www.w3.org/2000/svg">

 <g>
  <title>background</title>
  <rect fill="none" id="canvas_background" height="402" width="582" y="-1" x="-1"/>
 </g>
 <g>
  <title>Layer 1</title>
  <path id="svg_1" fill-rule="evenodd" fill="#000000" d="m15.999,0.002c8.836,0 16,7.164 16,16s-7.164,16 -16,16s-16,-7.164 -16,-16s7.163,-16 16,-16z" clip-rule="evenodd"/>
  <path id="svg_2" fill="#fff" d="m21.521,7l-11.045,0c-1.919,0 -3.479,1.561 -3.479,3.479l0,11.046c0,1.919 1.561,3.479 3.479,3.479l11.046,0c1.919,0 3.479,-1.561 3.479,-3.479l0,-11.046c0,-1.918 -1.561,-3.479 -3.48,-3.479zm1.096,2.013l0.394,-0.001l0,2.988l-3.01,0.01l-0.01,-2.988l2.626,-0.009zm-6.618,3.977c2.497,0 3.012,2.344 3.012,3.013c0,1.659 -1.352,3.011 -3.012,3.011c-1.661,0 -3.012,-1.352 -3.012,-3.011c-0.001,-0.669 0.515,-3.013 3.012,-3.013zm7.029,8.317c0,0.951 -0.773,1.725 -1.726,1.725l-10.64,0c-0.952,0 -1.726,-0.773 -1.726,-1.725l0,-7.309l2.5,0c-0.232,0.571 -0.363,1.351 -0.363,2.005c0,2.714 2.208,4.923 4.923,4.923s4.922,-2.209 4.922,-4.923c0,-0.654 -0.131,-1.434 -0.362,-2.005l2.47,0l0,7.309l0.002,0z"/>
 </g>
</svg>