<svg width="72" height="56" viewBox="0 0 72 56" fill="none" xmlns="http://www.w3.org/2000/svg">
<path d="M72 23.625C72 26.4873 71.699 29.0286 70.4459 30.625C69.5834 31.7238 50.9268 56 50.9268 56H41.2683L58.8293 32.375H48.2927C43.4434 32.375 39.5122 28.4575 39.5122 23.625V8.75C39.5122 3.91751 43.4434 0 48.2927 0H63.2195C68.0688 0 72 3.91751 72 8.75V23.625Z" fill="#C4C4C4" fill-opacity="0.12"/>
<path d="M32.4878 23.625C32.4878 26.4873 32.1868 29.0286 30.9337 30.625C30.0712 31.7238 11.4146 56 11.4146 56H1.7561L19.3171 32.375H8.78049C3.93116 32.375 0 28.4575 0 23.625V8.75C0 3.91751 3.93116 0 8.78049 0H23.7073C28.5566 0 32.4878 3.91751 32.4878 8.75V23.625Z" fill="#C4C4C4" fill-opacity="0.12"/>
</svg>
