<svg width="290" height="44" viewBox="0 0 290 44" fill="none" xmlns="http://www.w3.org/2000/svg">
<rect width="290" height="44" rx="22" fill="url(#paint0_linear)" fill-opacity="0.85"/>
<rect width="290" height="44" rx="22" fill="url(#paint1_linear)"/>
<path d="M257.293 16.8432C257.683 16.4527 258.317 16.4527 258.707 16.8432L262.95 21.0858C263.731 21.8669 263.731 23.1332 262.95 23.9143L258.707 28.1569C258.317 28.5474 257.683 28.5474 257.293 28.1569C256.902 27.7664 256.902 27.1332 257.293 26.7427L260.828 23.2071C261.219 22.8166 261.219 22.1835 260.828 21.7929L257.293 18.2574C256.902 17.8669 256.902 17.2337 257.293 16.8432Z" fill="white"/>
<path d="M263.157 16.8434C263.547 16.4528 264.181 16.4528 264.571 16.8434L268.814 21.086C269.595 21.8671 269.595 23.1334 268.814 23.9144L264.571 28.1571C264.181 28.5476 263.547 28.5476 263.157 28.1571C262.766 27.7666 262.766 27.1334 263.157 26.7429L266.692 23.2073C267.083 22.8168 267.083 22.1836 266.692 21.7931L263.157 18.2576C262.766 17.8671 262.766 17.2339 263.157 16.8434Z" fill="white"/>
<defs>
<linearGradient id="paint0_linear" x1="260.014" y1="22" x2="34.4981" y2="22" gradientUnits="userSpaceOnUse">
<stop stop-color="#C95ADD"/>
<stop offset="0.816545" stop-color="#FFBF63"/>
</linearGradient>
<linearGradient id="paint1_linear" x1="260.014" y1="22" x2="34.4981" y2="22" gradientUnits="userSpaceOnUse">
<stop stop-color="#C95ADD"/>
<stop offset="0.816545" stop-color="#FFBF63"/>
</linearGradient>
</defs>
</svg>
