<svg width="375" height="667" viewBox="0 0 375 667" fill="none" xmlns="http://www.w3.org/2000/svg">
<rect width="375" height="667" fill="url(#paint0_linear)"/>
<path d="M-131.437 339.822C14.3638 311.485 160.949 473.107 255.014 466.023C349.079 458.939 421 333 421 333V667H-318C-315.452 594.06 -277.238 368.158 -131.437 339.822Z" fill="#2A1342"/>
<path d="M-131.437 339.822C14.3638 311.485 160.949 473.107 255.014 466.023C349.079 458.939 421 333 421 333V667H-318C-315.452 594.06 -277.238 368.158 -131.437 339.822Z" fill="url(#paint1_radial)"/>
<path d="M-131.437 339.822C14.3638 311.485 160.949 473.107 255.014 466.023C349.079 458.939 421 333 421 333V667H-318C-315.452 594.06 -277.238 368.158 -131.437 339.822Z" fill="url(#paint2_radial)"/>
<path d="M-131.437 339.822C14.3638 311.485 160.949 473.107 255.014 466.023C349.079 458.939 421 333 421 333V667H-318C-315.452 594.06 -277.238 368.158 -131.437 339.822Z" fill="url(#paint3_radial)"/>
<path fill-rule="evenodd" clip-rule="evenodd" d="M37.6777 667L37.6777 149H38.6777L38.6777 667H37.6777Z" fill="white" fill-opacity="0.07"/>
<path fill-rule="evenodd" clip-rule="evenodd" d="M82.6777 667L82.6777 49H83.6777L83.6777 667H82.6777Z" fill="white" fill-opacity="0.07"/>
<path fill-rule="evenodd" clip-rule="evenodd" d="M104.678 667L104.678 0L105.678 1.2791e-07L105.678 667H104.678Z" fill="white" fill-opacity="0.07"/>
<path fill-rule="evenodd" clip-rule="evenodd" d="M259.678 667L259.678 4.00002H260.678L260.678 667H259.678Z" fill="white" fill-opacity="0.07"/>
<path fill-rule="evenodd" clip-rule="evenodd" d="M346.677 667V52H347.677V667H346.677Z" fill="white" fill-opacity="0.07"/>
<mask id="mask0" mask-type="alpha" maskUnits="userSpaceOnUse" x="-789" y="16" width="1546" height="580">
<path d="M-195.863 472.455L-195.923 472.952L-195.863 472.455ZM-297.406 324.401L-297.376 323.902L-297.406 324.401ZM-152.807 507.503L-152.853 508.001L-152.807 507.503ZM408.632 437.555L408.957 437.936L408.632 437.555ZM178.009 230.967L177.893 230.48L178.009 230.967ZM-243.368 310.105L-243.387 310.605L-243.368 310.105ZM-117.041 530.603L-117.085 531.101L-117.041 530.603ZM460.071 435.994L459.768 435.596L460.071 435.994ZM217.766 189.271L217.631 188.79L217.766 189.271ZM-231.063 294.944L-231.049 294.445L-231.063 294.944ZM-91.8309 548.779L-91.8595 549.278L-91.8309 548.779ZM511.894 431.487L511.571 431.105L511.894 431.487ZM262.741 152.001L262.895 152.477L262.741 152.001ZM-207.27 280.053L-207.277 280.553L-207.27 280.053ZM-37.9842 584.132L-38.0193 584.631L-37.9842 584.132ZM710.788 468.291L711.135 468.651L710.788 468.291ZM364.363 20.7178L364.274 20.2258L364.363 20.7178ZM-192.305 266.213L-192.376 265.718L-192.305 266.213ZM-768.48 270.974C-678.919 296.396 -598.094 339.27 -508.454 379.625C-418.833 419.972 -320.464 457.768 -195.923 472.952L-195.802 471.959C-320.2 456.793 -418.463 419.042 -508.044 378.713C-597.606 338.393 -678.552 295.461 -768.207 270.012L-768.48 270.974ZM-195.923 472.952C-71.4356 488.129 33.0375 492.53 116.099 487.006C199.146 481.484 260.847 466.037 299.743 441.471L299.209 440.625C260.525 465.057 199.025 480.489 116.033 486.009C33.0541 491.527 -71.3524 487.132 -195.802 471.959L-195.923 472.952ZM299.743 441.471C309.523 435.294 315.343 427.765 317.766 419.347C320.188 410.935 319.202 401.699 315.492 392.133C308.078 373.016 289.742 352.461 265.563 334.203C241.372 315.936 211.279 299.928 180.274 289.931C149.274 279.934 117.324 275.935 89.4363 281.731L89.6398 282.71C117.302 276.961 149.067 280.918 179.967 290.882C210.863 300.845 240.857 316.8 264.96 335.001C289.076 353.211 307.243 373.629 314.559 392.494C318.215 401.919 319.151 410.925 316.806 419.07C314.462 427.21 308.824 434.553 299.209 440.625L299.743 441.471ZM89.4363 281.731C61.6425 287.506 38.9355 293.954 16.6802 300.14C-5.57666 306.327 -27.3834 312.253 -53.4031 316.998C-105.438 326.488 -174.356 331.263 -297.376 323.902L-297.436 324.9C-174.369 332.264 -105.365 327.492 -53.2238 317.982C-27.1558 313.228 -5.31152 307.291 16.948 301.103C39.209 294.916 61.8839 288.478 89.6398 282.71L89.4363 281.731ZM-297.376 323.902C-543.423 309.18 -630.589 286.208 -764.236 242.253L-764.549 243.203C-630.817 287.186 -543.565 310.174 -297.436 324.9L-297.376 323.902ZM-771.667 293.351C-739.427 302.689 -702.005 319.176 -659.642 339.067C-617.29 358.953 -570.005 382.24 -518.085 405.147C-414.237 450.966 -291.782 495.297 -152.853 508.001L-152.762 507.005C-291.536 494.315 -413.878 450.031 -517.682 404.232C-569.588 381.331 -616.843 358.058 -659.217 338.162C-701.578 318.272 -739.065 301.753 -771.389 292.391L-771.667 293.351ZM-152.853 508.001C-13.9908 520.699 101.513 524.407 194.762 514.336C288.009 504.265 359.057 480.411 408.957 437.936L408.308 437.174C358.626 479.464 287.807 503.281 194.655 513.342C101.505 523.402 -13.9199 519.702 -152.762 507.005L-152.853 508.001ZM408.957 437.936C433.991 416.626 441.197 390.767 435.59 364.539C429.991 338.348 411.63 311.837 385.639 289.104C333.662 243.644 250.95 213.109 177.893 230.48L178.125 231.453C250.791 214.175 333.181 244.552 384.981 289.857C410.877 312.507 429.074 338.842 434.612 364.748C440.142 390.615 433.064 416.102 408.308 437.174L408.957 437.936ZM177.893 230.48C32.0083 265.169 -1.27209 319.241 -243.348 309.606L-243.387 310.605C-1.14185 320.247 32.564 266.065 178.125 231.453L177.893 230.48ZM-243.348 309.606C-485.458 299.969 -660.676 256.982 -761.643 224.018L-761.953 224.969C-660.906 257.959 -485.598 300.964 -243.387 310.605L-243.348 309.606ZM-776.38 326.505C-737.277 337.456 -694.697 354.105 -648.265 373.33C-601.842 392.551 -551.566 414.348 -497.106 435.576C-388.179 478.035 -262.463 518.238 -117.085 531.101L-116.997 530.104C-262.242 517.254 -387.859 477.087 -496.743 434.644C-551.19 413.421 -601.439 391.635 -647.882 372.406C-694.317 353.18 -736.945 336.51 -776.111 325.542L-776.38 326.505ZM-117.085 531.101C173.571 556.816 345.91 523.731 460.375 436.391L459.768 435.596C345.612 522.701 173.595 555.814 -116.997 530.104L-117.085 531.101ZM460.375 436.391C489.113 414.463 497.921 385.241 492.541 354.47C487.167 323.734 467.646 291.472 439.776 263.332C384.05 207.068 294.717 167.069 217.631 188.79L217.902 189.752C294.509 168.166 383.484 207.917 439.065 264.036C466.848 292.087 486.229 324.174 491.556 354.642C496.877 385.076 488.185 413.913 459.768 435.596L460.375 436.391ZM217.631 188.79C63.7416 232.152 23.0577 301.406 -231.049 294.445L-231.077 295.444C23.2122 302.411 64.4031 233.004 217.902 189.752L217.631 188.79ZM-231.049 294.445C-485.203 287.482 -665.936 240.585 -757.751 197.105L-758.179 198.009C-666.2 241.566 -485.319 288.479 -231.077 295.444L-231.049 294.445ZM-782.88 372.515C-665.028 393.723 -566.268 433.661 -459.937 470.441C-353.616 507.217 -239.777 540.814 -91.8595 549.278L-91.8024 548.279C-239.588 539.823 -353.327 506.259 -459.61 469.496C-565.884 432.736 -664.752 392.757 -782.703 371.531L-782.88 372.515ZM-91.8595 549.278C203.858 566.199 391.441 533.828 512.216 431.869L511.571 431.105C391.114 532.795 203.885 565.199 -91.8024 548.279L-91.8595 549.278ZM512.216 431.869C542.518 406.287 552.135 372.66 546.991 337.472C541.851 302.307 521.976 265.589 493.316 233.717C436.014 169.995 343.379 125.429 262.588 151.525L262.895 152.477C343.158 126.551 435.407 170.816 492.572 234.386C521.145 266.16 540.898 302.703 546.002 337.616C551.102 372.506 541.577 405.773 511.571 431.105L512.216 431.869ZM262.588 151.525C101.326 203.614 57.8243 283.705 -207.262 279.554L-207.277 280.553C58.0074 284.708 102.047 204.432 262.895 152.477L262.588 151.525ZM-207.262 279.554C-472.396 275.401 -611.888 241.089 -754.389 173.484L-754.818 174.388C-612.155 242.069 -472.514 276.4 -207.277 280.553L-207.262 279.554ZM-788.479 411.884C-641.417 437.47 -518.296 476.099 -399.683 510.617C-281.076 545.133 -166.978 575.536 -38.0193 584.631L-37.949 583.634C-166.794 574.546 -280.805 544.17 -399.403 509.657C-517.995 475.146 -641.178 436.496 -788.308 410.899L-788.479 411.884ZM-38.0193 584.631C90.884 593.723 240.247 601.34 376.327 588.39C512.387 575.441 635.276 541.923 711.135 468.651L710.441 467.931C634.837 540.957 512.242 574.451 376.232 587.394C240.242 600.336 90.9511 592.725 -37.949 583.634L-38.0193 584.631ZM711.135 468.651C749.14 431.942 761.174 382.849 754.19 330.585C747.207 278.333 721.215 222.887 683.135 173.373C606.992 74.3699 482.353 -1.10718 364.274 20.2258L364.452 21.2099C482.012 -0.0294209 606.316 75.1312 682.342 173.983C720.346 223.397 746.245 278.683 753.199 330.718C760.151 382.742 748.167 431.491 710.441 467.931L711.135 468.651ZM364.274 20.2258C246.34 41.5328 172.588 93.578 95.631 144.931C18.6824 196.278 -61.4985 246.957 -192.376 265.718L-192.234 266.708C-61.1284 247.914 19.2057 197.131 96.186 145.763C173.158 94.4 246.749 42.4751 364.452 21.2099L364.274 20.2258ZM-192.376 265.718C-323.213 284.473 -460.032 235.871 -564.187 182.533C-616.256 155.869 -660.143 128.03 -691.013 106.858C-706.447 96.2722 -718.627 87.3534 -726.947 81.0818C-731.107 77.946 -734.302 75.4721 -736.456 73.7825C-737.533 72.9377 -738.35 72.289 -738.898 71.8517C-739.172 71.6331 -739.378 71.4673 -739.516 71.3563C-739.585 71.3008 -739.636 71.2589 -739.671 71.2311C-739.688 71.2171 -739.701 71.2067 -739.71 71.1997C-739.714 71.1962 -739.717 71.1937 -739.719 71.1919C-739.721 71.1902 -739.722 71.1894 -740.038 71.5775C-740.353 71.9655 -740.352 71.9665 -740.349 71.9683C-740.347 71.9701 -740.344 71.9729 -740.339 71.9765C-740.331 71.9836 -740.317 71.9943 -740.3 72.0085C-740.265 72.0368 -740.213 72.079 -740.143 72.135C-740.004 72.2469 -739.797 72.4136 -739.522 72.6331C-738.972 73.0722 -738.153 73.7227 -737.073 74.5694C-734.914 76.2627 -731.714 78.7405 -727.549 81.8803C-719.218 88.1599 -707.027 97.0876 -691.579 107.683C-660.683 128.873 -616.759 156.735 -564.643 183.423C-460.428 236.792 -323.38 285.507 -192.234 266.708L-192.376 265.718Z" fill="white" fill-opacity="0.08"/>
</mask>
<g mask="url(#mask0)">
<rect width="375" height="667" fill="#C4C4C4"/>
</g>
<g opacity="0.72">
<rect width="375" height="667" fill="url(#paint4_linear)"/>
<rect width="375" height="667" fill="url(#paint5_radial)" fill-opacity="0.15"/>
<rect width="375" height="667" fill="url(#paint6_radial)" fill-opacity="0.52"/>
<rect width="375" height="667" fill="url(#paint7_radial)" fill-opacity="0.18"/>
</g>
<defs>
<linearGradient id="paint0_linear" x1="187.5" y1="0" x2="187.5" y2="667" gradientUnits="userSpaceOnUse">
<stop stop-color="#1A1746"/>
<stop offset="1" stop-color="#1A1746"/>
</linearGradient>
<radialGradient id="paint1_radial" cx="0" cy="0" r="1" gradientUnits="userSpaceOnUse" gradientTransform="translate(-7.58478 213.883) rotate(115.785) scale(503.221 393.266)">
<stop stop-color="#7A2C81" stop-opacity="0.39"/>
<stop offset="0.901075" stop-color="#7A2C81" stop-opacity="0"/>
</radialGradient>
<radialGradient id="paint2_radial" cx="0" cy="0" r="1" gradientUnits="userSpaceOnUse" gradientTransform="translate(246 187.908) rotate(64.4705) scale(480.628 448.423)">
<stop offset="0.629834" stop-color="#20164A" stop-opacity="0.89"/>
<stop offset="1" stop-color="#1F1649" stop-opacity="0"/>
</radialGradient>
<radialGradient id="paint3_radial" cx="0" cy="0" r="1" gradientUnits="userSpaceOnUse" gradientTransform="translate(-133.397 328.015) rotate(90.2815) scale(159.524 128.054)">
<stop stop-color="#421056"/>
<stop offset="1" stop-color="#421056" stop-opacity="0"/>
</radialGradient>
<linearGradient id="paint4_linear" x1="187.5" y1="0" x2="187.5" y2="667" gradientUnits="userSpaceOnUse">
<stop stop-color="#131135"/>
<stop offset="1" stop-color="#141136"/>
</linearGradient>
<radialGradient id="paint5_radial" cx="0" cy="0" r="1" gradientUnits="userSpaceOnUse" gradientTransform="translate(166.5 313) rotate(109.835) scale(297.659 159.902)">
<stop stop-color="#9600FF"/>
<stop offset="1" stop-color="#9600FF" stop-opacity="0"/>
</radialGradient>
<radialGradient id="paint6_radial" cx="0" cy="0" r="1" gradientUnits="userSpaceOnUse" gradientTransform="translate(202.93 295.405) rotate(103.441) scale(277.187 196.174)">
<stop stop-color="#7315D7"/>
<stop offset="1" stop-color="#7315D7" stop-opacity="0"/>
</radialGradient>
<radialGradient id="paint7_radial" cx="0" cy="0" r="1" gradientUnits="userSpaceOnUse" gradientTransform="translate(165.137 364.243) rotate(90) scale(240.757 165.137)">
<stop stop-color="#FFAB00"/>
<stop offset="1" stop-color="#E0B04F" stop-opacity="0"/>
</radialGradient>
</defs>
</svg>
