<svg width="1920" height="998" viewBox="0 0 1920 998" fill="none" xmlns="http://www.w3.org/2000/svg">
<rect width="1920" height="998" fill="#1A1746"/>
<path d="M510.5 374.5C882.5 320.5 1256.5 628.5 1496.5 615C1736.5 601.5 1920 361.5 1920 361.5V998H34.5C41 859 138.5 428.5 510.5 374.5Z" fill="#2A1342"/>
<path d="M510.5 374.5C882.5 320.5 1256.5 628.5 1496.5 615C1736.5 601.5 1920 361.5 1920 361.5V998H34.5C41 859 138.5 428.5 510.5 374.5Z" fill="url(#paint0_radial)"/>
<path d="M510.5 374.5C882.5 320.5 1256.5 628.5 1496.5 615C1736.5 601.5 1920 361.5 1920 361.5V998H34.5C41 859 138.5 428.5 510.5 374.5Z" fill="url(#paint1_radial)"/>
<path d="M510.5 374.5C882.5 320.5 1256.5 628.5 1496.5 615C1736.5 601.5 1920 361.5 1920 361.5V998H34.5C41 859 138.5 428.5 510.5 374.5Z" fill="url(#paint2_radial)"/>
<path d="M0 478C220.5 508 411.5 626.5 711 620.5C1010.5 614.5 1208 571 1291.5 500C1375 429 1144 301.5 1016.5 347.5C889 393.5 859.5 438.5 566 462.5C272.5 486.5 165.5 474 0 444.5" stroke="white" stroke-opacity="0.08"/>
<path d="M0 505C159 527.5 435.13 671.404 767.815 654.702C1100.5 638 1316.5 594.5 1420 477.5C1523.5 360.5 1279 206.5 1112.5 272C946 337.5 915.5 407.147 627.5 436.5C339.5 465.853 125 444.5 0 422.5" stroke="white" stroke-opacity="0.08"/>
<path d="M0 545C192.5 570.5 465.983 694.5 814 676C1162.02 657.5 1360.06 589.382 1480.57 466.997C1601.07 344.612 1326.97 138.921 1152.5 216C978.03 293.079 941.285 381.958 639.5 416.5C337.715 451.042 116 426 0 390" stroke="white" stroke-opacity="0.08"/>
<path d="M0 600.5C286 611 494.328 723.005 846.872 693.253C1199.42 663.5 1415.59 593.661 1541.09 452.946C1666.6 312.231 1381.12 75.7328 1199.42 164.356C1017.71 252.98 979.438 355.171 665.132 394.886C350.826 434.601 180 417.5 0 361.5" stroke="white" stroke-opacity="0.08"/>
<path d="M0 648C356.524 659.021 608.563 747.881 916.5 726C1224.44 704.119 1628 661.5 1782.5 463C1937 264.5 1569 -98 1297.5 -8.00002C1026 82 984 287.5 680.5 376C377 464.5 0 238 0 238" stroke="white" stroke-opacity="0.08"/>
<path fill-rule="evenodd" clip-rule="evenodd" d="M219 998L219 290L220 290L220 998L219 998Z" fill="white" fill-opacity="0.07"/>
<path fill-rule="evenodd" clip-rule="evenodd" d="M533 998L533 154L534 154L534 998L533 998Z" fill="white" fill-opacity="0.07"/>
<path fill-rule="evenodd" clip-rule="evenodd" d="M608 998L608 119L609 119L609 998L608 998Z" fill="white" fill-opacity="0.07"/>
<path fill-rule="evenodd" clip-rule="evenodd" d="M755 998L755 87L756 87L756 998L755 998Z" fill="white" fill-opacity="0.07"/>
<path fill-rule="evenodd" clip-rule="evenodd" d="M1107 998L1107 92L1108 92L1108 998L1107 998Z" fill="white" fill-opacity="0.07"/>
<path fill-rule="evenodd" clip-rule="evenodd" d="M1225 998L1225 199L1226 199L1226 998L1225 998Z" fill="white" fill-opacity="0.07"/>
<path fill-rule="evenodd" clip-rule="evenodd" d="M1467 998L1467 158L1468 158L1468 998L1467 998Z" fill="white" fill-opacity="0.07"/>
<path fill-rule="evenodd" clip-rule="evenodd" d="M1434 998L1434 158L1435 158L1435 998L1434 998Z" fill="white" fill-opacity="0.07"/>
<g opacity="0.16">
<path d="M1060.65 -0.00921631C1099.56 102.3 1198.54 175 1314.5 175C1430.58 175 1529.34 102.458 1568.17 -0.00919652L1060.65 -0.00921631Z" fill="#1D164A"/>
<path d="M1060.65 -0.00921631C1099.56 102.3 1198.54 175 1314.5 175C1430.58 175 1529.34 102.458 1568.17 -0.00919652L1060.65 -0.00921631Z" fill="url(#paint3_linear)"/>
</g>
<g opacity="0.72">
<rect width="1920" height="998" fill="url(#paint4_radial)" fill-opacity="0.15"/>
<rect width="1920" height="998" fill="url(#paint5_radial)" fill-opacity="0.52"/>
<rect width="1920" height="998" fill="url(#paint6_radial)" fill-opacity="0.18"/>
</g>
<rect width="1920" height="420" fill="url(#paint7_linear)"/>
<rect width="1920" height="998" fill="url(#paint8_radial)"/>
<defs>
<radialGradient id="paint0_radial" cx="0" cy="0" r="1" gradientUnits="userSpaceOnUse" gradientTransform="translate(826.5 134.5) rotate(122.894) scale(1028.37 935.681)">
<stop stop-color="#7A2C81" stop-opacity="0.39"/>
<stop offset="0.901075" stop-color="#7A2C81" stop-opacity="0"/>
</radialGradient>
<radialGradient id="paint1_radial" cx="0" cy="0" r="1" gradientUnits="userSpaceOnUse" gradientTransform="translate(1473.5 84.9998) rotate(57.4034) scale(981.027 1068.19)">
<stop offset="0.629834" stop-color="#20164A" stop-opacity="0.89"/>
<stop offset="1" stop-color="#1F1649" stop-opacity="0"/>
</radialGradient>
<radialGradient id="paint2_radial" cx="0" cy="0" r="1" gradientUnits="userSpaceOnUse" gradientTransform="translate(505.5 352) rotate(90.3769) scale(304.006 326.716)">
<stop stop-color="#421056"/>
<stop offset="1" stop-color="#421056" stop-opacity="0"/>
</radialGradient>
<linearGradient id="paint3_linear" x1="1340.5" y1="1.63905e-06" x2="1240.5" y2="187" gradientUnits="userSpaceOnUse">
<stop stop-color="#1F184A"/>
<stop offset="1" stop-color="#E5239C"/>
</linearGradient>
<radialGradient id="paint4_radial" cx="0" cy="0" r="1" gradientUnits="userSpaceOnUse" gradientTransform="translate(828 419) rotate(113.486) scale(562.064 755.628)">
<stop stop-color="#9600FF"/>
<stop offset="1" stop-color="#9600FF" stop-opacity="0"/>
</radialGradient>
<radialGradient id="paint5_radial" cx="0" cy="0" r="1" gradientUnits="userSpaceOnUse" gradientTransform="translate(1039 442) rotate(90) scale(292)">
<stop stop-color="#7315D7"/>
<stop offset="1" stop-color="#7315D7" stop-opacity="0"/>
</radialGradient>
<radialGradient id="paint6_radial" cx="0" cy="0" r="1" gradientUnits="userSpaceOnUse" gradientTransform="translate(845.5 545) rotate(90) scale(235.5)">
<stop stop-color="#FFAB00"/>
<stop offset="1" stop-color="#E0B04F" stop-opacity="0"/>
</radialGradient>
<linearGradient id="paint7_linear" x1="960" y1="0" x2="960" y2="420" gradientUnits="userSpaceOnUse">
<stop stop-color="#0F0E2D" stop-opacity="0.79"/>
<stop offset="1" stop-color="#0F0E2D" stop-opacity="0"/>
</linearGradient>
<radialGradient id="paint8_radial" cx="0" cy="0" r="1" gradientUnits="userSpaceOnUse" gradientTransform="translate(960 499) scale(979.5 730.516)">
<stop offset="0.403315" stop-color="#131035" stop-opacity="0"/>
<stop offset="0.756906" stop-color="#131035" stop-opacity="0.5"/>
<stop offset="1" stop-color="#131035"/>
</radialGradient>
</defs>
</svg>
