<svg width="1920" height="697" viewBox="0 0 1920 697" fill="none" xmlns="http://www.w3.org/2000/svg">
<mask id="mask0" mask-type="alpha" maskUnits="userSpaceOnUse" x="0" y="0" width="1920" height="698">
<path d="M1920 697V536.5C1581 275 1224 497.5 972 453.5C720 409.5 747.5 95 467 22.5005C186.5 -49.9989 0 80.0003 0 80.0003V697H1920Z" fill="black"/>
</mask>
<g mask="url(#mask0)">
<rect x="1" y="-51.0005" width="1920" height="748" fill="#1A1746"/>
<path d="M484.71 306.149C863.516 272.298 1244.36 465.373 1488.75 456.91C1733.14 448.447 1920 298 1920 298V697H0C6.61893 609.865 105.903 340 484.71 306.149Z" fill="#2A1342"/>
<path d="M484.71 306.149C863.516 272.298 1244.36 465.373 1488.75 456.91C1733.14 448.447 1920 298 1920 298V697H0C6.61893 609.865 105.903 340 484.71 306.149Z" fill="url(#paint0_radial)"/>
<path d="M484.71 306.149C863.516 272.298 1244.36 465.373 1488.75 456.91C1733.14 448.447 1920 298 1920 298V697H0C6.61893 609.865 105.903 340 484.71 306.149Z" fill="url(#paint1_radial)"/>
<path d="M484.71 306.149C863.516 272.298 1244.36 465.373 1488.75 456.91C1733.14 448.447 1920 298 1920 298V697H0C6.61893 609.865 105.903 340 484.71 306.149Z" fill="url(#paint2_radial)"/>
<path fill-rule="evenodd" clip-rule="evenodd" d="M220 697L220 270.161L221 270.161L221 697L220 697Z" fill="white" fill-opacity="0.07"/>
<path fill-rule="evenodd" clip-rule="evenodd" d="M534 697L534 188.169L535 188.169L535 697L534 697Z" fill="white" fill-opacity="0.07"/>
<path fill-rule="evenodd" clip-rule="evenodd" d="M609 697L609 167.068L610 167.068L610 697L609 697Z" fill="white" fill-opacity="0.07"/>
<path fill-rule="evenodd" clip-rule="evenodd" d="M756 697L756 147.776L757 147.776L757 697L756 697Z" fill="white" fill-opacity="0.07"/>
<path fill-rule="evenodd" clip-rule="evenodd" d="M1108 697L1108 150.791L1109 150.791L1109 697L1108 697Z" fill="white" fill-opacity="0.07"/>
<path fill-rule="evenodd" clip-rule="evenodd" d="M1226 697L1226 215.299L1227 215.299L1227 697L1226 697Z" fill="white" fill-opacity="0.07"/>
<path fill-rule="evenodd" clip-rule="evenodd" d="M1468 697L1468 190.581L1469 190.581L1469 697L1468 697Z" fill="white" fill-opacity="0.07"/>
<path fill-rule="evenodd" clip-rule="evenodd" d="M1435 697L1435 190.581L1436 190.581L1436 697L1435 697Z" fill="white" fill-opacity="0.07"/>
<rect x="1" y="-34.0005" width="1920" height="731" fill="url(#paint3_radial)"/>
</g>
<defs>
<radialGradient id="paint0_radial" cx="0" cy="0" r="1" gradientUnits="userSpaceOnUse" gradientTransform="translate(806.491 155.701) rotate(136.415) scale(785.14 782.314)">
<stop stop-color="#7A2C81" stop-opacity="0.39"/>
<stop offset="0.901075" stop-color="#7A2C81" stop-opacity="0"/>
</radialGradient>
<radialGradient id="paint1_radial" cx="0" cy="0" r="1" gradientUnits="userSpaceOnUse" gradientTransform="translate(1465.33 124.671) rotate(43.9117) scale(747.034 895.447)">
<stop offset="0.629834" stop-color="#20164A" stop-opacity="0.89"/>
<stop offset="1" stop-color="#1F1649" stop-opacity="0"/>
</radialGradient>
<radialGradient id="paint2_radial" cx="0" cy="0" r="1" gradientUnits="userSpaceOnUse" gradientTransform="translate(479.618 292.044) rotate(90.6123) scale(190.578 332.682)">
<stop stop-color="#421056"/>
<stop offset="1" stop-color="#421056" stop-opacity="0"/>
</radialGradient>
<radialGradient id="paint3_radial" cx="0" cy="0" r="1" gradientUnits="userSpaceOnUse" gradientTransform="translate(961 331.5) scale(979.5 535.077)">
<stop offset="0.403315" stop-color="#131035" stop-opacity="0"/>
<stop offset="0.756906" stop-color="#131035" stop-opacity="0.5"/>
<stop offset="1" stop-color="#131035"/>
</radialGradient>
</defs>
</svg>
