<svg width="1920" height="172" viewBox="0 0 1920 172" fill="none" xmlns="http://www.w3.org/2000/svg">
<mask id="mask0" mask-type="alpha" maskUnits="userSpaceOnUse" x="0" y="-2" width="1920" height="171">
<path d="M6.10352e-05 -2H1920V128.855C1920 128.855 1532.58 -31.7332 955.023 100.237C377.463 232.208 166.32 140.791 6.10352e-05 100.237V-2Z" fill="#C4C4C4"/>
</mask>
<g mask="url(#mask0)">
<rect x="-28" y="-41.0076" width="1948" height="1625.11" fill="#1A1746"/>
<path d="M-28 1014.17C333.724 1032.12 589.438 1176.82 901.866 1141.19C1214.29 1105.56 1623.74 1036.16 1780.49 712.926C1937.25 389.695 1563.88 -200.588 1288.42 -54.0346C1012.96 92.5184 970.35 427.148 662.424 571.258C354.498 715.369 -28 346.544 -28 346.544" stroke="white" stroke-opacity="0.08"/>
<path fill-rule="evenodd" clip-rule="evenodd" d="M588.867 1584.1L588.867 152.768L589.881 152.768L589.881 1584.1L588.867 1584.1Z" fill="white" fill-opacity="0.07"/>
<path fill-rule="evenodd" clip-rule="evenodd" d="M738.01 1584.1L738.01 100.66L739.025 100.66L739.025 1584.1L738.01 1584.1Z" fill="white" fill-opacity="0.07"/>
<path fill-rule="evenodd" clip-rule="evenodd" d="M1095.14 1584.1L1095.14 108.802L1096.16 108.802L1096.16 1584.1L1095.14 1584.1Z" fill="white" fill-opacity="0.07"/>
<g opacity="0.16">
<path d="M1048.11 -41.0227C1087.59 125.574 1188.02 243.957 1305.67 243.957C1423.44 243.957 1523.65 125.832 1563.04 -41.0227L1048.11 -41.0227Z" fill="#1D164A"/>
<path d="M1048.11 -41.0227C1087.59 125.574 1188.02 243.957 1305.67 243.957C1423.44 243.957 1523.65 125.832 1563.04 -41.0227L1048.11 -41.0227Z" fill="url(#paint0_linear)"/>
</g>
<g opacity="0.72">
<rect x="-28" y="-41.0076" width="1948" height="1625.11" fill="url(#paint1_radial)" fill-opacity="0.15"/>
<rect x="-28" y="-41.0076" width="1948" height="1625.11" fill="url(#paint2_radial)" fill-opacity="0.52"/>
<rect x="-28" y="-41.0076" width="1948" height="1625.11" fill="url(#paint3_radial)" fill-opacity="0.18"/>
</g>
<rect x="-28" y="-41.0076" width="1948" height="683.914" fill="url(#paint4_linear)"/>
<rect x="-28" y="-41.0076" width="1948" height="1625.11" fill="url(#paint5_radial)"/>
</g>
<defs>
<linearGradient id="paint0_linear" x1="1332.05" y1="-41.0077" x2="1138.52" y2="184.478" gradientUnits="userSpaceOnUse">
<stop stop-color="#1F184A"/>
<stop offset="1" stop-color="#E5239C"/>
</linearGradient>
<radialGradient id="paint1_radial" cx="0" cy="0" r="1" gradientUnits="userSpaceOnUse" gradientTransform="translate(812.075 641.279) rotate(105.149) scale(869.645 806.849)">
<stop stop-color="#9600FF"/>
<stop offset="1" stop-color="#9600FF" stop-opacity="0"/>
</radialGradient>
<radialGradient id="paint2_radial" cx="0" cy="0" r="1" gradientUnits="userSpaceOnUse" gradientTransform="translate(1026.15 678.731) rotate(90) scale(475.483 296.258)">
<stop stop-color="#7315D7"/>
<stop offset="1" stop-color="#7315D7" stop-opacity="0"/>
</radialGradient>
<radialGradient id="paint3_radial" cx="0" cy="0" r="1" gradientUnits="userSpaceOnUse" gradientTransform="translate(829.83 846.453) rotate(90) scale(383.481 238.934)">
<stop stop-color="#FFAB00"/>
<stop offset="1" stop-color="#E0B04F" stop-opacity="0"/>
</radialGradient>
<linearGradient id="paint4_linear" x1="946" y1="-41.0076" x2="946" y2="642.907" gradientUnits="userSpaceOnUse">
<stop stop-color="#0F0E2D" stop-opacity="0.79"/>
<stop offset="1" stop-color="#0F0E2D" stop-opacity="0"/>
</linearGradient>
<radialGradient id="paint5_radial" cx="0" cy="0" r="1" gradientUnits="userSpaceOnUse" gradientTransform="translate(946 771.548) scale(993.784 1189.55)">
<stop offset="0.403315" stop-color="#131035" stop-opacity="0"/>
<stop offset="0.756906" stop-color="#131035" stop-opacity="0.5"/>
<stop offset="1" stop-color="#131035"/>
</radialGradient>
</defs>
</svg>
