<svg width="320" height="190" viewBox="0 0 320 190" fill="none" xmlns="http://www.w3.org/2000/svg">
<path d="M320 0.00244141H0V190H320V0.00244141Z" fill="#F0F0F0"/>
<path d="M180 0H140V77.1854H0V112.81H140V189.995H180V112.81H320V77.1854H180V0Z" fill="#D80027"/>
<path d="M246.115 128.04L320 164.597V128.04H246.115Z" fill="#0052B4"/>
<path d="M194.782 128.04L320 189.995V172.476L230.192 128.04H194.782Z" fill="#0052B4"/>
<path d="M286.646 189.995L194.782 144.539V189.995H286.646Z" fill="#0052B4"/>
<path d="M194.782 128.04L320 189.995V172.476L230.192 128.04H194.782Z" fill="#F0F0F0"/>
<path d="M194.782 128.04L320 189.995V172.476L230.192 128.04H194.782Z" fill="#D80027"/>
<path d="M56.4631 128.039L0 155.976V128.039H56.4631Z" fill="#0052B4"/>
<path d="M125.218 135.917V189.994H15.9319L125.218 135.917Z" fill="#0052B4"/>
<path d="M89.8081 128.04L0 172.476V189.995L125.218 128.04H89.8081Z" fill="#D80027"/>
<path d="M73.8844 61.955L0 25.3978V61.955H73.8844Z" fill="#0052B4"/>
<path d="M125.218 61.955L0 0V17.5193L89.8081 61.955H125.218Z" fill="#0052B4"/>
<path d="M33.3538 0L125.218 45.4565V0H33.3538Z" fill="#0052B4"/>
<path d="M125.218 61.955L0 0V17.5193L89.8081 61.955H125.218Z" fill="#F0F0F0"/>
<path d="M125.218 61.955L0 0V17.5193L89.8081 61.955H125.218Z" fill="#D80027"/>
<path d="M263.537 61.9561L320 34.0189V61.9561H263.537Z" fill="#0052B4"/>
<path d="M194.782 54.0777V0.000732422H304.068L194.782 54.0777Z" fill="#0052B4"/>
<path d="M230.192 61.955L320 17.5193V0L194.782 61.955H230.192Z" fill="#D80027"/>
</svg>
