<svg width="34" height="33" viewBox="0 0 34 33" fill="none" xmlns="http://www.w3.org/2000/svg">
<g opacity="0.75">
<g opacity="0.75">
<path opacity="0.75" d="M16.9 32.3999C25.6814 32.3999 32.8 25.3711 32.8 16.7002C32.8 8.02932 25.6814 1 16.9 1C8.1187 1 1 8.02932 1 16.7002C1 25.3711 8.1187 32.3999 16.9 32.3999Z" stroke="white" stroke-miterlimit="10"/>
</g>
</g>
<g opacity="0.5">
<path d="M16.3438 17.4453H11.8438V20.4922H17.125V22.375H9.5V11H17.1094V12.8984H11.8438V15.6094H16.3438V17.4453Z" fill="white"/>
<path d="M20.4297 13.9219L20.5 14.8984C21.1042 14.1432 21.9141 13.7656 22.9297 13.7656C23.8255 13.7656 24.4922 14.0286 24.9297 14.5547C25.3672 15.0807 25.5911 15.8672 25.6016 16.9141V22.375H23.3438V16.9688C23.3438 16.4896 23.2396 16.1432 23.0312 15.9297C22.8229 15.7109 22.4766 15.6016 21.9922 15.6016C21.3568 15.6016 20.8802 15.8724 20.5625 16.4141V22.375H18.3047V13.9219H20.4297Z" fill="white"/>
</g>
</svg>
