<svg width="35" height="35" viewBox="0 0 35 35" fill="none" xmlns="http://www.w3.org/2000/svg">
<g opacity="0.75">
<g opacity="0.75">
<path opacity="0.75" d="M17.7 34C26.9232 34 34.4 26.6127 34.4 17.5C34.4 8.3873 26.9232 1 17.7 1C8.47686 1 1 8.3873 1 17.5C1 26.6127 8.47686 34 17.7 34Z" stroke="#3D3D3D" stroke-miterlimit="10"/>
</g>
</g>
<g opacity="0.5">
<path d="M16.3438 17.4453H11.8438V20.4922H17.125V22.375H9.5V11H17.1094V12.8984H11.8438V15.6094H16.3438V17.4453Z" fill="#3D3D3D"/>
<path d="M20.4297 13.9219L20.5 14.8984C21.1042 14.1432 21.9141 13.7656 22.9297 13.7656C23.8255 13.7656 24.4922 14.0286 24.9297 14.5547C25.3672 15.0807 25.5911 15.8672 25.6016 16.9141V22.375H23.3438V16.9688C23.3438 16.4896 23.2396 16.1432 23.0312 15.9297C22.8229 15.7109 22.4766 15.6016 21.9922 15.6016C21.3568 15.6016 20.8802 15.8724 20.5625 16.4141V22.375H18.3047V13.9219H20.4297Z" fill="#3D3D3D"/>
</g>
</svg>
