<svg width="34" height="33" viewBox="0 0 34 33" fill="none" xmlns="http://www.w3.org/2000/svg">
<g opacity="0.5">
<path d="M12.7109 18.2109H10.8438V22.375H8.5V11H12.7266C14.0703 11 15.1068 11.2995 15.8359 11.8984C16.5651 12.4974 16.9297 13.3438 16.9297 14.4375C16.9297 15.2135 16.7604 15.862 16.4219 16.3828C16.0885 16.8984 15.5807 17.3099 14.8984 17.6172L17.3594 22.2656V22.375H14.8438L12.7109 18.2109ZM10.8438 16.3125H12.7344C13.3229 16.3125 13.7786 16.1641 14.1016 15.8672C14.4245 15.5651 14.5859 15.151 14.5859 14.625C14.5859 14.0885 14.4323 13.6667 14.125 13.3594C13.8229 13.0521 13.3568 12.8984 12.7266 12.8984H10.8438V16.3125Z" fill="white"/>
<path d="M23.6328 21.5156C23.0755 22.1927 22.3047 22.5312 21.3203 22.5312C20.4141 22.5312 19.7214 22.2708 19.2422 21.75C18.7682 21.2292 18.526 20.4661 18.5156 19.4609V13.9219H20.7734V19.3828C20.7734 20.263 21.1745 20.7031 21.9766 20.7031C22.7422 20.7031 23.2682 20.4375 23.5547 19.9062V13.9219H25.8203V22.375H23.6953L23.6328 21.5156Z" fill="white"/>
</g>
<g opacity="0.75">
<g opacity="0.75">
<path opacity="0.75" d="M16.9 32.3999C25.6814 32.3999 32.8 25.3711 32.8 16.7002C32.8 8.02932 25.6814 1 16.9 1C8.1187 1 1 8.02932 1 16.7002C1 25.3711 8.1187 32.3999 16.9 32.3999Z" stroke="white" stroke-miterlimit="10"/>
</g>
</g>
</svg>
