<?xml version="1.0" encoding="utf-8"?>
<!-- Generator: Adobe Illustrator 20.1.0, SVG Export Plug-In . SVG Version: 6.00 Build 0)  -->
<svg version="1.1" id="Layer_1" xmlns="http://www.w3.org/2000/svg" xmlns:xlink="http://www.w3.org/1999/xlink" x="0px" y="0px"
	 viewBox="0 0 34.5 34.1" enable-background="new 0 0 34.5 34.1" xml:space="preserve">
<g>
	<g transform="translate(-581 -5974)" opacity="0.75">
		<g>
			<path id="qy18b" fill="#FFFFFF" stroke="#FFFFFF" stroke-miterlimit="10" d="M601.1,5990.6h-2.3v0.3l0,8.1c0,0,0,0,0,0
				c-1.1,0-2.2,0-3.2,0c0-2.7,0-5.4,0-8.1v-0.3h-2.1v-2.9h2.1c0-0.1,0-0.2,0-0.3c0-0.7,0-1.5,0-2.2c0-0.5,0.1-1,0.3-1.5
				c0.4-0.8,1-1.3,1.9-1.4c0.4-0.1,0.9-0.1,1.3-0.1c0.7,0,1.4,0,2.1,0c0.2,0,0.2,0,0.2,0.2c0,0.8,0,1.6,0,2.5c0,0.2,0,0.2-0.2,0.2
				c-0.5,0-1,0-1.5,0c-0.7,0-0.9,0.2-0.9,0.9c0,0.5,0,1.1,0,1.7h2.6L601.1,5990.6L601.1,5990.6z"/>
		</g>
	</g>
	<g transform="translate(-581 -5974)" opacity="0.75">
		<g>
			<defs>
				<ellipse id="SVGID_1_" cx="597.4" cy="5990.2" rx="15.9" ry="15.7"/>
			</defs>
			<clipPath id="SVGID_2_">
				<use xlink:href="#SVGID_1_"  overflow="visible"/>
			</clipPath>
			<use xlink:href="#SVGID_1_"  overflow="visible" fill="none" stroke="#FFFFFF" stroke-miterlimit="10"/>
		</g>
	</g>
</g>
</svg>
