<svg width="329" height="207" viewBox="0 0 329 207" fill="none" xmlns="http://www.w3.org/2000/svg">
<path d="M274.875 21.9141H264.438V20.7344H274.875V21.9141ZM53.4844 53.9766C54 53.9766 54.4505 53.8203 54.8359 53.5078C55.2214 53.1953 55.4349 52.8047 55.4766 52.3359H56.8438C56.8177 52.8203 56.651 53.2812 56.3438 53.7188C56.0365 54.1562 55.625 54.5052 55.1094 54.7656C54.599 55.026 54.0573 55.1562 53.4844 55.1562C52.3333 55.1562 51.4167 54.7734 50.7344 54.0078C50.0573 53.237 49.7188 52.1849 49.7188 50.8516V50.6094C49.7188 49.7865 49.8698 49.0547 50.1719 48.4141C50.474 47.7734 50.9062 47.276 51.4688 46.9219C52.0365 46.5677 52.7057 46.3906 53.4766 46.3906C54.4245 46.3906 55.2109 46.6745 55.8359 47.2422C56.4661 47.8099 56.8021 48.5469 56.8438 49.4531H55.4766C55.4349 48.9062 55.2266 48.4583 54.8516 48.1094C54.4818 47.7552 54.0234 47.5781 53.4766 47.5781C52.7422 47.5781 52.1719 47.8438 51.7656 48.375C51.3646 48.901 51.1641 49.6641 51.1641 50.6641V50.9375C51.1641 51.9115 51.3646 52.6615 51.7656 53.1875C52.1667 53.7135 52.7396 53.9766 53.4844 53.9766ZM58.0859 50.6953C58.0859 49.8672 58.2474 49.1224 58.5703 48.4609C58.8984 47.7995 59.3516 47.2891 59.9297 46.9297C60.513 46.5703 61.1771 46.3906 61.9219 46.3906C63.0729 46.3906 64.0026 46.7891 64.7109 47.5859C65.4245 48.3828 65.7812 49.4427 65.7812 50.7656V50.8672C65.7812 51.6901 65.6224 52.4297 65.3047 53.0859C64.9922 53.737 64.5417 54.2448 63.9531 54.6094C63.3698 54.974 62.6979 55.1562 61.9375 55.1562C60.7917 55.1562 59.862 54.7578 59.1484 53.9609C58.4401 53.1641 58.0859 52.1094 58.0859 50.7969V50.6953ZM59.5391 50.8672C59.5391 51.8047 59.7552 52.5573 60.1875 53.125C60.625 53.6927 61.2083 53.9766 61.9375 53.9766C62.6719 53.9766 63.2552 53.6901 63.6875 53.1172C64.1198 52.5391 64.3359 51.7318 64.3359 50.6953C64.3359 49.7682 64.1146 49.0182 63.6719 48.4453C63.2344 47.8672 62.651 47.5781 61.9219 47.5781C61.2083 47.5781 60.6328 47.862 60.1953 48.4297C59.7578 48.9974 59.5391 49.8099 59.5391 50.8672ZM67.7188 46.5469H69.1719V53.8203H73.0625V46.5469H74.5078V53.8203H75.5156L75.375 57.5078H74.0781V55H67.7188V46.5469ZM82.5469 46.5469H83.9922V55H82.5469V48.8359L78.6484 55H77.2031V46.5469H78.6484V52.7188L82.5469 46.5469ZM91.5312 55C91.4479 54.8333 91.3802 54.5365 91.3281 54.1094C90.6562 54.8073 89.8542 55.1562 88.9219 55.1562C88.0885 55.1562 87.4036 54.9219 86.8672 54.4531C86.3359 53.9792 86.0703 53.3802 86.0703 52.6562C86.0703 51.776 86.4036 51.0938 87.0703 50.6094C87.7422 50.1198 88.6849 49.875 89.8984 49.875H91.3047V49.2109C91.3047 48.7057 91.1536 48.3047 90.8516 48.0078C90.5495 47.7057 90.1042 47.5547 89.5156 47.5547C89 47.5547 88.5677 47.6849 88.2188 47.9453C87.8698 48.2057 87.6953 48.5208 87.6953 48.8906H86.2422C86.2422 48.4688 86.3906 48.0625 86.6875 47.6719C86.9896 47.276 87.3958 46.9635 87.9062 46.7344C88.4219 46.5052 88.987 46.3906 89.6016 46.3906C90.5755 46.3906 91.3385 46.6354 91.8906 47.125C92.4427 47.6094 92.7292 48.2786 92.75 49.1328V53.0234C92.75 53.7995 92.849 54.4167 93.0469 54.875V55H91.5312ZM89.1328 53.8984C89.5859 53.8984 90.0156 53.7812 90.4219 53.5469C90.8281 53.3125 91.1224 53.0078 91.3047 52.6328V50.8984H90.1719C88.401 50.8984 87.5156 51.4167 87.5156 52.4531C87.5156 52.9062 87.6667 53.2604 87.9688 53.5156C88.2708 53.7708 88.6589 53.8984 89.1328 53.8984ZM101.945 46.5469V55H100.492V47.7422H97.6172L97.4453 50.9062C97.3516 52.3594 97.1068 53.3984 96.7109 54.0234C96.3203 54.6484 95.6979 54.974 94.8438 55H94.2656V53.7266L94.6797 53.6953C95.1484 53.6432 95.4844 53.3724 95.6875 52.8828C95.8906 52.3932 96.0208 51.487 96.0781 50.1641L96.2344 46.5469H101.945ZM105.844 49.4609H108.039C108.997 49.4714 109.755 49.7214 110.312 50.2109C110.87 50.7005 111.148 51.3646 111.148 52.2031C111.148 53.0469 110.862 53.724 110.289 54.2344C109.716 54.7448 108.945 55 107.977 55H104.398V46.5469H105.844V49.4609ZM105.844 50.6406V53.8203H107.992C108.534 53.8203 108.953 53.6823 109.25 53.4062C109.547 53.125 109.695 52.7422 109.695 52.2578C109.695 51.7891 109.549 51.4062 109.258 51.1094C108.971 50.8073 108.568 50.651 108.047 50.6406H105.844ZM119.859 55H118.414V51.3906H114.531V55H113.078V46.5469H114.531V50.2109H118.414V46.5469H119.859V55ZM123.766 49.4609H125.961C126.919 49.4714 127.677 49.7214 128.234 50.2109C128.792 50.7005 129.07 51.3646 129.07 52.2031C129.07 53.0469 128.784 53.724 128.211 54.2344C127.638 54.7448 126.867 55 125.898 55H122.32V46.5469H123.766V49.4609ZM132.086 55H130.633V46.5469H132.086V55ZM123.766 50.6406V53.8203H125.914C126.456 53.8203 126.875 53.6823 127.172 53.4062C127.469 53.125 127.617 52.7422 127.617 52.2578C127.617 51.7891 127.471 51.4062 127.18 51.1094C126.893 50.8073 126.49 50.651 125.969 50.6406H123.766ZM140.078 46.5469H141.523V55H140.078V48.8359L136.18 55H134.734V46.5469H136.18V52.7188L140.078 46.5469ZM140.469 43.4688C140.469 44.099 140.253 44.6068 139.82 44.9922C139.393 45.3724 138.831 45.5625 138.133 45.5625C137.435 45.5625 136.87 45.3698 136.438 44.9844C136.005 44.599 135.789 44.0938 135.789 43.4688H136.969C136.969 43.8333 137.068 44.1198 137.266 44.3281C137.464 44.5312 137.753 44.6328 138.133 44.6328C138.497 44.6328 138.781 44.5312 138.984 44.3281C139.193 44.125 139.297 43.8385 139.297 43.4688H140.469ZM147.43 50.6953C147.43 49.8672 147.591 49.1224 147.914 48.4609C148.242 47.7995 148.695 47.2891 149.273 46.9297C149.857 46.5703 150.521 46.3906 151.266 46.3906C152.417 46.3906 153.346 46.7891 154.055 47.5859C154.768 48.3828 155.125 49.4427 155.125 50.7656V50.8672C155.125 51.6901 154.966 52.4297 154.648 53.0859C154.336 53.737 153.885 54.2448 153.297 54.6094C152.714 54.974 152.042 55.1562 151.281 55.1562C150.135 55.1562 149.206 54.7578 148.492 53.9609C147.784 53.1641 147.43 52.1094 147.43 50.7969V50.6953ZM148.883 50.8672C148.883 51.8047 149.099 52.5573 149.531 53.125C149.969 53.6927 150.552 53.9766 151.281 53.9766C152.016 53.9766 152.599 53.6901 153.031 53.1172C153.464 52.5391 153.68 51.7318 153.68 50.6953C153.68 49.7682 153.458 49.0182 153.016 48.4453C152.578 47.8672 151.995 47.5781 151.266 47.5781C150.552 47.5781 149.977 47.862 149.539 48.4297C149.102 48.9974 148.883 49.8099 148.883 50.8672ZM160.648 47.0312C161.711 47.0312 162.56 47.388 163.195 48.1016C163.836 48.8099 164.156 49.7448 164.156 50.9062V51.0391C164.156 51.8359 164.003 52.5495 163.695 53.1797C163.388 53.8047 162.945 54.2917 162.367 54.6406C161.794 54.9844 161.133 55.1562 160.383 55.1562C159.247 55.1562 158.333 54.7786 157.641 54.0234C156.948 53.263 156.602 52.2448 156.602 50.9688V50.2656C156.602 48.4896 156.93 47.0781 157.586 46.0312C158.247 44.9844 159.221 44.3464 160.508 44.1172C161.237 43.987 161.729 43.8281 161.984 43.6406C162.24 43.4531 162.367 43.1953 162.367 42.8672H163.555C163.555 43.5182 163.406 44.026 163.109 44.3906C162.818 44.7552 162.349 45.013 161.703 45.1641L160.625 45.4062C159.766 45.6094 159.12 45.9531 158.688 46.4375C158.26 46.9167 157.982 47.5573 157.852 48.3594C158.617 47.474 159.549 47.0312 160.648 47.0312ZM160.367 48.2188C159.659 48.2188 159.096 48.4583 158.68 48.9375C158.263 49.4115 158.055 50.0703 158.055 50.9141V51.0391C158.055 51.9453 158.263 52.6641 158.68 53.1953C159.102 53.7214 159.669 53.9844 160.383 53.9844C161.102 53.9844 161.669 53.7188 162.086 53.1875C162.503 52.6562 162.711 51.8802 162.711 50.8594C162.711 50.0625 162.5 49.4245 162.078 48.9453C161.661 48.4609 161.091 48.2188 160.367 48.2188ZM172.781 50.8672C172.781 52.1536 172.487 53.1901 171.898 53.9766C171.31 54.763 170.513 55.1562 169.508 55.1562C168.482 55.1562 167.674 54.8307 167.086 54.1797V58.25H165.641V46.5469H166.961L167.031 47.4844C167.62 46.7552 168.438 46.3906 169.484 46.3906C170.5 46.3906 171.302 46.7734 171.891 47.5391C172.484 48.3047 172.781 49.3698 172.781 50.7344V50.8672ZM171.336 50.7031C171.336 49.75 171.133 48.9974 170.727 48.4453C170.32 47.8932 169.763 47.6172 169.055 47.6172C168.18 47.6172 167.523 48.0052 167.086 48.7812V52.8203C167.518 53.5911 168.18 53.9766 169.07 53.9766C169.763 53.9766 170.312 53.7031 170.719 53.1562C171.13 52.6042 171.336 51.7865 171.336 50.7031ZM179.844 55C179.76 54.8333 179.693 54.5365 179.641 54.1094C178.969 54.8073 178.167 55.1562 177.234 55.1562C176.401 55.1562 175.716 54.9219 175.18 54.4531C174.648 53.9792 174.383 53.3802 174.383 52.6562C174.383 51.776 174.716 51.0938 175.383 50.6094C176.055 50.1198 176.997 49.875 178.211 49.875H179.617V49.2109C179.617 48.7057 179.466 48.3047 179.164 48.0078C178.862 47.7057 178.417 47.5547 177.828 47.5547C177.312 47.5547 176.88 47.6849 176.531 47.9453C176.182 48.2057 176.008 48.5208 176.008 48.8906H174.555C174.555 48.4688 174.703 48.0625 175 47.6719C175.302 47.276 175.708 46.9635 176.219 46.7344C176.734 46.5052 177.299 46.3906 177.914 46.3906C178.888 46.3906 179.651 46.6354 180.203 47.125C180.755 47.6094 181.042 48.2786 181.062 49.1328V53.0234C181.062 53.7995 181.161 54.4167 181.359 54.875V55H179.844ZM177.445 53.8984C177.898 53.8984 178.328 53.7812 178.734 53.5469C179.141 53.3125 179.435 53.0078 179.617 52.6328V50.8984H178.484C176.714 50.8984 175.828 51.4167 175.828 52.4531C175.828 52.9062 175.979 53.2604 176.281 53.5156C176.583 53.7708 176.971 53.8984 177.445 53.8984ZM187.977 48.8594C187.977 48.4635 187.826 48.151 187.523 47.9219C187.221 47.6875 186.807 47.5703 186.281 47.5703C185.771 47.5703 185.344 47.7031 185 47.9688C184.661 48.2344 184.492 48.5469 184.492 48.9062H183.055C183.055 48.1719 183.362 47.5703 183.977 47.1016C184.591 46.6328 185.359 46.3984 186.281 46.3984C187.271 46.3984 188.042 46.612 188.594 47.0391C189.146 47.4609 189.422 48.0651 189.422 48.8516C189.422 49.2318 189.307 49.5807 189.078 49.8984C188.849 50.2161 188.523 50.4688 188.102 50.6562C189.086 50.9896 189.578 51.6458 189.578 52.625C189.578 53.401 189.279 54.0156 188.68 54.4688C188.081 54.9219 187.281 55.1484 186.281 55.1484C185.307 55.1484 184.503 54.9115 183.867 54.4375C183.237 53.9583 182.922 53.3125 182.922 52.5H184.359C184.359 52.9115 184.542 53.2656 184.906 53.5625C185.276 53.8542 185.734 54 186.281 54C186.833 54 187.279 53.8724 187.617 53.6172C187.956 53.362 188.125 53.0312 188.125 52.625C188.125 52.151 187.982 51.8125 187.695 51.6094C187.414 51.401 186.974 51.2969 186.375 51.2969H184.93V50.0781H186.5C187.484 50.0521 187.977 49.6458 187.977 48.8594ZM191.07 50.6953C191.07 49.8672 191.232 49.1224 191.555 48.4609C191.883 47.7995 192.336 47.2891 192.914 46.9297C193.497 46.5703 194.161 46.3906 194.906 46.3906C196.057 46.3906 196.987 46.7891 197.695 47.5859C198.409 48.3828 198.766 49.4427 198.766 50.7656V50.8672C198.766 51.6901 198.607 52.4297 198.289 53.0859C197.977 53.737 197.526 54.2448 196.938 54.6094C196.354 54.974 195.682 55.1562 194.922 55.1562C193.776 55.1562 192.846 54.7578 192.133 53.9609C191.424 53.1641 191.07 52.1094 191.07 50.7969V50.6953ZM192.523 50.8672C192.523 51.8047 192.74 52.5573 193.172 53.125C193.609 53.6927 194.193 53.9766 194.922 53.9766C195.656 53.9766 196.24 53.6901 196.672 53.1172C197.104 52.5391 197.32 51.7318 197.32 50.6953C197.32 49.7682 197.099 49.0182 196.656 48.4453C196.219 47.8672 195.635 47.5781 194.906 47.5781C194.193 47.5781 193.617 47.862 193.18 48.4297C192.742 48.9974 192.523 49.8099 192.523 50.8672ZM200.711 55V46.5469H204.008C205.133 46.5469 205.995 46.7448 206.594 47.1406C207.198 47.5312 207.5 48.1068 207.5 48.8672C207.5 49.2578 207.383 49.612 207.148 49.9297C206.914 50.2422 206.568 50.4818 206.109 50.6484C206.62 50.7682 207.029 51.0026 207.336 51.3516C207.648 51.7005 207.805 52.1172 207.805 52.6016C207.805 53.3776 207.518 53.9714 206.945 54.3828C206.378 54.7943 205.573 55 204.531 55H200.711ZM202.156 51.2891V53.8359H204.547C205.151 53.8359 205.602 53.724 205.898 53.5C206.201 53.276 206.352 52.9609 206.352 52.5547C206.352 51.7109 205.732 51.2891 204.492 51.2891H202.156ZM202.156 50.1328H204.023C205.378 50.1328 206.055 49.737 206.055 48.9453C206.055 48.1536 205.414 47.7448 204.133 47.7188H202.156V50.1328ZM214.938 55C214.854 54.8333 214.786 54.5365 214.734 54.1094C214.062 54.8073 213.26 55.1562 212.328 55.1562C211.495 55.1562 210.81 54.9219 210.273 54.4531C209.742 53.9792 209.477 53.3802 209.477 52.6562C209.477 51.776 209.81 51.0938 210.477 50.6094C211.148 50.1198 212.091 49.875 213.305 49.875H214.711V49.2109C214.711 48.7057 214.56 48.3047 214.258 48.0078C213.956 47.7057 213.51 47.5547 212.922 47.5547C212.406 47.5547 211.974 47.6849 211.625 47.9453C211.276 48.2057 211.102 48.5208 211.102 48.8906H209.648C209.648 48.4688 209.797 48.0625 210.094 47.6719C210.396 47.276 210.802 46.9635 211.312 46.7344C211.828 46.5052 212.393 46.3906 213.008 46.3906C213.982 46.3906 214.745 46.6354 215.297 47.125C215.849 47.6094 216.135 48.2786 216.156 49.1328V53.0234C216.156 53.7995 216.255 54.4167 216.453 54.875V55H214.938ZM212.539 53.8984C212.992 53.8984 213.422 53.7812 213.828 53.5469C214.234 53.3125 214.529 53.0078 214.711 52.6328V50.8984H213.578C211.807 50.8984 210.922 51.4167 210.922 52.4531C210.922 52.9062 211.073 53.2604 211.375 53.5156C211.677 53.7708 212.065 53.8984 212.539 53.8984ZM224.578 47.7188H221.742V55H220.297V47.7188H217.516V46.5469H224.578V47.7188ZM228.867 55.1562C227.721 55.1562 226.789 54.7812 226.07 54.0312C225.352 53.276 224.992 52.2682 224.992 51.0078V50.7422C224.992 49.9036 225.151 49.1562 225.469 48.5C225.792 47.8385 226.24 47.3229 226.812 46.9531C227.391 46.5781 228.016 46.3906 228.688 46.3906C229.786 46.3906 230.641 46.7526 231.25 47.4766C231.859 48.2005 232.164 49.237 232.164 50.5859V51.1875H226.438C226.458 52.0208 226.701 52.6953 227.164 53.2109C227.633 53.7214 228.227 53.9766 228.945 53.9766C229.456 53.9766 229.888 53.8724 230.242 53.6641C230.596 53.4557 230.906 53.1797 231.172 52.8359L232.055 53.5234C231.346 54.612 230.284 55.1562 228.867 55.1562ZM228.688 47.5781C228.104 47.5781 227.615 47.7917 227.219 48.2188C226.823 48.6406 226.578 49.2344 226.484 50H230.719V49.8906C230.677 49.1562 230.479 48.5885 230.125 48.1875C229.771 47.7812 229.292 47.5781 228.688 47.5781ZM240.773 46.5469V55H239.32V47.7422H236.445L236.273 50.9062C236.18 52.3594 235.935 53.3984 235.539 54.0234C235.148 54.6484 234.526 54.974 233.672 55H233.094V53.7266L233.508 53.6953C233.977 53.6432 234.312 53.3724 234.516 52.8828C234.719 52.3932 234.849 51.487 234.906 50.1641L235.062 46.5469H240.773ZM244.672 49.4609H246.867C247.826 49.4714 248.583 49.7214 249.141 50.2109C249.698 50.7005 249.977 51.3646 249.977 52.2031C249.977 53.0469 249.69 53.724 249.117 54.2344C248.544 54.7448 247.773 55 246.805 55H243.227V46.5469H244.672V49.4609ZM244.672 50.6406V53.8203H246.82C247.362 53.8203 247.781 53.6823 248.078 53.4062C248.375 53.125 248.523 52.7422 248.523 52.2578C248.523 51.7891 248.378 51.4062 248.086 51.1094C247.799 50.8073 247.396 50.651 246.875 50.6406H244.672ZM258.688 55H257.242V51.3906H253.359V55H251.906V46.5469H253.359V50.2109H257.242V46.5469H258.688V55ZM262.594 49.4609H264.789C265.747 49.4714 266.505 49.7214 267.062 50.2109C267.62 50.7005 267.898 51.3646 267.898 52.2031C267.898 53.0469 267.612 53.724 267.039 54.2344C266.466 54.7448 265.695 55 264.727 55H261.148V46.5469H262.594V49.4609ZM270.914 55H269.461V46.5469H270.914V55ZM262.594 50.6406V53.8203H264.742C265.284 53.8203 265.703 53.6823 266 53.4062C266.297 53.125 266.445 52.7422 266.445 52.2578C266.445 51.7891 266.299 51.4062 266.008 51.1094C265.721 50.8073 265.318 50.651 264.797 50.6406H262.594ZM278.906 46.5469H280.352V55H278.906V48.8359L275.008 55H273.562V46.5469H275.008V52.7188L278.906 46.5469ZM279.297 43.4688C279.297 44.099 279.081 44.6068 278.648 44.9922C278.221 45.3724 277.659 45.5625 276.961 45.5625C276.263 45.5625 275.698 45.3698 275.266 44.9844C274.833 44.599 274.617 44.0938 274.617 43.4688H275.797C275.797 43.8333 275.896 44.1198 276.094 44.3281C276.292 44.5312 276.581 44.6328 276.961 44.6328C277.326 44.6328 277.609 44.5312 277.812 44.3281C278.021 44.125 278.125 43.8385 278.125 43.4688H279.297ZM57.0078 83H55.5625V75.7422H51.6719V83H50.2188V74.5469H57.0078V83ZM66.4688 78.8672C66.4688 80.1536 66.1745 81.1901 65.5859 81.9766C64.9974 82.763 64.2005 83.1562 63.1953 83.1562C62.1693 83.1562 61.362 82.8307 60.7734 82.1797V86.25H59.3281V74.5469H60.6484L60.7188 75.4844C61.3073 74.7552 62.125 74.3906 63.1719 74.3906C64.1875 74.3906 64.9896 74.7734 65.5781 75.5391C66.1719 76.3047 66.4688 77.3698 66.4688 78.7344V78.8672ZM65.0234 78.7031C65.0234 77.75 64.8203 76.9974 64.4141 76.4453C64.0078 75.8932 63.4505 75.6172 62.7422 75.6172C61.8672 75.6172 61.2109 76.0052 60.7734 76.7812V80.8203C61.2057 81.5911 61.8672 81.9766 62.7578 81.9766C63.4505 81.9766 64 81.7031 64.4062 81.1562C64.8177 80.6042 65.0234 79.7865 65.0234 78.7031ZM67.9297 78.6953C67.9297 77.8672 68.0911 77.1224 68.4141 76.4609C68.7422 75.7995 69.1953 75.2891 69.7734 74.9297C70.3568 74.5703 71.0208 74.3906 71.7656 74.3906C72.9167 74.3906 73.8464 74.7891 74.5547 75.5859C75.2682 76.3828 75.625 77.4427 75.625 78.7656V78.8672C75.625 79.6901 75.4661 80.4297 75.1484 81.0859C74.8359 81.737 74.3854 82.2448 73.7969 82.6094C73.2135 82.974 72.5417 83.1562 71.7812 83.1562C70.6354 83.1562 69.7057 82.7578 68.9922 81.9609C68.2839 81.1641 67.9297 80.1094 67.9297 78.7969V78.6953ZM69.3828 78.8672C69.3828 79.8047 69.599 80.5573 70.0312 81.125C70.4688 81.6927 71.0521 81.9766 71.7812 81.9766C72.5156 81.9766 73.099 81.6901 73.5312 81.1172C73.9635 80.5391 74.1797 79.7318 74.1797 78.6953C74.1797 77.7682 73.9583 77.0182 73.5156 76.4453C73.0781 75.8672 72.4948 75.5781 71.7656 75.5781C71.0521 75.5781 70.4766 75.862 70.0391 76.4297C69.6016 76.9974 69.3828 77.8099 69.3828 78.8672ZM80.9453 83.1562C79.7995 83.1562 78.8672 82.7812 78.1484 82.0312C77.4297 81.276 77.0703 80.2682 77.0703 79.0078V78.7422C77.0703 77.9036 77.2292 77.1562 77.5469 76.5C77.8698 75.8385 78.3177 75.3229 78.8906 74.9531C79.4688 74.5781 80.0938 74.3906 80.7656 74.3906C81.8646 74.3906 82.7188 74.7526 83.3281 75.4766C83.9375 76.2005 84.2422 77.237 84.2422 78.5859V79.1875H78.5156C78.5365 80.0208 78.7786 80.6953 79.2422 81.2109C79.7109 81.7214 80.3047 81.9766 81.0234 81.9766C81.5339 81.9766 81.9661 81.8724 82.3203 81.6641C82.6745 81.4557 82.9844 81.1797 83.25 80.8359L84.1328 81.5234C83.4245 82.612 82.362 83.1562 80.9453 83.1562ZM80.7656 75.5781C80.1823 75.5781 79.6927 75.7917 79.2969 76.2188C78.901 76.6406 78.6562 77.2344 78.5625 78H82.7969V77.8906C82.7552 77.1562 82.5573 76.5885 82.2031 76.1875C81.849 75.7812 81.3698 75.5781 80.7656 75.5781ZM88.5547 79.3984H87.5V83H86.0469V74.5469H87.5V78.125H88.4453L91.2891 74.5469H93.0391L89.6953 78.6094L93.3203 83H91.4844L88.5547 79.3984ZM100.844 75.7188H98.0078V83H96.5625V75.7188H93.7812V74.5469H100.844V75.7188ZM102.203 85.2656L101.383 84.7031C101.872 84.0208 102.128 83.3177 102.148 82.5938V81.2891H103.562V82.4219C103.562 82.9479 103.432 83.474 103.172 84C102.917 84.526 102.594 84.9479 102.203 85.2656ZM108.977 78.6953C108.977 77.8672 109.138 77.1224 109.461 76.4609C109.789 75.7995 110.242 75.2891 110.82 74.9297C111.404 74.5703 112.068 74.3906 112.812 74.3906C113.964 74.3906 114.893 74.7891 115.602 75.5859C116.315 76.3828 116.672 77.4427 116.672 78.7656V78.8672C116.672 79.6901 116.513 80.4297 116.195 81.0859C115.883 81.737 115.432 82.2448 114.844 82.6094C114.26 82.974 113.589 83.1562 112.828 83.1562C111.682 83.1562 110.753 82.7578 110.039 81.9609C109.331 81.1641 108.977 80.1094 108.977 78.7969V78.6953ZM110.43 78.8672C110.43 79.8047 110.646 80.5573 111.078 81.125C111.516 81.6927 112.099 81.9766 112.828 81.9766C113.562 81.9766 114.146 81.6901 114.578 81.1172C115.01 80.5391 115.227 79.7318 115.227 78.6953C115.227 77.7682 115.005 77.0182 114.562 76.4453C114.125 75.8672 113.542 75.5781 112.812 75.5781C112.099 75.5781 111.523 75.862 111.086 76.4297C110.648 76.9974 110.43 77.8099 110.43 78.8672ZM121.875 81.9766C122.391 81.9766 122.841 81.8203 123.227 81.5078C123.612 81.1953 123.826 80.8047 123.867 80.3359H125.234C125.208 80.8203 125.042 81.2812 124.734 81.7188C124.427 82.1562 124.016 82.5052 123.5 82.7656C122.99 83.026 122.448 83.1562 121.875 83.1562C120.724 83.1562 119.807 82.7734 119.125 82.0078C118.448 81.237 118.109 80.1849 118.109 78.8516V78.6094C118.109 77.7865 118.26 77.0547 118.562 76.4141C118.865 75.7734 119.297 75.276 119.859 74.9219C120.427 74.5677 121.096 74.3906 121.867 74.3906C122.815 74.3906 123.602 74.6745 124.227 75.2422C124.857 75.8099 125.193 76.5469 125.234 77.4531H123.867C123.826 76.9062 123.617 76.4583 123.242 76.1094C122.872 75.7552 122.414 75.5781 121.867 75.5781C121.133 75.5781 120.562 75.8438 120.156 76.375C119.755 76.901 119.555 77.6641 119.555 78.6641V78.9375C119.555 79.9115 119.755 80.6615 120.156 81.1875C120.557 81.7135 121.13 81.9766 121.875 81.9766ZM133.766 83H132.32V79.3906H128.438V83H126.984V74.5469H128.438V78.2109H132.32V74.5469H133.766V83ZM135.711 78.6953C135.711 77.8672 135.872 77.1224 136.195 76.4609C136.523 75.7995 136.977 75.2891 137.555 74.9297C138.138 74.5703 138.802 74.3906 139.547 74.3906C140.698 74.3906 141.628 74.7891 142.336 75.5859C143.049 76.3828 143.406 77.4427 143.406 78.7656V78.8672C143.406 79.6901 143.247 80.4297 142.93 81.0859C142.617 81.737 142.167 82.2448 141.578 82.6094C140.995 82.974 140.323 83.1562 139.562 83.1562C138.417 83.1562 137.487 82.7578 136.773 81.9609C136.065 81.1641 135.711 80.1094 135.711 78.7969V78.6953ZM137.164 78.8672C137.164 79.8047 137.38 80.5573 137.812 81.125C138.25 81.6927 138.833 81.9766 139.562 81.9766C140.297 81.9766 140.88 81.6901 141.312 81.1172C141.745 80.5391 141.961 79.7318 141.961 78.6953C141.961 77.7682 141.74 77.0182 141.297 76.4453C140.859 75.8672 140.276 75.5781 139.547 75.5781C138.833 75.5781 138.258 75.862 137.82 76.4297C137.383 76.9974 137.164 77.8099 137.164 78.8672ZM145.352 83V74.5469H148.648C149.773 74.5469 150.635 74.7448 151.234 75.1406C151.839 75.5312 152.141 76.1068 152.141 76.8672C152.141 77.2578 152.023 77.612 151.789 77.9297C151.555 78.2422 151.208 78.4818 150.75 78.6484C151.26 78.7682 151.669 79.0026 151.977 79.3516C152.289 79.7005 152.445 80.1172 152.445 80.6016C152.445 81.3776 152.159 81.9714 151.586 82.3828C151.018 82.7943 150.214 83 149.172 83H145.352ZM146.797 79.2891V81.8359H149.188C149.792 81.8359 150.242 81.724 150.539 81.5C150.841 81.276 150.992 80.9609 150.992 80.5547C150.992 79.7109 150.372 79.2891 149.133 79.2891H146.797ZM146.797 78.1328H148.664C150.018 78.1328 150.695 77.737 150.695 76.9453C150.695 76.1536 150.055 75.7448 148.773 75.7188H146.797V78.1328ZM159.578 83C159.495 82.8333 159.427 82.5365 159.375 82.1094C158.703 82.8073 157.901 83.1562 156.969 83.1562C156.135 83.1562 155.451 82.9219 154.914 82.4531C154.383 81.9792 154.117 81.3802 154.117 80.6562C154.117 79.776 154.451 79.0938 155.117 78.6094C155.789 78.1198 156.732 77.875 157.945 77.875H159.352V77.2109C159.352 76.7057 159.201 76.3047 158.898 76.0078C158.596 75.7057 158.151 75.5547 157.562 75.5547C157.047 75.5547 156.615 75.6849 156.266 75.9453C155.917 76.2057 155.742 76.5208 155.742 76.8906H154.289C154.289 76.4688 154.438 76.0625 154.734 75.6719C155.036 75.276 155.443 74.9635 155.953 74.7344C156.469 74.5052 157.034 74.3906 157.648 74.3906C158.622 74.3906 159.385 74.6354 159.938 75.125C160.49 75.6094 160.776 76.2786 160.797 77.1328V81.0234C160.797 81.7995 160.896 82.4167 161.094 82.875V83H159.578ZM157.18 81.8984C157.633 81.8984 158.062 81.7812 158.469 81.5469C158.875 81.3125 159.169 81.0078 159.352 80.6328V78.8984H158.219C156.448 78.8984 155.562 79.4167 155.562 80.4531C155.562 80.9062 155.714 81.2604 156.016 81.5156C156.318 81.7708 156.706 81.8984 157.18 81.8984ZM169.969 83H168.523V79.3906H164.641V83H163.188V74.5469H164.641V78.2109H168.523V74.5469H169.969V83ZM179.203 83H177.758V79.3906H173.875V83H172.422V74.5469H173.875V78.2109H177.758V74.5469H179.203V83ZM183.109 77.4609H185.305C186.263 77.4714 187.021 77.7214 187.578 78.2109C188.135 78.7005 188.414 79.3646 188.414 80.2031C188.414 81.0469 188.128 81.724 187.555 82.2344C186.982 82.7448 186.211 83 185.242 83H181.664V74.5469H183.109V77.4609ZM191.43 83H189.977V74.5469H191.43V83ZM183.109 78.6406V81.8203H185.258C185.799 81.8203 186.219 81.6823 186.516 81.4062C186.812 81.125 186.961 80.7422 186.961 80.2578C186.961 79.7891 186.815 79.4062 186.523 79.1094C186.237 78.8073 185.833 78.651 185.312 78.6406H183.109ZM199.422 74.5469H200.867V83H199.422V76.8359L195.523 83H194.078V74.5469H195.523V80.7188L199.422 74.5469ZM199.812 71.4688C199.812 72.099 199.596 72.6068 199.164 72.9922C198.737 73.3724 198.174 73.5625 197.477 73.5625C196.779 73.5625 196.214 73.3698 195.781 72.9844C195.349 72.599 195.133 72.0938 195.133 71.4688H196.312C196.312 71.8333 196.411 72.1198 196.609 72.3281C196.807 72.5312 197.096 72.6328 197.477 72.6328C197.841 72.6328 198.125 72.5312 198.328 72.3281C198.536 72.125 198.641 71.8385 198.641 71.4688H199.812ZM208.883 78.5469V83H207.383V71.625H211.578C212.823 71.625 213.797 71.9427 214.5 72.5781C215.208 73.2135 215.562 74.0547 215.562 75.1016C215.562 76.2057 215.216 77.0573 214.523 77.6562C213.836 78.25 212.849 78.5469 211.562 78.5469H208.883ZM208.883 77.3203H211.578C212.38 77.3203 212.995 77.1328 213.422 76.7578C213.849 76.3776 214.062 75.8307 214.062 75.1172C214.062 74.4401 213.849 73.8984 213.422 73.4922C212.995 73.0859 212.409 72.875 211.664 72.8594H208.883V77.3203ZM221.336 75.8438C221.117 75.8073 220.88 75.7891 220.625 75.7891C219.677 75.7891 219.034 76.1927 218.695 77V83H217.25V74.5469H218.656L218.68 75.5234C219.154 74.7682 219.826 74.3906 220.695 74.3906C220.977 74.3906 221.19 74.4271 221.336 74.5V75.8438ZM222.133 78.6953C222.133 77.8672 222.294 77.1224 222.617 76.4609C222.945 75.7995 223.398 75.2891 223.977 74.9297C224.56 74.5703 225.224 74.3906 225.969 74.3906C227.12 74.3906 228.049 74.7891 228.758 75.5859C229.471 76.3828 229.828 77.4427 229.828 78.7656V78.8672C229.828 79.6901 229.669 80.4297 229.352 81.0859C229.039 81.737 228.589 82.2448 228 82.6094C227.417 82.974 226.745 83.1562 225.984 83.1562C224.839 83.1562 223.909 82.7578 223.195 81.9609C222.487 81.1641 222.133 80.1094 222.133 78.7969V78.6953ZM223.586 78.8672C223.586 79.8047 223.802 80.5573 224.234 81.125C224.672 81.6927 225.255 81.9766 225.984 81.9766C226.719 81.9766 227.302 81.6901 227.734 81.1172C228.167 80.5391 228.383 79.7318 228.383 78.6953C228.383 77.7682 228.161 77.0182 227.719 76.4453C227.281 75.8672 226.698 75.5781 225.969 75.5781C225.255 75.5781 224.68 75.862 224.242 76.4297C223.805 76.9974 223.586 77.8099 223.586 78.8672ZM234.305 81.0391L236.398 74.5469H237.875L234.844 83H233.742L230.68 74.5469H232.156L234.305 81.0391ZM242.664 83.1562C241.518 83.1562 240.586 82.7812 239.867 82.0312C239.148 81.276 238.789 80.2682 238.789 79.0078V78.7422C238.789 77.9036 238.948 77.1562 239.266 76.5C239.589 75.8385 240.036 75.3229 240.609 74.9531C241.188 74.5781 241.812 74.3906 242.484 74.3906C243.583 74.3906 244.438 74.7526 245.047 75.4766C245.656 76.2005 245.961 77.237 245.961 78.5859V79.1875H240.234C240.255 80.0208 240.497 80.6953 240.961 81.2109C241.43 81.7214 242.023 81.9766 242.742 81.9766C243.253 81.9766 243.685 81.8724 244.039 81.6641C244.393 81.4557 244.703 81.1797 244.969 80.8359L245.852 81.5234C245.143 82.612 244.081 83.1562 242.664 83.1562ZM242.484 75.5781C241.901 75.5781 241.411 75.7917 241.016 76.2188C240.62 76.6406 240.375 77.2344 240.281 78H244.516V77.8906C244.474 77.1562 244.276 76.5885 243.922 76.1875C243.568 75.7812 243.089 75.5781 242.484 75.5781ZM251.031 81.9766C251.547 81.9766 251.997 81.8203 252.383 81.5078C252.768 81.1953 252.982 80.8047 253.023 80.3359H254.391C254.365 80.8203 254.198 81.2812 253.891 81.7188C253.583 82.1562 253.172 82.5052 252.656 82.7656C252.146 83.026 251.604 83.1562 251.031 83.1562C249.88 83.1562 248.964 82.7734 248.281 82.0078C247.604 81.237 247.266 80.1849 247.266 78.8516V78.6094C247.266 77.7865 247.417 77.0547 247.719 76.4141C248.021 75.7734 248.453 75.276 249.016 74.9219C249.583 74.5677 250.253 74.3906 251.023 74.3906C251.971 74.3906 252.758 74.6745 253.383 75.2422C254.013 75.8099 254.349 76.5469 254.391 77.4531H253.023C252.982 76.9062 252.773 76.4583 252.398 76.1094C252.029 75.7552 251.57 75.5781 251.023 75.5781C250.289 75.5781 249.719 75.8438 249.312 76.375C248.911 76.901 248.711 77.6641 248.711 78.6641V78.9375C248.711 79.9115 248.911 80.6615 249.312 81.1875C249.714 81.7135 250.286 81.9766 251.031 81.9766ZM257.977 72.5V74.5469H259.555V75.6641H257.977V80.9062C257.977 81.2448 258.047 81.5 258.188 81.6719C258.328 81.8385 258.568 81.9219 258.906 81.9219C259.073 81.9219 259.302 81.8906 259.594 81.8281V83C259.214 83.1042 258.844 83.1562 258.484 83.1562C257.839 83.1562 257.352 82.9609 257.023 82.5703C256.695 82.1797 256.531 81.625 256.531 80.9062V75.6641H254.992V74.5469H256.531V72.5H257.977ZM266.469 82.1641C265.906 82.8255 265.081 83.1562 263.992 83.1562C263.091 83.1562 262.404 82.8958 261.93 82.375C261.461 81.849 261.224 81.0729 261.219 80.0469V74.5469H262.664V80.0078C262.664 81.2891 263.185 81.9297 264.227 81.9297C265.331 81.9297 266.065 81.5182 266.43 80.6953V74.5469H267.875V83H266.5L266.469 82.1641ZM275 80.7578C275 80.3672 274.852 80.0651 274.555 79.8516C274.263 79.6328 273.75 79.4453 273.016 79.2891C272.286 79.1328 271.706 78.9453 271.273 78.7266C270.846 78.5078 270.529 78.2474 270.32 77.9453C270.117 77.6432 270.016 77.2839 270.016 76.8672C270.016 76.1745 270.307 75.5885 270.891 75.1094C271.479 74.6302 272.229 74.3906 273.141 74.3906C274.099 74.3906 274.875 74.638 275.469 75.1328C276.068 75.6276 276.367 76.2604 276.367 77.0312H274.914C274.914 76.6354 274.745 76.2943 274.406 76.0078C274.073 75.7214 273.651 75.5781 273.141 75.5781C272.615 75.5781 272.203 75.6927 271.906 75.9219C271.609 76.151 271.461 76.4505 271.461 76.8203C271.461 77.1693 271.599 77.4323 271.875 77.6094C272.151 77.7865 272.648 77.9557 273.367 78.1172C274.091 78.2786 274.677 78.4714 275.125 78.6953C275.573 78.9193 275.904 79.1901 276.117 79.5078C276.336 79.8203 276.445 80.2031 276.445 80.6562C276.445 81.4115 276.143 82.0182 275.539 82.4766C274.935 82.9297 274.151 83.1562 273.188 83.1562C272.51 83.1562 271.911 83.0365 271.391 82.7969C270.87 82.5573 270.461 82.224 270.164 81.7969C269.872 81.3646 269.727 80.8984 269.727 80.3984H271.172C271.198 80.8828 271.391 81.2682 271.75 81.5547C272.115 81.8359 272.594 81.9766 273.188 81.9766C273.734 81.9766 274.172 81.8672 274.5 81.6484C274.833 81.4245 275 81.1276 275 80.7578ZM287.766 74.5469H289.211V83H287.766V76.8359L283.867 83H282.422V74.5469H283.867V80.7188L287.766 74.5469ZM51.9297 111H50.4297V99.625H51.9297V111ZM62.3047 100.859H58.6484V111H57.1562V100.859H53.5078V99.625H62.3047V100.859ZM71.0703 111H63.6172V109.961L67.5547 105.586C68.138 104.924 68.5391 104.388 68.7578 103.977C68.9818 103.56 69.0938 103.13 69.0938 102.688C69.0938 102.094 68.9141 101.607 68.5547 101.227C68.1953 100.846 67.7161 100.656 67.1172 100.656C66.3984 100.656 65.8385 100.862 65.4375 101.273C65.0417 101.68 64.8438 102.247 64.8438 102.977H63.3984C63.3984 101.93 63.7344 101.083 64.4062 100.438C65.0833 99.7917 65.987 99.4688 67.1172 99.4688C68.1745 99.4688 69.0104 99.7474 69.625 100.305C70.2396 100.857 70.5469 101.594 70.5469 102.516C70.5469 103.635 69.8333 104.969 68.4062 106.516L65.3594 109.82H71.0703V111ZM76.3281 105.93C75.0417 105.56 74.1042 105.107 73.5156 104.57C72.9323 104.029 72.6406 103.362 72.6406 102.57C72.6406 101.674 72.9974 100.935 73.7109 100.352C74.4297 99.763 75.362 99.4688 76.5078 99.4688C77.2891 99.4688 77.9844 99.6198 78.5938 99.9219C79.2083 100.224 79.6823 100.641 80.0156 101.172C80.3542 101.703 80.5234 102.284 80.5234 102.914H79.0156C79.0156 102.227 78.7969 101.688 78.3594 101.297C77.9219 100.901 77.3047 100.703 76.5078 100.703C75.7682 100.703 75.1901 100.867 74.7734 101.195C74.362 101.518 74.1562 101.969 74.1562 102.547C74.1562 103.01 74.3516 103.404 74.7422 103.727C75.138 104.044 75.8073 104.336 76.75 104.602C77.6979 104.867 78.4375 105.161 78.9688 105.484C79.5052 105.802 79.901 106.174 80.1562 106.602C80.4167 107.029 80.5469 107.531 80.5469 108.109C80.5469 109.031 80.1875 109.771 79.4688 110.328C78.75 110.88 77.7891 111.156 76.5859 111.156C75.8047 111.156 75.0755 111.008 74.3984 110.711C73.7214 110.409 73.1979 109.997 72.8281 109.477C72.4635 108.956 72.2812 108.365 72.2812 107.703H73.7891C73.7891 108.391 74.0417 108.935 74.5469 109.336C75.0573 109.732 75.737 109.93 76.5859 109.93C77.3776 109.93 77.9844 109.768 78.4062 109.445C78.8281 109.122 79.0391 108.682 79.0391 108.125C79.0391 107.568 78.8438 107.138 78.4531 106.836C78.0625 106.529 77.3542 106.227 76.3281 105.93ZM85.6406 109.977C86.1562 109.977 86.6068 109.82 86.9922 109.508C87.3776 109.195 87.5911 108.805 87.6328 108.336H89C88.974 108.82 88.8073 109.281 88.5 109.719C88.1927 110.156 87.7812 110.505 87.2656 110.766C86.7552 111.026 86.2135 111.156 85.6406 111.156C84.4896 111.156 83.5729 110.773 82.8906 110.008C82.2135 109.237 81.875 108.185 81.875 106.852V106.609C81.875 105.786 82.026 105.055 82.3281 104.414C82.6302 103.773 83.0625 103.276 83.625 102.922C84.1927 102.568 84.862 102.391 85.6328 102.391C86.5807 102.391 87.3672 102.674 87.9922 103.242C88.6224 103.81 88.9583 104.547 89 105.453H87.6328C87.5911 104.906 87.3828 104.458 87.0078 104.109C86.638 103.755 86.1797 103.578 85.6328 103.578C84.8984 103.578 84.3281 103.844 83.9219 104.375C83.5208 104.901 83.3203 105.664 83.3203 106.664V106.938C83.3203 107.911 83.5208 108.661 83.9219 109.188C84.3229 109.714 84.8958 109.977 85.6406 109.977ZM92.0703 103.57C92.7109 102.784 93.5443 102.391 94.5703 102.391C96.3568 102.391 97.2578 103.398 97.2734 105.414V111H95.8281V105.406C95.8229 104.797 95.6823 104.346 95.4062 104.055C95.1354 103.763 94.7109 103.617 94.1328 103.617C93.6641 103.617 93.2526 103.742 92.8984 103.992C92.5443 104.242 92.2682 104.57 92.0703 104.977V111H90.625V99H92.0703V103.57ZM99.0547 106.695C99.0547 105.867 99.2161 105.122 99.5391 104.461C99.8672 103.799 100.32 103.289 100.898 102.93C101.482 102.57 102.146 102.391 102.891 102.391C104.042 102.391 104.971 102.789 105.68 103.586C106.393 104.383 106.75 105.443 106.75 106.766V106.867C106.75 107.69 106.591 108.43 106.273 109.086C105.961 109.737 105.51 110.245 104.922 110.609C104.339 110.974 103.667 111.156 102.906 111.156C101.76 111.156 100.831 110.758 100.117 109.961C99.4089 109.164 99.0547 108.109 99.0547 106.797V106.695ZM100.508 106.867C100.508 107.805 100.724 108.557 101.156 109.125C101.594 109.693 102.177 109.977 102.906 109.977C103.641 109.977 104.224 109.69 104.656 109.117C105.089 108.539 105.305 107.732 105.305 106.695C105.305 105.768 105.083 105.018 104.641 104.445C104.203 103.867 103.62 103.578 102.891 103.578C102.177 103.578 101.602 103.862 101.164 104.43C100.727 104.997 100.508 105.81 100.508 106.867ZM108.18 106.695C108.18 105.867 108.341 105.122 108.664 104.461C108.992 103.799 109.445 103.289 110.023 102.93C110.607 102.57 111.271 102.391 112.016 102.391C113.167 102.391 114.096 102.789 114.805 103.586C115.518 104.383 115.875 105.443 115.875 106.766V106.867C115.875 107.69 115.716 108.43 115.398 109.086C115.086 109.737 114.635 110.245 114.047 110.609C113.464 110.974 112.792 111.156 112.031 111.156C110.885 111.156 109.956 110.758 109.242 109.961C108.534 109.164 108.18 108.109 108.18 106.797V106.695ZM109.633 106.867C109.633 107.805 109.849 108.557 110.281 109.125C110.719 109.693 111.302 109.977 112.031 109.977C112.766 109.977 113.349 109.69 113.781 109.117C114.214 108.539 114.43 107.732 114.43 106.695C114.43 105.768 114.208 105.018 113.766 104.445C113.328 103.867 112.745 103.578 112.016 103.578C111.302 103.578 110.727 103.862 110.289 104.43C109.852 104.997 109.633 105.81 109.633 106.867ZM119.258 111H117.812V99H119.258V111ZM128.938 109.977C129.453 109.977 129.904 109.82 130.289 109.508C130.674 109.195 130.888 108.805 130.93 108.336H132.297C132.271 108.82 132.104 109.281 131.797 109.719C131.49 110.156 131.078 110.505 130.562 110.766C130.052 111.026 129.51 111.156 128.938 111.156C127.786 111.156 126.87 110.773 126.188 110.008C125.51 109.237 125.172 108.185 125.172 106.852V106.609C125.172 105.786 125.323 105.055 125.625 104.414C125.927 103.773 126.359 103.276 126.922 102.922C127.49 102.568 128.159 102.391 128.93 102.391C129.878 102.391 130.664 102.674 131.289 103.242C131.919 103.81 132.255 104.547 132.297 105.453H130.93C130.888 104.906 130.68 104.458 130.305 104.109C129.935 103.755 129.477 103.578 128.93 103.578C128.195 103.578 127.625 103.844 127.219 104.375C126.818 104.901 126.617 105.664 126.617 106.664V106.938C126.617 107.911 126.818 108.661 127.219 109.188C127.62 109.714 128.193 109.977 128.938 109.977ZM138.016 102.547H139.469V109.82H143.359V102.547H144.805V109.82H145.812L145.672 113.508H144.375V111H138.016V102.547ZM150.883 111.156C149.737 111.156 148.805 110.781 148.086 110.031C147.367 109.276 147.008 108.268 147.008 107.008V106.742C147.008 105.904 147.167 105.156 147.484 104.5C147.807 103.839 148.255 103.323 148.828 102.953C149.406 102.578 150.031 102.391 150.703 102.391C151.802 102.391 152.656 102.753 153.266 103.477C153.875 104.201 154.18 105.237 154.18 106.586V107.188H148.453C148.474 108.021 148.716 108.695 149.18 109.211C149.648 109.721 150.242 109.977 150.961 109.977C151.471 109.977 151.904 109.872 152.258 109.664C152.612 109.456 152.922 109.18 153.188 108.836L154.07 109.523C153.362 110.612 152.299 111.156 150.883 111.156ZM150.703 103.578C150.12 103.578 149.63 103.792 149.234 104.219C148.839 104.641 148.594 105.234 148.5 106H152.734V105.891C152.693 105.156 152.495 104.589 152.141 104.188C151.786 103.781 151.307 103.578 150.703 103.578ZM162.789 102.547V111H161.336V103.742H158.461L158.289 106.906C158.195 108.359 157.951 109.398 157.555 110.023C157.164 110.648 156.542 110.974 155.688 111H155.109V109.727L155.523 109.695C155.992 109.643 156.328 109.372 156.531 108.883C156.734 108.393 156.865 107.487 156.922 106.164L157.078 102.547H162.789ZM166.688 105.461H168.883C169.841 105.471 170.599 105.721 171.156 106.211C171.714 106.701 171.992 107.365 171.992 108.203C171.992 109.047 171.706 109.724 171.133 110.234C170.56 110.745 169.789 111 168.82 111H165.242V102.547H166.688V105.461ZM166.688 106.641V109.82H168.836C169.378 109.82 169.797 109.682 170.094 109.406C170.391 109.125 170.539 108.742 170.539 108.258C170.539 107.789 170.393 107.406 170.102 107.109C169.815 106.807 169.411 106.651 168.891 106.641H166.688ZM175.375 106.133H177.406C177.516 105.008 177.914 104.104 178.602 103.422C179.294 102.734 180.167 102.391 181.219 102.391C182.323 102.391 183.227 102.763 183.93 103.508C184.633 104.253 185.013 105.221 185.07 106.414L185.078 106.867C185.078 107.69 184.917 108.432 184.594 109.094C184.271 109.755 183.818 110.266 183.234 110.625C182.651 110.979 181.984 111.156 181.234 111.156C180.146 111.156 179.255 110.802 178.562 110.094C177.87 109.38 177.482 108.456 177.398 107.32H175.375V111H173.93V102.547H175.375V106.133ZM178.828 106.867C178.828 107.805 179.044 108.557 179.477 109.125C179.914 109.693 180.5 109.977 181.234 109.977C181.969 109.977 182.549 109.688 182.977 109.109C183.409 108.531 183.625 107.727 183.625 106.695C183.625 105.773 183.406 105.023 182.969 104.445C182.531 103.867 181.948 103.578 181.219 103.578C180.5 103.578 179.922 103.862 179.484 104.43C179.047 104.997 178.828 105.81 178.828 106.867ZM194.219 109.977C194.734 109.977 195.185 109.82 195.57 109.508C195.956 109.195 196.169 108.805 196.211 108.336H197.578C197.552 108.82 197.385 109.281 197.078 109.719C196.771 110.156 196.359 110.505 195.844 110.766C195.333 111.026 194.792 111.156 194.219 111.156C193.068 111.156 192.151 110.773 191.469 110.008C190.792 109.237 190.453 108.185 190.453 106.852V106.609C190.453 105.786 190.604 105.055 190.906 104.414C191.208 103.773 191.641 103.276 192.203 102.922C192.771 102.568 193.44 102.391 194.211 102.391C195.159 102.391 195.945 102.674 196.57 103.242C197.201 103.81 197.536 104.547 197.578 105.453H196.211C196.169 104.906 195.961 104.458 195.586 104.109C195.216 103.755 194.758 103.578 194.211 103.578C193.477 103.578 192.906 103.844 192.5 104.375C192.099 104.901 191.898 105.664 191.898 106.664V106.938C191.898 107.911 192.099 108.661 192.5 109.188C192.901 109.714 193.474 109.977 194.219 109.977ZM198.82 106.695C198.82 105.867 198.982 105.122 199.305 104.461C199.633 103.799 200.086 103.289 200.664 102.93C201.247 102.57 201.911 102.391 202.656 102.391C203.807 102.391 204.737 102.789 205.445 103.586C206.159 104.383 206.516 105.443 206.516 106.766V106.867C206.516 107.69 206.357 108.43 206.039 109.086C205.727 109.737 205.276 110.245 204.688 110.609C204.104 110.974 203.432 111.156 202.672 111.156C201.526 111.156 200.596 110.758 199.883 109.961C199.174 109.164 198.82 108.109 198.82 106.797V106.695ZM200.273 106.867C200.273 107.805 200.49 108.557 200.922 109.125C201.359 109.693 201.943 109.977 202.672 109.977C203.406 109.977 203.99 109.69 204.422 109.117C204.854 108.539 205.07 107.732 205.07 106.695C205.07 105.768 204.849 105.018 204.406 104.445C203.969 103.867 203.385 103.578 202.656 103.578C201.943 103.578 201.367 103.862 200.93 104.43C200.492 104.997 200.273 105.81 200.273 106.867ZM212.977 104.859C212.977 104.464 212.826 104.151 212.523 103.922C212.221 103.688 211.807 103.57 211.281 103.57C210.771 103.57 210.344 103.703 210 103.969C209.661 104.234 209.492 104.547 209.492 104.906H208.055C208.055 104.172 208.362 103.57 208.977 103.102C209.591 102.633 210.359 102.398 211.281 102.398C212.271 102.398 213.042 102.612 213.594 103.039C214.146 103.461 214.422 104.065 214.422 104.852C214.422 105.232 214.307 105.581 214.078 105.898C213.849 106.216 213.523 106.469 213.102 106.656C214.086 106.99 214.578 107.646 214.578 108.625C214.578 109.401 214.279 110.016 213.68 110.469C213.081 110.922 212.281 111.148 211.281 111.148C210.307 111.148 209.503 110.911 208.867 110.438C208.237 109.958 207.922 109.312 207.922 108.5H209.359C209.359 108.911 209.542 109.266 209.906 109.562C210.276 109.854 210.734 110 211.281 110C211.833 110 212.279 109.872 212.617 109.617C212.956 109.362 213.125 109.031 213.125 108.625C213.125 108.151 212.982 107.812 212.695 107.609C212.414 107.401 211.974 107.297 211.375 107.297H209.93V106.078H211.5C212.484 106.052 212.977 105.646 212.977 104.859ZM216.383 109.82L216.883 109.203C217.445 108.474 217.766 107.38 217.844 105.922L217.977 102.547H223.422V109.82H224.508V113.484H223.062V111H217.164V113.484H215.719L215.727 109.82H216.383ZM218.094 109.82H221.977V103.883H219.375L219.289 105.898C219.201 107.581 218.802 108.888 218.094 109.82ZM231.328 111C231.245 110.833 231.177 110.536 231.125 110.109C230.453 110.807 229.651 111.156 228.719 111.156C227.885 111.156 227.201 110.922 226.664 110.453C226.133 109.979 225.867 109.38 225.867 108.656C225.867 107.776 226.201 107.094 226.867 106.609C227.539 106.12 228.482 105.875 229.695 105.875H231.102V105.211C231.102 104.706 230.951 104.305 230.648 104.008C230.346 103.706 229.901 103.555 229.312 103.555C228.797 103.555 228.365 103.685 228.016 103.945C227.667 104.206 227.492 104.521 227.492 104.891H226.039C226.039 104.469 226.188 104.062 226.484 103.672C226.786 103.276 227.193 102.964 227.703 102.734C228.219 102.505 228.784 102.391 229.398 102.391C230.372 102.391 231.135 102.635 231.688 103.125C232.24 103.609 232.526 104.279 232.547 105.133V109.023C232.547 109.799 232.646 110.417 232.844 110.875V111H231.328ZM228.93 109.898C229.383 109.898 229.812 109.781 230.219 109.547C230.625 109.312 230.919 109.008 231.102 108.633V106.898H229.969C228.198 106.898 227.312 107.417 227.312 108.453C227.312 108.906 227.464 109.26 227.766 109.516C228.068 109.771 228.456 109.898 228.93 109.898ZM240.969 103.719H238.133V111H236.688V103.719H233.906V102.547H240.969V103.719ZM243.953 105.461H246.148C247.107 105.471 247.865 105.721 248.422 106.211C248.979 106.701 249.258 107.365 249.258 108.203C249.258 109.047 248.971 109.724 248.398 110.234C247.826 110.745 247.055 111 246.086 111H242.508V102.547H243.953V105.461ZM243.953 106.641V109.82H246.102C246.643 109.82 247.062 109.682 247.359 109.406C247.656 109.125 247.805 108.742 247.805 108.258C247.805 107.789 247.659 107.406 247.367 107.109C247.081 106.807 246.677 106.651 246.156 106.641H243.953ZM50.2266 139V130.547H53.5234C54.6484 130.547 55.5104 130.745 56.1094 131.141C56.7135 131.531 57.0156 132.107 57.0156 132.867C57.0156 133.258 56.8984 133.612 56.6641 133.93C56.4297 134.242 56.0833 134.482 55.625 134.648C56.1354 134.768 56.5443 135.003 56.8516 135.352C57.1641 135.701 57.3203 136.117 57.3203 136.602C57.3203 137.378 57.0339 137.971 56.4609 138.383C55.8932 138.794 55.0885 139 54.0469 139H50.2266ZM51.6719 135.289V137.836H54.0625C54.6667 137.836 55.1172 137.724 55.4141 137.5C55.7161 137.276 55.8672 136.961 55.8672 136.555C55.8672 135.711 55.2474 135.289 54.0078 135.289H51.6719ZM51.6719 134.133H53.5391C54.8932 134.133 55.5703 133.737 55.5703 132.945C55.5703 132.154 54.9297 131.745 53.6484 131.719H51.6719V134.133ZM58.8516 134.695C58.8516 133.867 59.013 133.122 59.3359 132.461C59.6641 131.799 60.1172 131.289 60.6953 130.93C61.2786 130.57 61.9427 130.391 62.6875 130.391C63.8385 130.391 64.7682 130.789 65.4766 131.586C66.1901 132.383 66.5469 133.443 66.5469 134.766V134.867C66.5469 135.69 66.388 136.43 66.0703 137.086C65.7578 137.737 65.3073 138.245 64.7188 138.609C64.1354 138.974 63.4635 139.156 62.7031 139.156C61.5573 139.156 60.6276 138.758 59.9141 137.961C59.2057 137.164 58.8516 136.109 58.8516 134.797V134.695ZM60.3047 134.867C60.3047 135.805 60.5208 136.557 60.9531 137.125C61.3906 137.693 61.974 137.977 62.7031 137.977C63.4375 137.977 64.0208 137.69 64.4531 137.117C64.8854 136.539 65.1016 135.732 65.1016 134.695C65.1016 133.768 64.8802 133.018 64.4375 132.445C64 131.867 63.4167 131.578 62.6875 131.578C61.974 131.578 61.3984 131.862 60.9609 132.43C60.5234 132.997 60.3047 133.81 60.3047 134.867ZM73.0078 132.859C73.0078 132.464 72.8568 132.151 72.5547 131.922C72.2526 131.688 71.8385 131.57 71.3125 131.57C70.8021 131.57 70.375 131.703 70.0312 131.969C69.6927 132.234 69.5234 132.547 69.5234 132.906H68.0859C68.0859 132.172 68.3932 131.57 69.0078 131.102C69.6224 130.633 70.3906 130.398 71.3125 130.398C72.3021 130.398 73.0729 130.612 73.625 131.039C74.1771 131.461 74.4531 132.065 74.4531 132.852C74.4531 133.232 74.3385 133.581 74.1094 133.898C73.8802 134.216 73.5547 134.469 73.1328 134.656C74.1172 134.99 74.6094 135.646 74.6094 136.625C74.6094 137.401 74.3099 138.016 73.7109 138.469C73.112 138.922 72.3125 139.148 71.3125 139.148C70.3385 139.148 69.5339 138.911 68.8984 138.438C68.2682 137.958 67.9531 137.312 67.9531 136.5H69.3906C69.3906 136.911 69.5729 137.266 69.9375 137.562C70.3073 137.854 70.7656 138 71.3125 138C71.8646 138 72.3099 137.872 72.6484 137.617C72.987 137.362 73.1562 137.031 73.1562 136.625C73.1562 136.151 73.013 135.812 72.7266 135.609C72.4453 135.401 72.0052 135.297 71.4062 135.297H69.9609V134.078H71.5312C72.5156 134.052 73.0078 133.646 73.0078 132.859ZM81.3516 137.086L84.2266 130.547H86.0312V139H84.5859V132.852L81.8516 139H80.8516L78.0625 132.719V139H76.6172V130.547H78.4922L81.3516 137.086ZM87.9766 134.695C87.9766 133.867 88.138 133.122 88.4609 132.461C88.7891 131.799 89.2422 131.289 89.8203 130.93C90.4036 130.57 91.0677 130.391 91.8125 130.391C92.9635 130.391 93.8932 130.789 94.6016 131.586C95.3151 132.383 95.6719 133.443 95.6719 134.766V134.867C95.6719 135.69 95.513 136.43 95.1953 137.086C94.8828 137.737 94.4323 138.245 93.8438 138.609C93.2604 138.974 92.5885 139.156 91.8281 139.156C90.6823 139.156 89.7526 138.758 89.0391 137.961C88.3307 137.164 87.9766 136.109 87.9766 134.797V134.695ZM89.4297 134.867C89.4297 135.805 89.6458 136.557 90.0781 137.125C90.5156 137.693 91.099 137.977 91.8281 137.977C92.5625 137.977 93.1458 137.69 93.5781 137.117C94.0104 136.539 94.2266 135.732 94.2266 134.695C94.2266 133.768 94.0052 133.018 93.5625 132.445C93.125 131.867 92.5417 131.578 91.8125 131.578C91.099 131.578 90.5234 131.862 90.0859 132.43C89.6484 132.997 89.4297 133.81 89.4297 134.867ZM104.055 135.328H103.039V139H101.594V135.328H100.578L98.2109 139H96.3828L99.4062 134.625L96.6719 130.547H98.4219L100.602 134.047H101.594V130.547H103.039V134.047H104.023L106.219 130.547H107.969L105.227 134.633L108.25 139H106.422L104.055 135.328ZM116.469 139H115.023V135.391H111.141V139H109.688V130.547H111.141V134.211H115.023V130.547H116.469V139ZM118.414 134.695C118.414 133.867 118.576 133.122 118.898 132.461C119.227 131.799 119.68 131.289 120.258 130.93C120.841 130.57 121.505 130.391 122.25 130.391C123.401 130.391 124.331 130.789 125.039 131.586C125.753 132.383 126.109 133.443 126.109 134.766V134.867C126.109 135.69 125.951 136.43 125.633 137.086C125.32 137.737 124.87 138.245 124.281 138.609C123.698 138.974 123.026 139.156 122.266 139.156C121.12 139.156 120.19 138.758 119.477 137.961C118.768 137.164 118.414 136.109 118.414 134.797V134.695ZM119.867 134.867C119.867 135.805 120.083 136.557 120.516 137.125C120.953 137.693 121.536 137.977 122.266 137.977C123 137.977 123.583 137.69 124.016 137.117C124.448 136.539 124.664 135.732 124.664 134.695C124.664 133.768 124.443 133.018 124 132.445C123.562 131.867 122.979 131.578 122.25 131.578C121.536 131.578 120.961 131.862 120.523 132.43C120.086 132.997 119.867 133.81 119.867 134.867ZM131.312 137.977C131.828 137.977 132.279 137.82 132.664 137.508C133.049 137.195 133.263 136.805 133.305 136.336H134.672C134.646 136.82 134.479 137.281 134.172 137.719C133.865 138.156 133.453 138.505 132.938 138.766C132.427 139.026 131.885 139.156 131.312 139.156C130.161 139.156 129.245 138.773 128.562 138.008C127.885 137.237 127.547 136.185 127.547 134.852V134.609C127.547 133.786 127.698 133.055 128 132.414C128.302 131.773 128.734 131.276 129.297 130.922C129.865 130.568 130.534 130.391 131.305 130.391C132.253 130.391 133.039 130.674 133.664 131.242C134.294 131.81 134.63 132.547 134.672 133.453H133.305C133.263 132.906 133.055 132.458 132.68 132.109C132.31 131.755 131.852 131.578 131.305 131.578C130.57 131.578 130 131.844 129.594 132.375C129.193 132.901 128.992 133.664 128.992 134.664V134.938C128.992 135.911 129.193 136.661 129.594 137.188C129.995 137.714 130.568 137.977 131.312 137.977ZM142.578 131.719H139.742V139H138.297V131.719H135.516V130.547H142.578V131.719ZM145.562 133.461H147.758C148.716 133.471 149.474 133.721 150.031 134.211C150.589 134.701 150.867 135.365 150.867 136.203C150.867 137.047 150.581 137.724 150.008 138.234C149.435 138.745 148.664 139 147.695 139H144.117V130.547H145.562V133.461ZM145.562 134.641V137.82H147.711C148.253 137.82 148.672 137.682 148.969 137.406C149.266 137.125 149.414 136.742 149.414 136.258C149.414 135.789 149.268 135.406 148.977 135.109C148.69 134.807 148.286 134.651 147.766 134.641H145.562ZM156.57 137.82L157.07 137.203C157.633 136.474 157.953 135.38 158.031 133.922L158.164 130.547H163.609V137.82H164.695V141.484H163.25V139H157.352V141.484H155.906L155.914 137.82H156.57ZM158.281 137.82H162.164V131.883H159.562L159.477 133.898C159.388 135.581 158.99 136.888 158.281 137.82ZM173.227 130.547V139H171.773V131.742H168.898L168.727 134.906C168.633 136.359 168.388 137.398 167.992 138.023C167.602 138.648 166.979 138.974 166.125 139H165.547V137.727L165.961 137.695C166.43 137.643 166.766 137.372 166.969 136.883C167.172 136.393 167.302 135.487 167.359 134.164L167.516 130.547H173.227ZM182.008 130.547V139H180.555V135.711H178.375L176.383 139H174.82L176.945 135.492C176.404 135.294 175.987 134.99 175.695 134.578C175.409 134.161 175.266 133.677 175.266 133.125C175.266 132.354 175.555 131.734 176.133 131.266C176.711 130.792 177.484 130.552 178.453 130.547H182.008ZM176.719 133.141C176.719 133.552 176.859 133.885 177.141 134.141C177.422 134.391 177.794 134.518 178.258 134.523H180.555V131.719H178.477C177.94 131.719 177.513 131.852 177.195 132.117C176.878 132.378 176.719 132.719 176.719 133.141ZM194.578 131.719H191.742V139H190.297V131.719H187.516V130.547H194.578V131.719ZM201.078 139C200.995 138.833 200.927 138.536 200.875 138.109C200.203 138.807 199.401 139.156 198.469 139.156C197.635 139.156 196.951 138.922 196.414 138.453C195.883 137.979 195.617 137.38 195.617 136.656C195.617 135.776 195.951 135.094 196.617 134.609C197.289 134.12 198.232 133.875 199.445 133.875H200.852V133.211C200.852 132.706 200.701 132.305 200.398 132.008C200.096 131.706 199.651 131.555 199.062 131.555C198.547 131.555 198.115 131.685 197.766 131.945C197.417 132.206 197.242 132.521 197.242 132.891H195.789C195.789 132.469 195.938 132.062 196.234 131.672C196.536 131.276 196.943 130.964 197.453 130.734C197.969 130.505 198.534 130.391 199.148 130.391C200.122 130.391 200.885 130.635 201.438 131.125C201.99 131.609 202.276 132.279 202.297 133.133V137.023C202.297 137.799 202.396 138.417 202.594 138.875V139H201.078ZM198.68 137.898C199.133 137.898 199.562 137.781 199.969 137.547C200.375 137.312 200.669 137.008 200.852 136.633V134.898H199.719C197.948 134.898 197.062 135.417 197.062 136.453C197.062 136.906 197.214 137.26 197.516 137.516C197.818 137.771 198.206 137.898 198.68 137.898ZM211.492 130.547V139H210.039V131.742H207.164L206.992 134.906C206.898 136.359 206.654 137.398 206.258 138.023C205.867 138.648 205.245 138.974 204.391 139H203.812V137.727L204.227 137.695C204.695 137.643 205.031 137.372 205.234 136.883C205.438 136.393 205.568 135.487 205.625 134.164L205.781 130.547H211.492ZM219.031 139C218.948 138.833 218.88 138.536 218.828 138.109C218.156 138.807 217.354 139.156 216.422 139.156C215.589 139.156 214.904 138.922 214.367 138.453C213.836 137.979 213.57 137.38 213.57 136.656C213.57 135.776 213.904 135.094 214.57 134.609C215.242 134.12 216.185 133.875 217.398 133.875H218.805V133.211C218.805 132.706 218.654 132.305 218.352 132.008C218.049 131.706 217.604 131.555 217.016 131.555C216.5 131.555 216.068 131.685 215.719 131.945C215.37 132.206 215.195 132.521 215.195 132.891H213.742C213.742 132.469 213.891 132.062 214.188 131.672C214.49 131.276 214.896 130.964 215.406 130.734C215.922 130.505 216.487 130.391 217.102 130.391C218.076 130.391 218.839 130.635 219.391 131.125C219.943 131.609 220.229 132.279 220.25 133.133V137.023C220.25 137.799 220.349 138.417 220.547 138.875V139H219.031ZM216.633 137.898C217.086 137.898 217.516 137.781 217.922 137.547C218.328 137.312 218.622 137.008 218.805 136.633V134.898H217.672C215.901 134.898 215.016 135.417 215.016 136.453C215.016 136.906 215.167 137.26 215.469 137.516C215.771 137.771 216.159 137.898 216.633 137.898ZM229.422 139H227.977V135.391H224.094V139H222.641V130.547H224.094V134.211H227.977V130.547H229.422V139ZM238.031 131.719H235.195V139H233.75V131.719H230.969V130.547H238.031V131.719ZM245.727 130.547V139H244.273V131.742H241.398L241.227 134.906C241.133 136.359 240.888 137.398 240.492 138.023C240.102 138.648 239.479 138.974 238.625 139H238.047V137.727L238.461 137.695C238.93 137.643 239.266 137.372 239.469 136.883C239.672 136.393 239.802 135.487 239.859 134.164L240.016 130.547H245.727ZM253.516 130.547H254.961V139H253.516V132.836L249.617 139H248.172V130.547H249.617V136.719L253.516 130.547ZM257.414 139V130.547H260.711C261.836 130.547 262.698 130.745 263.297 131.141C263.901 131.531 264.203 132.107 264.203 132.867C264.203 133.258 264.086 133.612 263.852 133.93C263.617 134.242 263.271 134.482 262.812 134.648C263.323 134.768 263.732 135.003 264.039 135.352C264.352 135.701 264.508 136.117 264.508 136.602C264.508 137.378 264.221 137.971 263.648 138.383C263.081 138.794 262.276 139 261.234 139H257.414ZM258.859 135.289V137.836H261.25C261.854 137.836 262.305 137.724 262.602 137.5C262.904 137.276 263.055 136.961 263.055 136.555C263.055 135.711 262.435 135.289 261.195 135.289H258.859ZM258.859 134.133H260.727C262.081 134.133 262.758 133.737 262.758 132.945C262.758 132.154 262.117 131.745 260.836 131.719H258.859V134.133ZM268 133.461H270.195C271.154 133.471 271.911 133.721 272.469 134.211C273.026 134.701 273.305 135.365 273.305 136.203C273.305 137.047 273.018 137.724 272.445 138.234C271.872 138.745 271.102 139 270.133 139H266.555V130.547H268V133.461ZM276.32 139H274.867V130.547H276.32V139ZM268 134.641V137.82H270.148C270.69 137.82 271.109 137.682 271.406 137.406C271.703 137.125 271.852 136.742 271.852 136.258C271.852 135.789 271.706 135.406 271.414 135.109C271.128 134.807 270.724 134.651 270.203 134.641H268ZM281.68 133.633L283.555 130.547H285.242L282.477 134.727L285.328 139H283.656L281.703 135.836L279.75 139H278.07L280.922 134.727L278.156 130.547H279.828L281.68 133.633ZM57.0078 167H55.5625V159.742H51.6719V167H50.2188V158.547H57.0078V167ZM58.9453 162.695C58.9453 161.867 59.1068 161.122 59.4297 160.461C59.7578 159.799 60.2109 159.289 60.7891 158.93C61.3724 158.57 62.0365 158.391 62.7812 158.391C63.9323 158.391 64.862 158.789 65.5703 159.586C66.2839 160.383 66.6406 161.443 66.6406 162.766V162.867C66.6406 163.69 66.4818 164.43 66.1641 165.086C65.8516 165.737 65.401 166.245 64.8125 166.609C64.2292 166.974 63.5573 167.156 62.7969 167.156C61.651 167.156 60.7214 166.758 60.0078 165.961C59.2995 165.164 58.9453 164.109 58.9453 162.797V162.695ZM60.3984 162.867C60.3984 163.805 60.6146 164.557 61.0469 165.125C61.4844 165.693 62.0677 165.977 62.7969 165.977C63.5312 165.977 64.1146 165.69 64.5469 165.117C64.9792 164.539 65.1953 163.732 65.1953 162.695C65.1953 161.768 64.974 161.018 64.5312 160.445C64.0938 159.867 63.5104 159.578 62.7812 159.578C62.0677 159.578 61.4922 159.862 61.0547 160.43C60.6172 160.997 60.3984 161.81 60.3984 162.867ZM67.8203 165.82L68.3203 165.203C68.8828 164.474 69.2031 163.38 69.2812 161.922L69.4141 158.547H74.8594V165.82H75.9453V169.484H74.5V167H68.6016V169.484H67.1562L67.1641 165.82H67.8203ZM69.5312 165.82H73.4141V159.883H70.8125L70.7266 161.898C70.638 163.581 70.2396 164.888 69.5312 165.82ZM84.6875 162.867C84.6875 164.154 84.3932 165.19 83.8047 165.977C83.2161 166.763 82.4193 167.156 81.4141 167.156C80.388 167.156 79.5807 166.831 78.9922 166.18V170.25H77.5469V158.547H78.8672L78.9375 159.484C79.526 158.755 80.3438 158.391 81.3906 158.391C82.4062 158.391 83.2083 158.773 83.7969 159.539C84.3906 160.305 84.6875 161.37 84.6875 162.734V162.867ZM83.2422 162.703C83.2422 161.75 83.0391 160.997 82.6328 160.445C82.2266 159.893 81.6693 159.617 80.9609 159.617C80.0859 159.617 79.4297 160.005 78.9922 160.781V164.82C79.4245 165.591 80.0859 165.977 80.9766 165.977C81.6693 165.977 82.2188 165.703 82.625 165.156C83.0365 164.604 83.2422 163.786 83.2422 162.703ZM86.1484 162.695C86.1484 161.867 86.3099 161.122 86.6328 160.461C86.9609 159.799 87.4141 159.289 87.9922 158.93C88.5755 158.57 89.2396 158.391 89.9844 158.391C91.1354 158.391 92.0651 158.789 92.7734 159.586C93.487 160.383 93.8438 161.443 93.8438 162.766V162.867C93.8438 163.69 93.6849 164.43 93.3672 165.086C93.0547 165.737 92.6042 166.245 92.0156 166.609C91.4323 166.974 90.7604 167.156 90 167.156C88.8542 167.156 87.9245 166.758 87.2109 165.961C86.5026 165.164 86.1484 164.109 86.1484 162.797V162.695ZM87.6016 162.867C87.6016 163.805 87.8177 164.557 88.25 165.125C88.6875 165.693 89.2708 165.977 90 165.977C90.7344 165.977 91.3177 165.69 91.75 165.117C92.1823 164.539 92.3984 163.732 92.3984 162.695C92.3984 161.768 92.1771 161.018 91.7344 160.445C91.2969 159.867 90.7135 159.578 89.9844 159.578C89.2708 159.578 88.6953 159.862 88.2578 160.43C87.8203 160.997 87.6016 161.81 87.6016 162.867ZM99.0469 165.977C99.5625 165.977 100.013 165.82 100.398 165.508C100.784 165.195 100.997 164.805 101.039 164.336H102.406C102.38 164.82 102.214 165.281 101.906 165.719C101.599 166.156 101.188 166.505 100.672 166.766C100.161 167.026 99.6198 167.156 99.0469 167.156C97.8958 167.156 96.9792 166.773 96.2969 166.008C95.6198 165.237 95.2812 164.185 95.2812 162.852V162.609C95.2812 161.786 95.4323 161.055 95.7344 160.414C96.0365 159.773 96.4688 159.276 97.0312 158.922C97.599 158.568 98.2682 158.391 99.0391 158.391C99.987 158.391 100.773 158.674 101.398 159.242C102.029 159.81 102.365 160.547 102.406 161.453H101.039C100.997 160.906 100.789 160.458 100.414 160.109C100.044 159.755 99.5859 159.578 99.0391 159.578C98.3047 159.578 97.7344 159.844 97.3281 160.375C96.9271 160.901 96.7266 161.664 96.7266 162.664V162.938C96.7266 163.911 96.9271 164.661 97.3281 165.188C97.7292 165.714 98.3021 165.977 99.0469 165.977ZM110.312 159.719H107.477V167H106.031V159.719H103.25V158.547H110.312V159.719ZM114.352 163.398H113.297V167H111.844V158.547H113.297V162.125H114.242L117.086 158.547H118.836L115.492 162.609L119.117 167H117.281L114.352 163.398ZM119.805 162.695C119.805 161.867 119.966 161.122 120.289 160.461C120.617 159.799 121.07 159.289 121.648 158.93C122.232 158.57 122.896 158.391 123.641 158.391C124.792 158.391 125.721 158.789 126.43 159.586C127.143 160.383 127.5 161.443 127.5 162.766V162.867C127.5 163.69 127.341 164.43 127.023 165.086C126.711 165.737 126.26 166.245 125.672 166.609C125.089 166.974 124.417 167.156 123.656 167.156C122.51 167.156 121.581 166.758 120.867 165.961C120.159 165.164 119.805 164.109 119.805 162.797V162.695ZM121.258 162.867C121.258 163.805 121.474 164.557 121.906 165.125C122.344 165.693 122.927 165.977 123.656 165.977C124.391 165.977 124.974 165.69 125.406 165.117C125.839 164.539 126.055 163.732 126.055 162.695C126.055 161.768 125.833 161.018 125.391 160.445C124.953 159.867 124.37 159.578 123.641 159.578C122.927 159.578 122.352 159.862 121.914 160.43C121.477 160.997 121.258 161.81 121.258 162.867ZM129.445 167V158.547H132.742C133.867 158.547 134.729 158.745 135.328 159.141C135.932 159.531 136.234 160.107 136.234 160.867C136.234 161.258 136.117 161.612 135.883 161.93C135.648 162.242 135.302 162.482 134.844 162.648C135.354 162.768 135.763 163.003 136.07 163.352C136.383 163.701 136.539 164.117 136.539 164.602C136.539 165.378 136.253 165.971 135.68 166.383C135.112 166.794 134.307 167 133.266 167H129.445ZM130.891 163.289V165.836H133.281C133.885 165.836 134.336 165.724 134.633 165.5C134.935 165.276 135.086 164.961 135.086 164.555C135.086 163.711 134.466 163.289 133.227 163.289H130.891ZM130.891 162.133H132.758C134.112 162.133 134.789 161.737 134.789 160.945C134.789 160.154 134.148 159.745 132.867 159.719H130.891V162.133ZM149.562 162.867C149.562 164.154 149.268 165.19 148.68 165.977C148.091 166.763 147.294 167.156 146.289 167.156C145.263 167.156 144.456 166.831 143.867 166.18V170.25H142.422V158.547H143.742L143.812 159.484C144.401 158.755 145.219 158.391 146.266 158.391C147.281 158.391 148.083 158.773 148.672 159.539C149.266 160.305 149.562 161.37 149.562 162.734V162.867ZM148.117 162.703C148.117 161.75 147.914 160.997 147.508 160.445C147.102 159.893 146.544 159.617 145.836 159.617C144.961 159.617 144.305 160.005 143.867 160.781V164.82C144.299 165.591 144.961 165.977 145.852 165.977C146.544 165.977 147.094 165.703 147.5 165.156C147.911 164.604 148.117 163.786 148.117 162.703ZM156.625 167C156.542 166.833 156.474 166.536 156.422 166.109C155.75 166.807 154.948 167.156 154.016 167.156C153.182 167.156 152.497 166.922 151.961 166.453C151.43 165.979 151.164 165.38 151.164 164.656C151.164 163.776 151.497 163.094 152.164 162.609C152.836 162.12 153.779 161.875 154.992 161.875H156.398V161.211C156.398 160.706 156.247 160.305 155.945 160.008C155.643 159.706 155.198 159.555 154.609 159.555C154.094 159.555 153.661 159.685 153.312 159.945C152.964 160.206 152.789 160.521 152.789 160.891H151.336C151.336 160.469 151.484 160.062 151.781 159.672C152.083 159.276 152.49 158.964 153 158.734C153.516 158.505 154.081 158.391 154.695 158.391C155.669 158.391 156.432 158.635 156.984 159.125C157.536 159.609 157.823 160.279 157.844 161.133V165.023C157.844 165.799 157.943 166.417 158.141 166.875V167H156.625ZM154.227 165.898C154.68 165.898 155.109 165.781 155.516 165.547C155.922 165.312 156.216 165.008 156.398 164.633V162.898H155.266C153.495 162.898 152.609 163.417 152.609 164.453C152.609 164.906 152.76 165.26 153.062 165.516C153.365 165.771 153.753 165.898 154.227 165.898ZM163.5 165.977C164.016 165.977 164.466 165.82 164.852 165.508C165.237 165.195 165.451 164.805 165.492 164.336H166.859C166.833 164.82 166.667 165.281 166.359 165.719C166.052 166.156 165.641 166.505 165.125 166.766C164.615 167.026 164.073 167.156 163.5 167.156C162.349 167.156 161.432 166.773 160.75 166.008C160.073 165.237 159.734 164.185 159.734 162.852V162.609C159.734 161.786 159.885 161.055 160.188 160.414C160.49 159.773 160.922 159.276 161.484 158.922C162.052 158.568 162.721 158.391 163.492 158.391C164.44 158.391 165.227 158.674 165.852 159.242C166.482 159.81 166.818 160.547 166.859 161.453H165.492C165.451 160.906 165.242 160.458 164.867 160.109C164.497 159.755 164.039 159.578 163.492 159.578C162.758 159.578 162.188 159.844 161.781 160.375C161.38 160.901 161.18 161.664 161.18 162.664V162.938C161.18 163.911 161.38 164.661 161.781 165.188C162.182 165.714 162.755 165.977 163.5 165.977ZM174.766 159.719H171.93V167H170.484V159.719H167.703V158.547H174.766V159.719ZM181.641 158.547H183.086V167H181.641V160.836L177.742 167H176.297V158.547H177.742V164.719L181.641 158.547ZM194.844 158.547H196.289V167H194.844V160.836L190.945 167H189.5V158.547H190.945V164.719L194.844 158.547ZM209.719 162.867C209.719 164.154 209.424 165.19 208.836 165.977C208.247 166.763 207.451 167.156 206.445 167.156C205.419 167.156 204.612 166.831 204.023 166.18V170.25H202.578V158.547H203.898L203.969 159.484C204.557 158.755 205.375 158.391 206.422 158.391C207.438 158.391 208.24 158.773 208.828 159.539C209.422 160.305 209.719 161.37 209.719 162.734V162.867ZM208.273 162.703C208.273 161.75 208.07 160.997 207.664 160.445C207.258 159.893 206.701 159.617 205.992 159.617C205.117 159.617 204.461 160.005 204.023 160.781V164.82C204.456 165.591 205.117 165.977 206.008 165.977C206.701 165.977 207.25 165.703 207.656 165.156C208.068 164.604 208.273 163.786 208.273 162.703ZM216.781 167C216.698 166.833 216.63 166.536 216.578 166.109C215.906 166.807 215.104 167.156 214.172 167.156C213.339 167.156 212.654 166.922 212.117 166.453C211.586 165.979 211.32 165.38 211.32 164.656C211.32 163.776 211.654 163.094 212.32 162.609C212.992 162.12 213.935 161.875 215.148 161.875H216.555V161.211C216.555 160.706 216.404 160.305 216.102 160.008C215.799 159.706 215.354 159.555 214.766 159.555C214.25 159.555 213.818 159.685 213.469 159.945C213.12 160.206 212.945 160.521 212.945 160.891H211.492C211.492 160.469 211.641 160.062 211.938 159.672C212.24 159.276 212.646 158.964 213.156 158.734C213.672 158.505 214.237 158.391 214.852 158.391C215.826 158.391 216.589 158.635 217.141 159.125C217.693 159.609 217.979 160.279 218 161.133V165.023C218 165.799 218.099 166.417 218.297 166.875V167H216.781ZM214.383 165.898C214.836 165.898 215.266 165.781 215.672 165.547C216.078 165.312 216.372 165.008 216.555 164.633V162.898H215.422C213.651 162.898 212.766 163.417 212.766 164.453C212.766 164.906 212.917 165.26 213.219 165.516C213.521 165.771 213.909 165.898 214.383 165.898ZM224.914 160.859C224.914 160.464 224.763 160.151 224.461 159.922C224.159 159.688 223.745 159.57 223.219 159.57C222.708 159.57 222.281 159.703 221.938 159.969C221.599 160.234 221.43 160.547 221.43 160.906H219.992C219.992 160.172 220.299 159.57 220.914 159.102C221.529 158.633 222.297 158.398 223.219 158.398C224.208 158.398 224.979 158.612 225.531 159.039C226.083 159.461 226.359 160.065 226.359 160.852C226.359 161.232 226.245 161.581 226.016 161.898C225.786 162.216 225.461 162.469 225.039 162.656C226.023 162.99 226.516 163.646 226.516 164.625C226.516 165.401 226.216 166.016 225.617 166.469C225.018 166.922 224.219 167.148 223.219 167.148C222.245 167.148 221.44 166.911 220.805 166.438C220.174 165.958 219.859 165.312 219.859 164.5H221.297C221.297 164.911 221.479 165.266 221.844 165.562C222.214 165.854 222.672 166 223.219 166C223.771 166 224.216 165.872 224.555 165.617C224.893 165.362 225.062 165.031 225.062 164.625C225.062 164.151 224.919 163.812 224.633 163.609C224.352 163.401 223.911 163.297 223.312 163.297H221.867V162.078H223.438C224.422 162.052 224.914 161.646 224.914 160.859ZM228.523 167V158.547H231.82C232.945 158.547 233.807 158.745 234.406 159.141C235.01 159.531 235.312 160.107 235.312 160.867C235.312 161.258 235.195 161.612 234.961 161.93C234.727 162.242 234.38 162.482 233.922 162.648C234.432 162.768 234.841 163.003 235.148 163.352C235.461 163.701 235.617 164.117 235.617 164.602C235.617 165.378 235.331 165.971 234.758 166.383C234.19 166.794 233.385 167 232.344 167H228.523ZM229.969 163.289V165.836H232.359C232.964 165.836 233.414 165.724 233.711 165.5C234.013 165.276 234.164 164.961 234.164 164.555C234.164 163.711 233.544 163.289 232.305 163.289H229.969ZM229.969 162.133H231.836C233.19 162.133 233.867 161.737 233.867 160.945C233.867 160.154 233.227 159.745 231.945 159.719H229.969V162.133ZM243 158.547H244.445V167H243V160.836L239.102 167H237.656V158.547H239.102V164.719L243 158.547ZM246.898 167V158.547H250.195C251.32 158.547 252.182 158.745 252.781 159.141C253.385 159.531 253.688 160.107 253.688 160.867C253.688 161.258 253.57 161.612 253.336 161.93C253.102 162.242 252.755 162.482 252.297 162.648C252.807 162.768 253.216 163.003 253.523 163.352C253.836 163.701 253.992 164.117 253.992 164.602C253.992 165.378 253.706 165.971 253.133 166.383C252.565 166.794 251.76 167 250.719 167H246.898ZM248.344 163.289V165.836H250.734C251.339 165.836 251.789 165.724 252.086 165.5C252.388 165.276 252.539 164.961 252.539 164.555C252.539 163.711 251.919 163.289 250.68 163.289H248.344ZM248.344 162.133H250.211C251.565 162.133 252.242 161.737 252.242 160.945C252.242 160.154 251.602 159.745 250.32 159.719H248.344V162.133ZM261.125 167C261.042 166.833 260.974 166.536 260.922 166.109C260.25 166.807 259.448 167.156 258.516 167.156C257.682 167.156 256.997 166.922 256.461 166.453C255.93 165.979 255.664 165.38 255.664 164.656C255.664 163.776 255.997 163.094 256.664 162.609C257.336 162.12 258.279 161.875 259.492 161.875H260.898V161.211C260.898 160.706 260.747 160.305 260.445 160.008C260.143 159.706 259.698 159.555 259.109 159.555C258.594 159.555 258.161 159.685 257.812 159.945C257.464 160.206 257.289 160.521 257.289 160.891H255.836C255.836 160.469 255.984 160.062 256.281 159.672C256.583 159.276 256.99 158.964 257.5 158.734C258.016 158.505 258.581 158.391 259.195 158.391C260.169 158.391 260.932 158.635 261.484 159.125C262.036 159.609 262.323 160.279 262.344 161.133V165.023C262.344 165.799 262.443 166.417 262.641 166.875V167H261.125ZM258.727 165.898C259.18 165.898 259.609 165.781 260.016 165.547C260.422 165.312 260.716 165.008 260.898 164.633V162.898H259.766C257.995 162.898 257.109 163.417 257.109 164.453C257.109 164.906 257.26 165.26 257.562 165.516C257.865 165.771 258.253 165.898 258.727 165.898ZM270.766 159.719H267.93V167H266.484V159.719H263.703V158.547H270.766V159.719ZM273.75 161.461H275.945C276.904 161.471 277.661 161.721 278.219 162.211C278.776 162.701 279.055 163.365 279.055 164.203C279.055 165.047 278.768 165.724 278.195 166.234C277.622 166.745 276.852 167 275.883 167H272.305V158.547H273.75V161.461ZM273.75 162.641V165.82H275.898C276.44 165.82 276.859 165.682 277.156 165.406C277.453 165.125 277.602 164.742 277.602 164.258C277.602 163.789 277.456 163.406 277.164 163.109C276.878 162.807 276.474 162.651 275.953 162.641H273.75ZM284.25 165.977C284.766 165.977 285.216 165.82 285.602 165.508C285.987 165.195 286.201 164.805 286.242 164.336H287.609C287.583 164.82 287.417 165.281 287.109 165.719C286.802 166.156 286.391 166.505 285.875 166.766C285.365 167.026 284.823 167.156 284.25 167.156C283.099 167.156 282.182 166.773 281.5 166.008C280.823 165.237 280.484 164.185 280.484 162.852V162.609C280.484 161.786 280.635 161.055 280.938 160.414C281.24 159.773 281.672 159.276 282.234 158.922C282.802 158.568 283.471 158.391 284.242 158.391C285.19 158.391 285.977 158.674 286.602 159.242C287.232 159.81 287.568 160.547 287.609 161.453H286.242C286.201 160.906 285.992 160.458 285.617 160.109C285.247 159.755 284.789 159.578 284.242 159.578C283.508 159.578 282.938 159.844 282.531 160.375C282.13 160.901 281.93 161.664 281.93 162.664V162.938C281.93 163.911 282.13 164.661 282.531 165.188C282.932 165.714 283.505 165.977 284.25 165.977ZM295.695 158.547V167H294.242V163.711H292.062L290.07 167H288.508L290.633 163.492C290.091 163.294 289.674 162.99 289.383 162.578C289.096 162.161 288.953 161.677 288.953 161.125C288.953 160.354 289.242 159.734 289.82 159.266C290.398 158.792 291.172 158.552 292.141 158.547H295.695ZM290.406 161.141C290.406 161.552 290.547 161.885 290.828 162.141C291.109 162.391 291.482 162.518 291.945 162.523H294.242V159.719H292.164C291.628 159.719 291.201 159.852 290.883 160.117C290.565 160.378 290.406 160.719 290.406 161.141ZM302.117 167V158.547H305.414C306.539 158.547 307.401 158.745 308 159.141C308.604 159.531 308.906 160.107 308.906 160.867C308.906 161.258 308.789 161.612 308.555 161.93C308.32 162.242 307.974 162.482 307.516 162.648C308.026 162.768 308.435 163.003 308.742 163.352C309.055 163.701 309.211 164.117 309.211 164.602C309.211 165.378 308.924 165.971 308.352 166.383C307.784 166.794 306.979 167 305.938 167H302.117ZM303.562 163.289V165.836H305.953C306.557 165.836 307.008 165.724 307.305 165.5C307.607 165.276 307.758 164.961 307.758 164.555C307.758 163.711 307.138 163.289 305.898 163.289H303.562ZM303.562 162.133H305.43C306.784 162.133 307.461 161.737 307.461 160.945C307.461 160.154 306.82 159.745 305.539 159.719H303.562V162.133ZM53.4844 193.977C54 193.977 54.4505 193.82 54.8359 193.508C55.2214 193.195 55.4349 192.805 55.4766 192.336H56.8438C56.8177 192.82 56.651 193.281 56.3438 193.719C56.0365 194.156 55.625 194.505 55.1094 194.766C54.599 195.026 54.0573 195.156 53.4844 195.156C52.3333 195.156 51.4167 194.773 50.7344 194.008C50.0573 193.237 49.7188 192.185 49.7188 190.852V190.609C49.7188 189.786 49.8698 189.055 50.1719 188.414C50.474 187.773 50.9062 187.276 51.4688 186.922C52.0365 186.568 52.7057 186.391 53.4766 186.391C54.4245 186.391 55.2109 186.674 55.8359 187.242C56.4661 187.81 56.8021 188.547 56.8438 189.453H55.4766C55.4349 188.906 55.2266 188.458 54.8516 188.109C54.4818 187.755 54.0234 187.578 53.4766 187.578C52.7422 187.578 52.1719 187.844 51.7656 188.375C51.3646 188.901 51.1641 189.664 51.1641 190.664V190.938C51.1641 191.911 51.3646 192.661 51.7656 193.188C52.1667 193.714 52.7396 193.977 53.4844 193.977ZM58.1562 190.93C58.1562 189.518 58.4297 188.409 58.9766 187.602C59.5234 186.794 60.2734 186.391 61.2266 186.391C61.6693 186.391 62.0573 186.466 62.3906 186.617V183H63.8359V186.664C64.2005 186.482 64.6276 186.391 65.1172 186.391C66.0755 186.391 66.8281 186.794 67.375 187.602C67.9219 188.409 68.1953 189.573 68.1953 191.094C68.1953 192.339 67.9219 193.328 67.375 194.062C66.8333 194.797 66.0859 195.164 65.1328 195.164C64.6276 195.164 64.1953 195.081 63.8359 194.914V198.25H62.3906V194.938C62.0469 195.089 61.6536 195.164 61.2109 195.164C60.263 195.164 59.5156 194.797 58.9688 194.062C58.4271 193.328 58.1562 192.323 58.1562 191.047V190.93ZM66.75 190.93C66.75 189.867 66.5677 189.044 66.2031 188.461C65.8385 187.872 65.3359 187.578 64.6953 187.578C64.3672 187.578 64.0807 187.63 63.8359 187.734V193.852C64.0703 193.94 64.362 193.984 64.7109 193.984C65.3568 193.984 65.8568 193.734 66.2109 193.234C66.5703 192.734 66.75 191.966 66.75 190.93ZM59.6016 191.094C59.6016 192.042 59.7708 192.76 60.1094 193.25C60.4479 193.74 60.9349 193.984 61.5703 193.984C61.8724 193.984 62.1458 193.938 62.3906 193.844V187.711C62.1719 187.622 61.9036 187.578 61.5859 187.578C60.9505 187.578 60.4609 187.862 60.1172 188.43C59.7734 188.997 59.6016 189.885 59.6016 191.094ZM73.5859 195.156C72.4401 195.156 71.5078 194.781 70.7891 194.031C70.0703 193.276 69.7109 192.268 69.7109 191.008V190.742C69.7109 189.904 69.8698 189.156 70.1875 188.5C70.5104 187.839 70.9583 187.323 71.5312 186.953C72.1094 186.578 72.7344 186.391 73.4062 186.391C74.5052 186.391 75.3594 186.753 75.9688 187.477C76.5781 188.201 76.8828 189.237 76.8828 190.586V191.188H71.1562C71.1771 192.021 71.4193 192.695 71.8828 193.211C72.3516 193.721 72.9453 193.977 73.6641 193.977C74.1745 193.977 74.6068 193.872 74.9609 193.664C75.3151 193.456 75.625 193.18 75.8906 192.836L76.7734 193.523C76.0651 194.612 75.0026 195.156 73.5859 195.156ZM73.4062 187.578C72.8229 187.578 72.3333 187.792 71.9375 188.219C71.5417 188.641 71.2969 189.234 71.2031 190H75.4375V189.891C75.3958 189.156 75.1979 188.589 74.8438 188.188C74.4896 187.781 74.0104 187.578 73.4062 187.578ZM85.7031 190.867C85.7031 192.154 85.4089 193.19 84.8203 193.977C84.2318 194.763 83.4349 195.156 82.4297 195.156C81.4036 195.156 80.5964 194.831 80.0078 194.18V198.25H78.5625V186.547H79.8828L79.9531 187.484C80.5417 186.755 81.3594 186.391 82.4062 186.391C83.4219 186.391 84.224 186.773 84.8125 187.539C85.4062 188.305 85.7031 189.37 85.7031 190.734V190.867ZM84.2578 190.703C84.2578 189.75 84.0547 188.997 83.6484 188.445C83.2422 187.893 82.6849 187.617 81.9766 187.617C81.1016 187.617 80.4453 188.005 80.0078 188.781V192.82C80.4401 193.591 81.1016 193.977 81.9922 193.977C82.6849 193.977 83.2344 193.703 83.6406 193.156C84.0521 192.604 84.2578 191.786 84.2578 190.703ZM91.0547 195.156C89.9089 195.156 88.9766 194.781 88.2578 194.031C87.5391 193.276 87.1797 192.268 87.1797 191.008V190.742C87.1797 189.904 87.3385 189.156 87.6562 188.5C87.9792 187.839 88.4271 187.323 89 186.953C89.5781 186.578 90.2031 186.391 90.875 186.391C91.974 186.391 92.8281 186.753 93.4375 187.477C94.0469 188.201 94.3516 189.237 94.3516 190.586V191.188H88.625C88.6458 192.021 88.888 192.695 89.3516 193.211C89.8203 193.721 90.4141 193.977 91.1328 193.977C91.6432 193.977 92.0755 193.872 92.4297 193.664C92.7839 193.456 93.0938 193.18 93.3594 192.836L94.2422 193.523C93.5339 194.612 92.4714 195.156 91.0547 195.156ZM90.875 187.578C90.2917 187.578 89.8021 187.792 89.4062 188.219C89.0104 188.641 88.7656 189.234 88.6719 190H92.9062V189.891C92.8646 189.156 92.6667 188.589 92.3125 188.188C91.9583 187.781 91.4792 187.578 90.875 187.578ZM101.836 195H100.336V183.625H101.836V195ZM112.211 184.859H108.555V195H107.062V184.859H103.414V183.625H112.211V184.859ZM112 194.242C112 193.992 112.073 193.784 112.219 193.617C112.37 193.451 112.594 193.367 112.891 193.367C113.188 193.367 113.411 193.451 113.562 193.617C113.719 193.784 113.797 193.992 113.797 194.242C113.797 194.482 113.719 194.682 113.562 194.844C113.411 195.005 113.188 195.086 112.891 195.086C112.594 195.086 112.37 195.005 112.219 194.844C112.073 194.682 112 194.482 112 194.242Z" fill="#322852"/>
<path d="M20.8039 25.0485L18.9507 20.5542C18.8311 20.3145 18.6518 20.1946 18.4126 20.1946H7.11397C6.87485 20.1946 6.63572 20.3145 6.57594 20.5542L4.72272 25.0485C4.60316 25.2882 4.42382 25.4081 4.18469 25.4081H0.597813C0.239125 25.4081 0 25.1684 0 24.8088C0 24.7489 -9.1308e-07 24.629 0.0597803 24.5691L10.3422 1.01868C10.4617 0.778976 10.6411 0.659126 10.8802 0.659126H15.0051C15.2442 0.659126 15.4834 0.778976 15.5431 1.01868L25.7059 24.5691C25.8255 24.8687 25.7059 25.2283 25.407 25.3481C25.3473 25.4081 25.2277 25.4081 25.1679 25.4081H21.4017C21.1028 25.4081 20.8637 25.2283 20.8039 25.0485ZM9.2661 16.1197H16.1409C16.4996 16.1197 16.7388 15.8201 16.679 15.4605C16.679 15.4006 16.679 15.3407 16.6192 15.2808L13.2117 7.01115C13.0921 6.71153 12.7334 6.53176 12.4345 6.71153C12.3149 6.77145 12.1954 6.8913 12.1356 7.01115L8.72806 15.2808C8.6085 15.5804 8.78785 15.9399 9.08675 16.0598C9.14654 16.0598 9.20632 16.1197 9.2661 16.1197Z" fill="#1E1341"/>
<path d="M27.3202 0.659126H46.2709C46.6295 0.659126 46.8687 0.898824 46.8687 1.25837V4.25461C46.8687 4.61416 46.6295 4.85386 46.2709 4.85386H39.7547C39.396 4.85386 39.1569 5.09356 39.1569 5.45311V24.8088C39.1569 25.1684 38.9178 25.4081 38.5591 25.4081H34.9722C34.6135 25.4081 34.3744 25.1684 34.3744 24.8088V5.45311C34.3744 5.15348 32.9396 4.85386 32.581 4.85386H27.2604C26.9017 4.85386 26.6626 4.61416 26.6626 4.25461V1.25837C26.7224 0.898824 26.9615 0.659126 27.3202 0.659126Z" fill="#1E1341"/>
<path d="M83.9329 0.659126H88.3567C88.5959 0.659126 88.7752 0.778975 88.8948 0.958749L96.3674 15.5205C96.5468 15.8201 96.9055 15.9399 97.1446 15.7602C97.2642 15.7002 97.3239 15.6403 97.3837 15.5205L104.797 0.958749C104.916 0.778975 105.095 0.659126 105.335 0.659126H109.758C110.117 0.659126 110.356 0.898824 110.356 1.25837V24.8088C110.356 25.1684 110.117 25.4081 109.758 25.4081H106.59C106.231 25.4081 105.992 25.1684 105.992 24.8088V10.1272C105.992 9.76769 105.693 9.528 105.394 9.528C105.155 9.528 104.976 9.64785 104.856 9.82762L98.5793 22.5317C98.4598 22.7114 98.2804 22.8313 98.0413 22.8912H95.7098C95.4707 22.8912 95.2914 22.7714 95.1718 22.5317L88.7752 9.88754C88.5959 9.58792 88.2372 9.46807 87.998 9.64784C87.8187 9.76769 87.6991 9.94747 87.6991 10.1872V24.8088C87.6991 25.1684 87.46 25.4081 87.1013 25.4081H83.9927C83.634 25.4081 83.3949 25.1684 83.3949 24.8088V1.25837C83.3351 0.898824 83.5742 0.659126 83.9329 0.659126Z" fill="#1E1341"/>
<path d="M134.687 4.13478C133.611 3.77523 132.415 3.59545 131.279 3.59545C130.084 3.53553 128.888 3.83516 127.812 4.4344C126.975 4.9138 126.497 5.75275 126.557 6.71154C126.497 7.49057 126.796 8.26959 127.334 8.86884C127.872 9.40816 128.529 9.88756 129.247 10.1872C130.024 10.4868 131.04 10.9063 132.415 11.3258C133.79 11.7452 135.165 12.2246 136.48 12.8239C137.497 13.3033 138.453 14.0224 139.111 14.9212C139.888 15.9999 140.246 17.3182 140.187 18.6366C140.187 19.9549 139.828 21.2733 139.051 22.3519C138.214 23.4306 137.138 24.3294 135.823 24.8088C134.328 25.4081 132.714 25.7077 131.1 25.6478C129.307 25.6478 127.513 25.2882 125.779 24.5691C124.285 23.9699 122.91 23.1309 121.655 22.0523C121.415 21.8725 121.356 21.5729 121.535 21.2733L122.491 19.4755C122.671 19.1759 123.029 19.0561 123.328 19.2358C123.388 19.2358 123.388 19.2958 123.448 19.2958C124.464 20.1946 125.6 20.9137 126.855 21.453C128.23 22.0523 129.665 22.3519 131.16 22.4118C132.535 22.4718 133.91 22.1721 135.046 21.453C135.942 20.9137 136.48 19.895 136.48 18.8164C136.48 18.0373 136.241 17.2583 135.703 16.6591C135.165 16.0598 134.507 15.6403 133.73 15.3407C132.714 14.9212 131.638 14.5617 130.562 14.2621C129.187 13.8426 127.872 13.3632 126.557 12.8239C125.54 12.3445 124.644 11.6254 123.926 10.7265C123.149 9.64786 122.79 8.38944 122.85 7.07109C122.85 5.81267 123.209 4.61418 123.926 3.59545C124.703 2.51681 125.779 1.73779 126.975 1.25839C128.41 0.719064 129.964 0.419441 131.578 0.419441C134.268 0.419441 136.959 1.13854 139.29 2.51681C139.529 2.69658 139.649 2.99621 139.529 3.29583L138.632 5.27335C138.513 5.57297 138.154 5.69282 137.855 5.57297H137.795C136.719 4.9138 135.703 4.49433 134.687 4.13478Z" fill="#1E1341"/>
<path d="M162.246 2.81642C163.92 4.25461 164.757 6.35198 164.757 8.98867C164.757 11.7452 163.92 13.9025 162.186 15.4006C160.512 16.8987 158.121 17.6778 155.072 17.6778H149.513C149.154 17.6778 148.915 17.9175 148.915 18.277V24.8088C148.915 25.1684 148.676 25.4081 148.317 25.4081H146.105C145.746 25.4081 145.507 25.1684 145.507 24.8088V1.25837C145.507 0.898824 145.746 0.659126 146.105 0.659126H155.013C158.181 0.659126 160.512 1.37822 162.246 2.81642ZM159.855 13.1834C160.991 12.2246 161.529 10.9063 161.529 9.0486C161.648 7.49055 160.991 6.05236 159.855 5.03364C158.719 4.13476 157.105 3.65536 155.013 3.65536H149.632C149.274 3.65536 149.034 3.89506 149.034 4.25461V13.9025C149.034 14.2621 149.274 14.5018 149.632 14.5018H155.013C157.045 14.6216 158.659 14.1422 159.855 13.1834Z" fill="#1E1341"/>
<path d="M185.979 25.0485L183.708 19.7751C183.588 19.5354 183.409 19.4156 183.17 19.4156H170.915C170.675 19.4156 170.436 19.5354 170.376 19.7751L168.105 25.0485C167.985 25.2882 167.806 25.4081 167.567 25.4081H165.295C164.936 25.4081 164.697 25.1684 164.697 24.8088C164.697 24.7489 164.697 24.629 164.757 24.5691L175.219 1.01868C175.338 0.778976 175.518 0.659126 175.757 0.659126H178.507C178.746 0.659126 178.985 0.778976 179.045 1.01868L189.447 24.5691C189.566 24.8687 189.447 25.2283 189.148 25.3481C189.088 25.4081 188.968 25.4081 188.909 25.4081H186.577C186.278 25.4081 186.039 25.2283 185.979 25.0485ZM172.708 16.2995H181.257C181.615 16.2995 181.854 16.0598 181.854 15.7002C181.854 15.6403 181.854 15.5205 181.795 15.4605L177.49 5.57296C177.371 5.27333 177.012 5.15348 176.713 5.27333C176.594 5.33326 176.474 5.45311 176.414 5.57296L172.17 15.4605C172.05 15.7602 172.17 16.1197 172.469 16.2396C172.529 16.2995 172.648 16.2995 172.708 16.2995Z" fill="#1E1341"/>
<path d="M207.381 4.25463C202.957 2.27711 197.756 3.955 195.305 8.14974C194.468 9.58793 194.05 11.2658 194.05 12.9437C194.05 15.4006 195.006 17.7976 196.74 19.5954L196.8 19.6553C199.61 22.4118 203.794 23.1909 207.441 21.6328C208.457 21.2133 209.473 20.5542 210.31 19.8351C210.55 19.5954 210.908 19.6553 211.147 19.895L212.403 21.2733C212.642 21.513 212.642 21.8725 212.403 22.1122C211.267 23.1309 209.952 23.9699 208.517 24.5691C204.811 26.1272 200.566 25.9474 197.039 23.91C193.093 21.6927 190.702 17.498 190.702 12.9437C190.702 10.7265 191.3 8.50929 192.436 6.5917C193.572 4.6741 195.186 3.11606 197.099 2.03741C199.072 0.898844 201.343 0.35952 203.615 0.35952C205.349 0.35952 207.022 0.659144 208.637 1.31832C210.011 1.85764 211.327 2.69658 212.403 3.65538C212.642 3.89508 212.642 4.25463 212.463 4.49433L211.207 5.99245C210.968 6.23215 210.609 6.29207 210.37 6.05237C210.37 6.05237 210.37 6.05237 210.31 5.99245C209.354 5.33328 208.397 4.73403 207.381 4.25463Z" fill="#1E1341"/>
<path d="M218.022 0.659126H233.984C234.342 0.659126 234.582 0.898824 234.582 1.25837V3.11604C234.582 3.47559 234.342 3.71529 233.984 3.71529H221.43C221.071 3.71529 220.832 3.95499 220.832 4.31454V10.7864C220.832 11.146 221.071 11.3857 221.43 11.3857H232.549C232.908 11.3857 233.147 11.6254 233.147 11.9849V13.8426C233.147 14.2021 232.908 14.4418 232.549 14.4418H221.43C221.071 14.4418 220.832 14.6815 220.832 15.0411V21.7527C220.832 22.1122 221.071 22.3519 221.43 22.3519H234.402C234.761 22.3519 235 22.5916 235 22.9511V24.8088C235 25.1684 234.761 25.4081 234.402 25.4081H218.022C217.663 25.4081 217.424 25.1684 217.424 24.8088V1.25837C217.424 0.898824 217.723 0.659126 218.022 0.659126Z" fill="#1E1341"/>
<path d="M64.8028 0C57.39 0 51.3521 6.0524 51.3521 13.4831C51.3521 20.9137 57.39 26.9661 64.8028 26.9661C72.2157 26.9661 78.2536 20.9737 78.2536 13.543C78.2536 6.0524 72.2755 0 64.8028 0ZM64.8028 22.8913C59.6019 22.8913 55.4172 18.6965 55.4172 13.4831C55.4172 8.26962 59.6019 4.07488 64.8028 4.07488C70.0038 4.07488 74.1885 8.26962 74.1885 13.4831C74.1885 18.6366 70.0038 22.8913 64.8028 22.8913Z" fill="#1E1341"/>
</svg>
