<?xml version="1.0" encoding="utf-8"?>
<!-- Generator: Adobe Illustrator 20.1.0, SVG Export Plug-In . SVG Version: 6.00 Build 0)  -->
<svg version="1.1" id="Layer_1" xmlns="http://www.w3.org/2000/svg" xmlns:xlink="http://www.w3.org/1999/xlink" x="0px" y="0px"
	 viewBox="0 0 13.2 13" style="enable-background:new 0 0 13.2 13;" xml:space="preserve">
<style type="text/css">
	.st0{clip-path:url(#SVGID_2_);}
	.st1{fill:#FFFFFF;fill-opacity:0;stroke:#141139;stroke-width:2;stroke-miterlimit:50;}
	.st2{fill:#141139;}
</style>
<g>
	<g transform="translate(-549 -5772)">
		<g>
			<defs>
				<path id="SVGID_1_" d="M555.6,5772c3.6,0,6.6,2.9,6.6,6.5c0,3.6-2.9,6.5-6.6,6.5s-6.6-2.9-6.6-6.5
					C549,5774.9,551.9,5772,555.6,5772L555.6,5772z"/>
			</defs>
			<clipPath id="SVGID_2_">
				<use xlink:href="#SVGID_1_"  style="overflow:visible;"/>
			</clipPath>
			<g class="st0">
				<path id="uduta" class="st1" d="M555.6,5772c3.6,0,6.6,2.9,6.6,6.5c0,3.6-2.9,6.5-6.6,6.5s-6.6-2.9-6.6-6.5
					C549,5774.9,551.9,5772,555.6,5772L555.6,5772z"/>
			</g>
		</g>
	</g>
	<g transform="translate(-549 -5772)">
		<g>
			<path id="udutc" class="st2" d="M555.6,5777c0.8,0,1.5,0.7,1.5,1.5c0,0.8-0.7,1.5-1.5,1.5c-0.8,0-1.5-0.7-1.5-1.5
				S554.7,5777,555.6,5777z"/>
		</g>
	</g>
</g>
</svg>
