<?xml version="1.0" encoding="utf-8"?>
<!-- Generator: Adobe Illustrator 20.1.0, SVG Export Plug-In . SVG Version: 6.00 Build 0)  -->
<svg version="1.1" id="Layer_1" xmlns="http://www.w3.org/2000/svg" xmlns:xlink="http://www.w3.org/1999/xlink" x="0px" y="0px"
	 viewBox="0 0 34.4 33.9" style="enable-background:new 0 0 34.4 33.9;" xml:space="preserve">
<style type="text/css">
	.st0{opacity:0.75;}
	.st1{opacity:0;clip-path:url(#SVGID_2_);}
	.st2{fill:#FFFFFF;fill-opacity:0;stroke:#3D3D3D;stroke-width:2;stroke-miterlimit:50;}
	.st3{fill:none;stroke:#000000;stroke-miterlimit:10;stroke-opacity:0.6;}
	.st4{fill:none;stroke:#3D3D3D;stroke-linecap:round;stroke-miterlimit:10;stroke-opacity:0.8;}
</style>
<g>
	<g transform="translate(-628 -5975)" class="st0">
		<g>
			<defs>
				<ellipse id="SVGID_1_" cx="645.2" cy="5992" rx="16.7" ry="16.5"/>
			</defs>
			<clipPath id="SVGID_2_">
				<use xlink:href="#SVGID_1_"  style="overflow:visible;"/>
			</clipPath>
			<g class="st1">
				<path id="sp7ta" class="st2" d="M645.2,5975.5c9.2,0,16.7,7.4,16.7,16.5s-7.5,16.5-16.7,16.5s-16.7-7.4-16.7-16.5
					S636,5975.5,645.2,5975.5z"/>
			</g>
			<use xlink:href="#SVGID_1_"  style="overflow:visible;fill:none;stroke:#3D3D3D;stroke-miterlimit:10;"/>
		</g>
	</g>
</g>
<path class="st3" d="M13.7,8.8h7c1.4,0,2.7,0.6,3.7,1.5l0,0c1,1,1.5,2.3,1.5,3.7v5.9c0,1.3-0.5,2.5-1.3,3.5l0,0
	c-1,1.1-2.5,1.8-4,1.8h-7c-1.4,0-2.7-0.6-3.7-1.5l0,0c-1-1-1.5-2.3-1.5-3.7V14c0-1.4,0.6-2.7,1.5-3.7l0,0
	C10.9,9.3,12.3,8.8,13.7,8.8z"/>
<ellipse class="st4" cx="17.2" cy="17" rx="3.4" ry="3.4"/>
<ellipse transform="matrix(0.9222 -0.3866 0.3866 0.9222 -2.9217 9.6402)" class="st4" cx="22.5" cy="12.1" rx="0.9" ry="0.9"/>
</svg>
