<svg width="31" height="26" viewBox="0 0 31 26" fill="none" xmlns="http://www.w3.org/2000/svg">
<path d="M16.1214 0.585786C16.9025 -0.195262 18.1688 -0.195262 18.9499 0.585786L29.5565 11.1924C30.3375 11.9734 30.3375 13.2398 29.5565 14.0208L28.8494 14.7279C28.0683 15.509 26.802 15.509 26.0209 14.7279L15.4143 4.12132C14.6333 3.34027 14.6333 2.07394 15.4143 1.29289L16.1214 0.585786Z" fill="url(#paint0_linear)"/>
<path d="M0 12.1716C0 11.067 0.895431 10.1716 2 10.1716H23C24.1046 10.1716 25 11.067 25 12.1716V13.1716C25 14.2761 24.1046 15.1716 23 15.1716H2C0.89543 15.1716 0 14.2761 0 13.1716V12.1716Z" fill="url(#paint1_linear)"/>
<path d="M15.4142 24.5858C14.6332 23.8047 14.6332 22.5384 15.4142 21.7574L26.0208 11.1508C26.8019 10.3697 28.0682 10.3697 28.8492 11.1508L29.5563 11.8579C30.3374 12.6389 30.3374 13.9052 29.5563 14.6863L18.9497 25.2929C18.1687 26.0739 16.9024 26.0739 16.1213 25.2929L15.4142 24.5858Z" fill="url(#paint2_linear)"/>
<defs>
<linearGradient id="paint0_linear" x1="28.5192" y1="-1.87866e-06" x2="1.52369" y2="25.4035" gradientUnits="userSpaceOnUse">
<stop stop-color="#9C30D0"/>
<stop offset="1" stop-color="#F3AF32"/>
</linearGradient>
<linearGradient id="paint1_linear" x1="28.5192" y1="-1.87866e-06" x2="1.52369" y2="25.4035" gradientUnits="userSpaceOnUse">
<stop stop-color="#9C30D0"/>
<stop offset="1" stop-color="#F3AF32"/>
</linearGradient>
<linearGradient id="paint2_linear" x1="28.5192" y1="-1.87866e-06" x2="1.52369" y2="25.4035" gradientUnits="userSpaceOnUse">
<stop stop-color="#9C30D0"/>
<stop offset="1" stop-color="#F3AF32"/>
</linearGradient>
</defs>
</svg>
