<svg width="191" height="170" viewBox="0 0 191 170" fill="none" xmlns="http://www.w3.org/2000/svg">
<path fill-rule="evenodd" clip-rule="evenodd" d="M24.2981 78.7465C23.0448 73.3357 17.2906 69.6972 11.1047 70.4041C5.16446 71.0828 0.717102 75.5621 0.717102 80.8662V135.083C0.717102 141.125 4.17039 146.756 9.89281 150.045L31.0809 162.225C32.0346 162.773 32.6101 163.712 32.6101 164.719V169.956H70.0985V140.816C70.0985 137.94 68.533 135.241 65.8938 133.566L42.357 118.629C39.6048 116.882 36.2425 116.396 33.1697 117.063L24.2981 78.7465ZM27.0605 110.399L19.9132 79.543C19.1309 76.1655 15.5389 73.8942 11.6775 74.3354C7.96948 74.7592 5.19332 77.5552 5.19332 80.8662V135.083C5.19332 139.782 7.87921 144.162 12.33 146.72L33.518 158.9C35.7434 160.179 37.0864 162.369 37.0864 164.719V165.992H65.6222V140.816C65.6222 139.218 64.7526 137.719 63.2863 136.788L39.7495 121.851C36.8927 120.038 32.9276 120.489 30.6727 122.885C28.2625 125.446 28.6948 129.265 31.6282 131.343L46.8774 142.147L44.0811 145.242L28.8319 134.439C23.9342 130.969 23.2241 124.609 27.234 120.347C27.9287 119.609 28.7212 118.982 29.5816 118.468L27.0605 110.399Z" fill="url(#paint0_linear)"/>
<path fill-rule="evenodd" clip-rule="evenodd" d="M166.816 78.7907C168.069 73.38 173.823 69.7415 180.009 70.4483C185.949 71.1271 190.397 75.6064 190.397 80.9105V135.128C190.397 141.169 186.943 146.8 181.221 150.09L160.033 162.269C159.079 162.818 158.504 163.756 158.504 164.763V170H121.015V140.86C121.015 137.985 122.581 135.286 125.22 133.611L148.757 118.673C151.509 116.926 154.871 116.44 157.944 117.107L166.816 78.7907ZM164.053 110.443L171.201 79.5873C171.983 76.2097 175.575 73.9385 179.436 74.3797C183.144 74.8034 185.921 77.5995 185.921 80.9105V135.128C185.921 139.827 183.235 144.206 178.784 146.765L157.596 158.944C155.37 160.224 154.028 162.413 154.028 164.763V166.036H125.492V140.86C125.492 139.263 126.361 137.763 127.828 136.833L151.364 121.895C154.221 120.082 158.186 120.533 160.441 122.929C162.851 125.491 162.419 129.309 159.486 131.388L144.236 142.191L147.033 145.286L162.282 134.483C167.18 131.013 167.89 124.653 163.88 120.392C163.185 119.653 162.393 119.026 161.532 118.513L164.053 110.443Z" fill="url(#paint1_linear)"/>
<path fill-rule="evenodd" clip-rule="evenodd" d="M108.002 7.13397C103.903 6.35602 99.6459 5.94597 95.2772 5.94597V0C100.122 0 104.85 0.454832 109.409 1.31997L108.002 7.13397ZM84.6717 6.7669C80.0533 7.49067 75.6166 8.67897 71.4248 10.2754L68.7721 4.81317C73.4333 3.03797 78.367 1.71656 83.5016 0.9119L84.6717 6.7669ZM129.2 15.1667C125.58 12.9881 121.68 11.1489 117.558 9.70026L120.035 4.17367C124.618 5.78452 128.953 7.82883 132.974 10.249L129.2 15.1667ZM62.4147 14.5429C58.721 16.6668 55.305 19.1387 52.2263 21.9063L47.4432 17.7335C50.8614 14.6607 54.6549 11.9155 58.7583 9.55599L62.4147 14.5429ZM146.339 30.8273C143.732 27.1907 140.644 23.8508 137.153 20.8784L141.807 16.5921C145.683 19.8923 149.112 23.6013 152.008 27.6414L146.339 30.8273ZM44.9177 29.8706C42.3966 33.2285 40.293 36.852 38.6717 40.6831L32.3844 38.5965C34.1873 34.3362 36.5257 30.3088 39.3265 26.5784L44.9177 29.8706ZM154.582 49.1292C153.791 45.5472 152.596 42.0934 151.042 38.8061L157.235 36.5095C158.964 40.1648 160.292 44.0056 161.171 47.9883L154.582 49.1292ZM35.9726 49.1292C35.2352 52.4695 34.8483 55.9231 34.8483 59.4597H28.1339C28.1339 55.5381 28.5631 51.7024 29.3831 47.9883L35.9726 49.1292ZM154.365 70.7288C155.243 67.0981 155.706 63.3285 155.706 59.4597H162.42C162.42 63.7498 161.907 67.937 160.93 71.9745L154.365 70.7288ZM35.9726 69.7902C36.7812 73.4527 38.0117 76.9811 39.6176 80.3345L33.4361 82.6559C31.6505 78.927 30.2821 75.0033 29.3831 70.9311L35.9726 69.7902ZM145.106 89.7431C147.439 86.7394 149.433 83.5152 151.042 80.1133L157.235 82.4099C155.447 86.1924 153.23 89.7757 150.639 93.1122L145.106 89.7431ZM44.9043 89.031C47.4957 92.4854 50.5285 95.6586 53.9315 98.4871L49.3366 102.823C45.5582 99.6822 42.1902 96.1585 39.3116 92.3211L44.9043 89.031ZM128.14 104.377C132.041 102.133 135.633 99.5016 138.844 96.5435L143.684 100.665C140.119 103.949 136.13 106.871 131.796 109.363L128.14 104.377ZM61.8846 104.068C65.2031 106.02 68.751 107.689 72.4846 109.037L69.9504 114.543C65.799 113.045 61.8558 111.19 58.1693 109.021L61.8846 104.068ZM106.943 111.978C111.374 111.21 115.632 110.014 119.659 108.44L122.371 113.879C117.893 115.63 113.158 116.96 108.231 117.813L106.943 111.978ZM83.6117 111.978C87.3836 112.631 91.2836 112.973 95.2772 112.973V118.919C90.8488 118.919 86.5175 118.539 82.3234 117.813L83.6117 111.978Z" fill="url(#paint2_linear)"/>
<path fill-rule="evenodd" clip-rule="evenodd" d="M84.9158 16.8225C81.8499 16.5429 78.7609 17.103 76.0659 18.4273C73.3708 19.7516 71.1995 21.7762 69.845 24.228C68.5672 26.541 68.3477 29.1764 68.8525 32.0515L69.3145 34.6833L66.3169 34.9012C63.271 35.1226 60.7059 36.0761 58.3106 37.8308C55.9357 39.5705 54.2207 41.9137 53.3973 44.5439C52.5738 47.1741 52.6815 49.9647 53.7057 52.539C54.6752 54.9757 56.4668 56.7916 59.125 58.4822L62.2891 60.4945L59.125 62.5068C56.4668 64.1973 54.6752 66.0133 53.7057 68.45C52.6815 71.0243 52.5738 73.8149 53.3973 76.4451C54.2207 79.0753 55.9357 81.4184 58.3106 83.1582C60.5953 84.8319 63.0972 85.6573 66.1989 85.8986C70.7836 85.8509 73.219 82.8465 73.3927 79.6222C73.4803 77.9966 72.9513 76.5648 72.0407 75.6357C71.206 74.7838 69.8432 74.1327 67.5853 74.3145L67.0787 69.3798C70.9756 69.0661 74.1551 70.2334 76.2666 72.388C78.3023 74.4652 79.1234 77.2277 78.9817 79.8584C78.7285 84.5559 75.2719 89.629 68.624 90.6637C68.5034 92.7394 68.8564 94.611 69.845 96.4005C71.1995 98.8522 73.3708 100.877 76.0659 102.201C78.7609 103.525 81.8499 104.086 84.9158 103.806C87.6395 103.557 90.2285 102.657 92.4087 101.209L92.3547 47.497C89.4482 49.1477 86.0751 49.7677 82.8966 49.2835C77.2698 48.4264 72.8961 44.2183 72.8961 37.6578H78.4914C78.4914 41.9983 81.1117 43.9839 83.8451 44.4002C86.6244 44.8236 90.1223 43.7193 92.3478 40.5921L92.3264 19.313C90.174 17.9341 87.5856 17.066 84.9158 16.8225ZM97.9217 19.3114L97.9616 59.0345C100.631 57.7398 103.734 57.0644 106.64 57.2354C109.306 57.3923 112.003 58.2756 114.023 60.2366C116.045 62.1991 117.099 64.9592 117.099 68.3787H111.503C111.503 65.8521 110.739 64.4006 109.89 63.5759C109.039 62.7497 107.812 62.2703 106.269 62.1795C103.274 62.0032 99.8375 63.3375 97.9678 65.252L98.0041 101.318C100.149 102.702 102.675 103.564 105.33 103.806C108.396 104.086 111.485 103.525 114.18 102.201C116.875 100.877 119.046 98.8522 120.401 96.4005C121.728 93.9972 122.08 91.5103 121.597 88.7572L121.135 86.1254L124.132 85.9075C127.333 85.6748 130.058 84.8319 132.342 83.1582C134.717 81.4184 136.432 79.0753 137.256 76.4451C138.079 73.8149 137.972 71.0243 136.947 68.45C135.978 66.0133 134.186 64.1973 131.528 62.5068L128.364 60.4945L131.528 58.4822C134.186 56.7916 135.978 54.9757 136.947 52.539C137.972 49.9647 138.079 47.1741 137.256 44.5439C136.432 41.9137 134.717 39.5705 132.342 37.8308C129.981 36.1006 127.221 35.1258 124.132 34.9012L124.062 34.8961L123.993 34.8879C121.009 34.5367 119.247 35.2153 118.25 36.0403C117.208 36.9028 116.621 38.2379 116.671 39.7822C116.772 42.8764 119.365 46.0813 124.361 46.0813V51.0363C115.929 51.0363 111.254 45.3222 111.078 39.9252C110.99 37.2239 112.012 34.4204 114.431 32.4196C116.309 30.8659 118.818 29.9681 121.803 29.8523C121.82 27.876 121.368 25.979 120.401 24.228C119.046 21.7762 116.875 19.7516 114.18 18.4273C111.485 17.103 108.396 16.5429 105.33 16.8225C102.661 17.066 100.074 17.9335 97.9217 19.3114ZM127.388 30.3313C130.503 30.9334 133.38 32.1602 135.909 34.0128C139.166 36.3989 141.518 39.6126 142.648 43.22C143.777 46.8275 143.629 50.6549 142.225 54.1856C141.201 56.7592 139.569 58.791 137.554 60.4945C139.569 62.198 141.201 64.2297 142.225 66.8033C143.629 70.3341 143.777 74.1615 142.648 77.7689C141.518 81.3764 139.166 84.59 135.909 86.9761C133.336 88.8608 130.445 89.959 127.39 90.5011C127.479 93.262 126.876 95.9545 125.427 98.578C123.569 101.941 120.591 104.718 116.895 106.534C113.198 108.35 108.962 109.118 104.757 108.735C101.285 108.418 97.9735 107.329 95.1228 105.583C92.2722 107.329 88.9604 108.418 85.4891 108.735C81.2841 109.118 77.0475 108.35 73.3511 106.534C69.6548 104.718 66.6767 101.941 64.819 98.578C63.3429 95.9061 62.8872 93.1977 63.032 90.491C60.0312 89.9413 57.2852 88.8376 54.7441 86.9761C51.4869 84.59 49.1348 81.3764 48.0054 77.7689C46.876 74.1615 47.0237 70.3341 48.4285 66.8033C49.4524 64.2297 51.0841 62.198 53.0989 60.4945C51.0841 58.791 49.4524 56.7592 48.4285 54.1856C47.0237 50.6549 46.876 46.8275 48.0054 43.22C49.1348 39.6126 51.4869 36.3989 54.7441 34.0128C57.2385 32.1855 59.9719 30.9524 63.0346 30.3418C62.8821 27.5756 63.3317 24.7426 64.819 22.0505C66.6767 18.6878 69.6548 15.9109 73.3511 14.0946C77.0475 12.2783 81.2841 11.5101 85.4891 11.8936C88.9169 12.2063 92.2597 13.2738 95.1228 14.9982C97.986 13.2738 101.329 12.2063 104.757 11.8936C108.962 11.5101 113.198 12.2783 116.895 14.0946C120.591 15.9109 123.569 18.6878 125.427 22.0505C126.888 24.6954 127.486 27.5126 127.388 30.3313Z" fill="url(#paint3_linear)"/>
<defs>
<linearGradient id="paint0_linear" x1="127.73" y1="1.98199" x2="54.6641" y2="177.31" gradientUnits="userSpaceOnUse">
<stop stop-color="#8C0FDD"/>
<stop offset="0.359116" stop-color="#A93FAD"/>
<stop offset="0.651464" stop-color="#CF776B"/>
<stop offset="0.996721" stop-color="#F3AF32"/>
</linearGradient>
<linearGradient id="paint1_linear" x1="127.73" y1="1.98199" x2="54.6641" y2="177.31" gradientUnits="userSpaceOnUse">
<stop stop-color="#8C0FDD"/>
<stop offset="0.359116" stop-color="#A93FAD"/>
<stop offset="0.651464" stop-color="#CF776B"/>
<stop offset="0.996721" stop-color="#F3AF32"/>
</linearGradient>
<linearGradient id="paint2_linear" x1="127.73" y1="1.98199" x2="54.6641" y2="177.31" gradientUnits="userSpaceOnUse">
<stop stop-color="#8C0FDD"/>
<stop offset="0.359116" stop-color="#A93FAD"/>
<stop offset="0.651464" stop-color="#CF776B"/>
<stop offset="0.996721" stop-color="#F3AF32"/>
</linearGradient>
<linearGradient id="paint3_linear" x1="127.73" y1="1.98199" x2="54.6641" y2="177.31" gradientUnits="userSpaceOnUse">
<stop stop-color="#8C0FDD"/>
<stop offset="0.359116" stop-color="#A93FAD"/>
<stop offset="0.651464" stop-color="#CF776B"/>
<stop offset="0.996721" stop-color="#F3AF32"/>
</linearGradient>
</defs>
</svg>
